<svg width="40" height="40" viewBox="0 0 40 40" fill="none" xmlns="http://www.w3.org/2000/svg">
<path d="M15.9167 36.6666L15.1388 31.3887C14.6665 31.2128 14.1828 30.9814 13.6875 30.6945C13.1922 30.4073 12.7454 30.1063 12.3471 29.7916L7.41667 31.9862L3.30542 24.7916L7.73625 21.5137C7.68986 21.2823 7.66209 21.0301 7.65292 20.757C7.64348 20.4837 7.63875 20.2313 7.63875 19.9999C7.63875 19.7685 7.64348 19.5162 7.65292 19.2428C7.66209 18.9698 7.68986 18.7176 7.73625 18.4862L3.30542 15.2083L7.41667 8.01367L12.3471 10.2083C12.7454 9.89353 13.1946 9.59256 13.6946 9.30534C14.1946 9.01839 14.676 8.79617 15.1388 8.63867L15.9167 3.33325H24.0833L24.8613 8.61117C25.3335 8.787 25.8218 9.01381 26.3263 9.29159C26.831 9.56936 27.2732 9.87492 27.6529 10.2083L32.5833 8.01367L36.6946 15.2083L32.2638 18.4303C32.3101 18.6803 32.3379 18.942 32.3471 19.2153C32.3565 19.4884 32.3613 19.7499 32.3613 19.9999C32.3613 20.2499 32.3565 20.5069 32.3471 20.7708C32.3379 21.0346 32.3056 21.2916 32.25 21.5416L36.6804 24.7916L32.5696 31.9862L27.6529 29.7916C27.2546 30.1063 26.8101 30.4119 26.3196 30.7083C25.8288 31.0046 25.3426 31.2315 24.8613 31.3887L24.0833 36.6666H15.9167ZM18.2221 33.8887H21.7638L22.3471 29.3053C23.2454 29.0831 24.0904 28.7428 24.8821 28.2845C25.6738 27.8262 26.3936 27.273 27.0417 26.6249L31.3613 28.472L33.0138 25.5278L29.2083 22.7083C29.3286 22.2638 29.4213 21.817 29.4863 21.3678C29.551 20.9189 29.5833 20.463 29.5833 19.9999C29.5833 19.5369 29.5556 19.0809 29.5 18.632C29.4445 18.1828 29.3472 17.736 29.2083 17.2916L33.0138 14.472L31.3613 11.5278L27.0417 13.3887C26.4119 12.6942 25.706 12.1133 24.9238 11.6458C24.1413 11.1783 23.2824 10.8612 22.3471 10.6945L21.7779 6.11117H18.2363L17.6529 10.6945C16.7363 10.8981 15.8821 11.2291 15.0904 11.6874C14.2988 12.1458 13.5881 12.7083 12.9583 13.3749L8.63875 11.5278L6.98625 14.472L10.7917 17.2778C10.6714 17.7314 10.5788 18.1805 10.5138 18.6249C10.449 19.0694 10.4167 19.5277 10.4167 19.9999C10.4167 20.463 10.449 20.9167 10.5138 21.3612C10.5788 21.8056 10.6714 22.2546 10.7917 22.7083L6.98625 25.5278L8.63875 28.472L12.9583 26.6112C13.6064 27.2684 14.3263 27.8262 15.1179 28.2845C15.9096 28.7428 16.7546 29.0831 17.6529 29.3053L18.2221 33.8887ZM20.0279 25.5553C21.5649 25.5553 22.875 25.0137 23.9583 23.9303C25.0417 22.847 25.5833 21.5369 25.5833 19.9999C25.5833 18.463 25.0417 17.1528 23.9583 16.0695C22.875 14.9862 21.5649 14.4445 20.0279 14.4445C18.4815 14.4445 17.169 14.9862 16.0904 16.0695C15.0115 17.1528 14.4721 18.463 14.4721 19.9999C14.4721 21.5369 15.0115 22.847 16.0904 23.9303C17.169 25.0137 18.4815 25.5553 20.0279 25.5553Z" fill="#FFB300"/>
</svg>
