<svg width="40" height="40" viewBox="0 0 40 40" fill="none" xmlns="http://www.w3.org/2000/svg">
<path d="M6.11123 33.3334C5.37956 33.3334 4.73373 33.0533 4.17373 32.493C3.61345 31.933 3.33331 31.2872 3.33331 30.5555V9.44466C3.33331 8.713 3.61345 8.06716 4.17373 7.50716C4.73373 6.94689 5.37956 6.66675 6.11123 6.66675H17.25L20.0279 9.44466H33.8887C34.6204 9.44466 35.2662 9.72467 35.8262 10.2847C36.3865 10.8449 36.6666 11.4908 36.6666 12.2222H18.8471L16.0696 9.44466H6.11123V30.5555L10.2779 15.0001H39.1666L34.7637 31.2638C34.5787 31.9491 34.2385 32.4654 33.7429 32.8126C33.2476 33.1598 32.6482 33.3334 31.9446 33.3334H6.11123ZM9.0279 30.5555H32.0833L35.4166 17.778H12.3612L9.0279 30.5555Z" fill="#FFB300"/>
</svg>
