<svg width="40" height="40" viewBox="0 0 40 40" fill="none" xmlns="http://www.w3.org/2000/svg">
<path d="M1.61121 33.3333V29.1667C1.61121 28.2036 1.85885 27.3262 2.35412 26.5346C2.8494 25.7429 3.5276 25.1481 4.38871 24.75C6.31482 23.8703 8.11579 23.229 9.79162 22.8262C11.4675 22.4235 13.1851 22.2221 14.9445 22.2221C16.7037 22.2221 18.4166 22.4235 20.0833 22.8262C21.75 23.229 23.5462 23.8703 25.472 24.75C26.3332 25.1481 27.0161 25.7429 27.5208 26.5346C28.0255 27.3262 28.2779 28.2036 28.2779 29.1667V33.3333H1.61121ZM31.0554 33.3333V29.0554C31.0554 27.4815 30.6457 26.1321 29.8262 25.0071C29.0068 23.8821 27.9073 22.9537 26.5279 22.2221C28.2779 22.426 29.9259 22.7385 31.472 23.1596C33.0184 23.581 34.324 24.074 35.3887 24.6387C36.3332 25.176 37.0693 25.8172 37.597 26.5625C38.1248 27.3078 38.3887 28.1387 38.3887 29.0554V33.3333H31.0554ZM14.9445 19.9721C13.1112 19.9721 11.588 19.3657 10.375 18.1529C9.1619 16.9399 8.55537 15.4167 8.55537 13.5833C8.55537 11.75 9.1619 10.2268 10.375 9.01375C11.588 7.80097 13.1112 7.19458 14.9445 7.19458C16.7779 7.19458 18.3009 7.80097 19.5137 9.01375C20.7268 10.2268 21.3333 11.75 21.3333 13.5833C21.3333 15.4167 20.7268 16.9399 19.5137 18.1529C18.3009 19.3657 16.7779 19.9721 14.9445 19.9721ZM30.5 13.5833C30.5 15.4167 29.8934 16.9399 28.6804 18.1529C27.4676 19.3657 25.9445 19.9721 24.1112 19.9721C23.8057 19.9721 23.4491 19.9467 23.0416 19.8958C22.6341 19.845 22.2776 19.7686 21.972 19.6667C22.6665 18.9075 23.1966 18.0093 23.5625 16.9721C23.9283 15.9351 24.1112 14.8056 24.1112 13.5833C24.1112 12.3611 23.9283 11.25 23.5625 10.25C23.1966 9.25 22.6665 8.33333 21.972 7.5C22.3054 7.39805 22.6619 7.32166 23.0416 7.27083C23.4213 7.22 23.7779 7.19458 24.1112 7.19458C25.9445 7.19458 27.4676 7.80097 28.6804 9.01375C29.8934 10.2268 30.5 11.75 30.5 13.5833ZM4.38871 30.5554H25.5V29.1667C25.5 28.7686 25.3865 28.389 25.1595 28.0279C24.9329 27.6668 24.6482 27.4075 24.3054 27.25C22.472 26.4075 20.847 25.8218 19.4304 25.4929C18.0137 25.1643 16.5184 25 14.9445 25C13.3704 25 11.8704 25.1643 10.4445 25.4929C9.01843 25.8218 7.38871 26.4075 5.55537 27.25C5.21287 27.4075 4.93287 27.6668 4.71537 28.0279C4.4976 28.389 4.38871 28.7686 4.38871 29.1667V30.5554ZM14.9445 17.1946C15.9723 17.1946 16.8311 16.8496 17.5208 16.1596C18.2105 15.4699 18.5554 14.6111 18.5554 13.5833C18.5554 12.5556 18.2105 11.6968 17.5208 11.0071C16.8311 10.3171 15.9723 9.97208 14.9445 9.97208C13.9168 9.97208 13.0579 10.3171 12.3679 11.0071C11.6781 11.6968 11.3333 12.5556 11.3333 13.5833C11.3333 14.6111 11.6781 15.4699 12.3679 16.1596C13.0579 16.8496 13.9168 17.1946 14.9445 17.1946Z" fill="#FFB300"/>
</svg>
