<svg width="40" height="40" viewBox="0 0 40 40" fill="none" xmlns="http://www.w3.org/2000/svg">
<g clip-path="url(#clip0_14_175)">
<path d="M14.1388 35.6249C10.9721 34.4396 8.3796 32.4442 6.36127 29.6387C4.34266 26.8331 3.33335 23.6248 3.33335 20.0137C3.33335 19.1803 3.38655 18.3517 3.49293 17.5278C3.5996 16.7037 3.78252 15.8934 4.04168 15.097L1.62502 16.4999L0.236267 14.1249L7.6946 9.8195L12 17.2362L9.58335 18.6249L7.2221 14.5695C6.86099 15.4306 6.58557 16.3148 6.39585 17.222C6.20613 18.1295 6.11127 19.0601 6.11127 20.0137C6.11127 23.0601 6.99085 25.7801 8.75002 28.1737C10.5092 30.567 12.7777 32.2359 15.5554 33.1803L14.1388 35.6249ZM26.3888 14.4445V11.6666H31.0971C29.7824 9.91659 28.1528 8.55311 26.2084 7.57617C24.2639 6.5995 22.1945 6.11117 20 6.11117C18.2131 6.11117 16.5418 6.42131 14.9863 7.04159C13.4307 7.66186 12.0371 8.52297 10.8054 9.62492L9.38877 7.15283C10.8518 5.95839 12.4815 5.02311 14.2779 4.347C16.074 3.67117 17.9814 3.33325 20 3.33325C22.3611 3.33325 24.5927 3.79853 26.6946 4.72909C28.7963 5.65964 30.6388 6.98603 32.2221 8.70825V5.83325H35V14.4445H26.3888ZM24.7779 39.9999L17.3196 35.6945L21.625 28.2778L24 29.6666L21.5971 33.8333C25.0971 33.4352 28.0207 31.9213 30.3679 29.2916C32.7152 26.6619 33.8888 23.5646 33.8888 19.9999C33.8888 19.5091 33.8634 19.0392 33.8125 18.5903C33.7617 18.1412 33.6807 17.6851 33.5696 17.222H36.4167C36.5 17.6851 36.5625 18.1458 36.6042 18.6041C36.6459 19.0624 36.6667 19.5277 36.6667 19.9999C36.6667 23.898 35.4653 27.3587 33.0625 30.382C30.6597 33.4051 27.574 35.3564 23.8054 36.2362L26.1667 37.6249L24.7779 39.9999Z" fill="#FFB300"/>
</g>
<defs>
<clipPath id="clip0_14_175">
<rect width="40" height="40" fill="white"/>
</clipPath>
</defs>
</svg>
