<svg width="40" height="40" viewBox="0 0 40 40" fill="none" xmlns="http://www.w3.org/2000/svg">
<path d="M5 35V11.8054H11.8054V5H28.1946V18.6112H35V35H22.0279V28.1946H17.9721V35H5ZM7.77792 32.2221H11.8054V28.1946H7.77792V32.2221ZM7.77792 25.4167H11.8054V21.3888H7.77792V25.4167ZM7.77792 18.6112H11.8054V14.5833H7.77792V18.6112ZM14.5833 25.4167H18.6113V21.3888H14.5833V25.4167ZM14.5833 18.6112H18.6113V14.5833H14.5833V18.6112ZM14.5833 11.8054H18.6113V7.77792H14.5833V11.8054ZM21.3888 25.4167H25.4167V21.3888H21.3888V25.4167ZM21.3888 18.6112H25.4167V14.5833H21.3888V18.6112ZM21.3888 11.8054H25.4167V7.77792H21.3888V11.8054ZM28.1946 32.2221H32.2221V28.1946H28.1946V32.2221ZM28.1946 25.4167H32.2221V21.3888H28.1946V25.4167Z" fill="#FFB300"/>
</svg>
