<svg width="48" height="48" viewBox="0 0 48 48" fill="none" xmlns="http://www.w3.org/2000/svg">
<path d="M24 43.9502C19.3333 42.7835 15.5 40.0752 12.5 35.8252C9.5 31.5752 8 26.9169 8 21.8502V9.9502L24 3.9502L40 9.9502V21.8502C40 22.2835 39.9917 22.7169 39.975 23.1502C39.9583 23.5835 39.9167 24.0169 39.85 24.4502C39.6833 24.4502 39.5417 24.4419 39.425 24.4252C39.3083 24.4085 39.1667 24.4002 39 24.4002C38.6333 24.4002 38.2667 24.4252 37.9 24.4752C37.5333 24.5252 37.1667 24.5835 36.8 24.6502C36.8667 24.1835 36.9167 23.7169 36.95 23.2502C36.9833 22.7835 37 22.3169 37 21.8502V12.0502L24 7.1502L11 12.0502V21.8502C11 26.2169 12.2083 30.1585 14.625 33.6752C17.0417 37.1919 20.1667 39.5835 24 40.8502C24.9 40.5502 25.775 40.1669 26.625 39.7002C27.475 39.2335 28.2833 38.7169 29.05 38.1502V41.8002C28.2833 42.2669 27.475 42.6835 26.625 43.0502C25.775 43.4169 24.9 43.7169 24 43.9502ZM33.75 44.0002C33.25 44.0002 32.775 43.7752 32.325 43.3252C31.875 42.8752 31.65 42.4002 31.65 41.9002V35.8002C31.65 35.3002 31.875 34.8252 32.325 34.3752C32.775 33.9252 33.25 33.7002 33.75 33.7002V31.7002C33.75 30.5002 34.1417 29.4835 34.925 28.6502C35.7083 27.8169 36.6833 27.4002 37.85 27.4002C39.0167 27.4002 39.9833 27.8169 40.75 28.6502C41.5167 29.4835 41.9 30.5002 41.9 31.7002V33.7002H41.95C42.4167 33.7002 42.875 33.9252 43.325 34.3752C43.775 34.8252 44 35.3002 44 35.8002V41.9002C44 42.4002 43.775 42.8752 43.325 43.3252C42.875 43.7752 42.4167 44.0002 41.95 44.0002H33.75ZM35.75 33.7002H39.95V31.7002C39.95 31.0335 39.7583 30.4835 39.375 30.0502C38.9917 29.6169 38.4833 29.4002 37.85 29.4002C37.1833 29.4002 36.6667 29.6169 36.3 30.0502C35.9333 30.4835 35.75 31.0335 35.75 31.7002V33.7002Z" fill="#FFB300"/>
</svg>
