<svg width="40" height="40" viewBox="0 0 40 40" fill="none" xmlns="http://www.w3.org/2000/svg">
<path d="M18.6667 32.2221H21.3333V28.9167L27.2221 22.6388V14.75H12.7779V22.6388L18.6667 28.9083V32.2221ZM15.8887 35V30.0554L10 23.7779V14.75C10 13.9861 10.2719 13.3322 10.8158 12.7883C11.36 12.2442 12.014 11.9721 12.7779 11.9721H15.3333L13.9446 13.3612V5H16.7221V11.9721H23.2779V5H26.0554V13.3612L24.6667 11.9721H27.2221C27.986 11.9721 28.64 12.2442 29.1842 12.7883C29.7281 13.3322 30 13.9861 30 14.75V23.7779L24.1112 30.0554V35H15.8887Z" fill="#FFB300"/>
</svg>
