<svg width="40" height="40" viewBox="0 0 40 40" fill="none" xmlns="http://www.w3.org/2000/svg">
<path d="M9.44454 36.6667C8.68065 36.6667 8.02663 36.3947 7.48246 35.8509C6.93857 35.3067 6.66663 34.6527 6.66663 33.8888V16.2779C6.66663 15.514 6.93857 14.86 7.48246 14.3159C8.02663 13.772 8.68065 13.5 9.44454 13.5H11.9445V9.72211C11.9445 7.49349 12.7302 5.59377 14.3016 4.02294C15.873 2.4521 17.7734 1.66669 20.0029 1.66669C22.2323 1.66669 24.1318 2.4521 25.7012 4.02294C27.2707 5.59377 28.0554 7.49349 28.0554 9.72211V13.5H30.5554C31.3193 13.5 31.9733 13.772 32.5175 14.3159C33.0613 14.86 33.3333 15.514 33.3333 16.2779V33.8888C33.3333 34.6527 33.0613 35.3067 32.5175 35.8509C31.9733 36.3947 31.3193 36.6667 30.5554 36.6667H9.44454ZM9.44454 33.8888H30.5554V16.2779H9.44454V33.8888ZM20.0045 28.3334C20.8995 28.3334 21.6643 28.0206 22.2987 27.395C22.9329 26.7695 23.25 26.0174 23.25 25.1388C23.25 24.2777 22.9312 23.5115 22.2937 22.8404C21.6565 22.1691 20.8904 21.8334 19.9954 21.8334C19.1004 21.8334 18.3357 22.1691 17.7012 22.8404C17.067 23.5115 16.75 24.2824 16.75 25.1529C16.75 26.0232 17.0687 26.7709 17.7062 27.3959C18.3434 28.0209 19.1095 28.3334 20.0045 28.3334ZM14.722 13.5H25.2779V9.72211C25.2779 8.25627 24.7651 7.01016 23.7395 5.98377C22.7137 4.95766 21.4683 4.4446 20.0033 4.4446C18.538 4.4446 17.2915 4.95766 16.2637 5.98377C15.2359 7.01016 14.722 8.25627 14.722 9.72211V13.5Z" fill="#FFB300"/>
</svg>
