<svg width="40" height="40" viewBox="0 0 40 40" fill="none" xmlns="http://www.w3.org/2000/svg">
<path d="M19.5 30C16.8333 29.8611 14.5833 28.8333 12.75 26.9166C10.9166 25 9.99998 22.6944 9.99998 20C9.99998 17.2222 10.9722 14.8611 12.9166 12.9166C14.8611 10.9722 17.2222 9.99998 20 9.99998C22.6944 9.99998 25 10.9166 26.9166 12.75C28.8333 14.5833 29.8611 16.8426 30 19.5279L27.0833 18.625C26.7591 16.9397 25.9443 15.5439 24.6387 14.4375C23.3332 13.3311 21.7869 12.7779 20 12.7779C18 12.7779 16.2962 13.4815 14.8887 14.8887C13.4815 16.2962 12.7779 18 12.7779 20C12.7779 21.7686 13.3311 23.3103 14.4375 24.625C15.5439 25.9397 16.9397 26.7591 18.625 27.0833L19.5 30ZM21.5 36.5833C21.25 36.6203 21 36.6435 20.75 36.6529C20.5 36.6621 20.25 36.6666 20 36.6666C17.6944 36.6666 15.5278 36.2291 13.5 35.3541C11.4722 34.4791 9.70831 33.2916 8.20831 31.7916C6.70831 30.2916 5.52081 28.5278 4.64581 26.5C3.77081 24.4722 3.33331 22.3055 3.33331 20C3.33331 17.6944 3.77081 15.5278 4.64581 13.5C5.52081 11.4722 6.70831 9.70831 8.20831 8.20831C9.70831 6.70831 11.4722 5.52081 13.5 4.64581C15.5278 3.77081 17.6944 3.33331 20 3.33331C22.3055 3.33331 24.4722 3.77081 26.5 4.64581C28.5278 5.52081 30.2916 6.70831 31.7916 8.20831C33.2916 9.70831 34.4791 11.4722 35.3541 13.5C36.2291 15.5278 36.6666 17.6944 36.6666 20C36.6666 20.25 36.6621 20.5 36.6529 20.75C36.6435 21 36.6203 21.25 36.5833 21.5L33.8887 20.6666V20C33.8887 16.1297 32.5415 12.8473 29.8471 10.1529C27.1526 7.45845 23.8703 6.11123 20 6.11123C16.1297 6.11123 12.8473 7.45845 10.1529 10.1529C7.45845 12.8473 6.11123 16.1297 6.11123 20C6.11123 23.8703 7.45845 27.1526 10.1529 29.8471C12.8473 32.5415 16.1297 33.8887 20 33.8887H20.6666L21.5 36.5833ZM34.2083 37.5L27.0833 30.375L25 36.6666L20 20L36.6666 25L30.375 27.0833L37.5 34.2083L34.2083 37.5Z" fill="#FFB300"/>
</svg>
