<svg width="65" height="51" viewBox="0 0 65 51" fill="none" xmlns="http://www.w3.org/2000/svg">
<path d="M57.673 0.0776444C57.5331 0.150101 57.3297 0.157351 57.0627 0.0993833C56.7957 0.0414065 56.5732 0.0196677 56.3952 0.0341666C56.2172 0.0486561 55.785 0.128362 55.0984 0.273295C54.7551 0.345752 54.4119 0.418218 54.0686 0.490684C54.0749 0.512423 54.0813 0.534162 54.0877 0.555901C54.094 0.57764 54.1004 0.599379 54.1067 0.621118C54.0431 0.613868 53.9795 0.606628 53.916 0.599379C53.8524 0.592129 53.7888 0.584889 53.7253 0.57764C53.7253 0.599379 53.7253 0.621118 53.7253 0.642857C53.7253 0.664596 53.7253 0.686334 53.7253 0.708073C54.1893 0.708073 54.6534 0.708073 55.1175 0.708073C56.0456 0.708073 56.5795 0.729812 56.7194 0.77329C56.8593 0.816768 56.9864 0.910973 57.1008 1.0559C57.2153 1.20083 57.3042 1.27329 57.3678 1.27329C57.4314 1.27329 57.4759 1.25155 57.5013 1.20807C57.5268 1.16459 57.5712 1.13561 57.6348 1.12111C57.6666 1.11387 57.6984 1.10662 57.7302 1.09937C57.7366 1.17184 57.7429 1.24431 57.7492 1.31676C57.7619 1.4617 57.7938 1.58488 57.8446 1.68633C57.8954 1.78778 58.0353 1.84575 58.2642 1.86025C58.493 1.87474 58.6201 1.89647 58.6456 1.92546C58.671 1.95445 58.6773 2.10662 58.6646 2.38198C58.652 2.65735 58.671 2.84575 58.7219 2.9472C58.7727 3.04865 58.849 3.12835 58.9507 3.18633C59.0524 3.2443 59.1096 3.36024 59.1223 3.53415C59.135 3.70807 59.1669 3.8385 59.2177 3.92545C59.2685 4.01241 59.3766 4.03415 59.5419 3.99067C59.7071 3.94719 59.8915 3.94719 60.0949 3.99067C60.2983 4.03415 60.4701 4.04865 60.6099 4.03415C60.7497 4.01966 60.8451 3.96893 60.8959 3.88198C60.9468 3.79502 60.9659 3.5414 60.9531 3.12111C60.9404 2.70082 61.0231 2.48344 61.201 2.46894C61.3791 2.45445 61.5316 2.41822 61.6587 2.36024C61.7859 2.30227 61.8813 2.22981 61.9448 2.14285C62.0084 2.0559 62.0275 1.91096 62.002 1.70807C61.9766 1.50517 61.913 1.36024 61.8113 1.27329C61.7097 1.18633 61.5888 1.12836 61.449 1.09937C61.3092 1.0704 60.826 0.889234 59.9996 0.555901C59.1732 0.222567 58.6138 0.0414066 58.3214 0.0124182C58.0289 -0.0165608 57.8128 0.00517814 57.673 0.0776444ZM51.2651 1.18633C51.246 1.28778 51.227 1.38923 51.2079 1.49068C51.0935 1.41822 50.9791 1.34575 50.8646 1.27329C50.6358 1.12836 50.4133 1.0559 50.1972 1.0559C49.9811 1.0559 49.7204 1.12836 49.4153 1.27329C49.1101 1.41822 48.9067 1.49068 48.805 1.49068C48.7033 1.49068 48.6143 1.51966 48.538 1.57764C48.4999 1.60662 48.4617 1.63561 48.4236 1.6646C48.449 1.67184 48.4745 1.67909 48.4999 1.68633C48.5253 1.69357 48.5508 1.70082 48.5761 1.70807C48.5761 1.68633 48.5761 1.6646 48.5761 1.64286C48.5761 1.59938 48.6207 1.57039 48.7096 1.5559C48.7542 1.54865 48.7987 1.5414 48.8431 1.53416C48.8431 1.54865 48.8431 1.56314 48.8431 1.57764C48.8431 1.59213 48.8431 1.60662 48.8431 1.62112C48.9194 1.62112 48.9957 1.62112 49.072 1.62112C49.2246 1.62112 49.4026 1.65735 49.606 1.72981C49.8094 1.80227 50.0002 1.90372 50.1781 2.03416C50.3561 2.16459 50.5404 2.33125 50.7311 2.53415C50.9218 2.73705 51.0109 2.87474 50.9981 2.9472C50.9854 3.01966 50.9092 3.08488 50.7693 3.14285C50.6295 3.20082 50.585 3.37473 50.6358 3.66459C50.6867 3.95444 50.6739 4.14284 50.5976 4.2298C50.5214 4.31676 50.4388 4.36024 50.3497 4.36024C50.2607 4.36024 50.159 4.324 50.0446 4.25154C49.9302 4.17908 49.8348 4.07039 49.7585 3.92545C49.6823 3.78053 49.6187 3.58488 49.5678 3.3385C49.517 3.09213 49.428 2.90372 49.3008 2.77328C49.1737 2.64285 49.0593 2.56314 48.9576 2.53415C48.8559 2.50517 48.7542 2.56314 48.6524 2.70806C48.5508 2.853 48.4936 3.00517 48.4808 3.16459C48.4681 3.324 48.4936 3.57763 48.5571 3.92545C48.6207 4.27328 48.6588 4.58487 48.6715 4.86024C48.6843 5.13559 48.805 5.49792 49.0338 5.94719C49.2627 6.39646 49.3899 6.70806 49.4153 6.88197C49.428 6.96892 49.4407 7.05588 49.4534 7.14285C49.4026 7.1356 49.3517 7.12835 49.3008 7.1211C49.1992 7.10661 49.0911 7.05588 48.9766 6.96892C48.8622 6.88197 48.697 6.72256 48.4808 6.49067C48.2647 6.25879 48.1248 6.08487 48.0612 5.96893C47.9977 5.85299 47.9341 5.65009 47.8705 5.36023C47.8069 5.07038 47.7688 4.72256 47.7561 4.31676C47.7434 3.91097 47.8006 3.43995 47.9277 2.90372C47.9913 2.63561 48.0549 2.36749 48.1185 2.09937C48.0359 2.09213 47.9532 2.08488 47.8705 2.07764C47.7053 2.06315 47.5718 2.12111 47.47 2.25155C47.3683 2.38198 47.2793 2.45445 47.2031 2.46894C47.1268 2.48344 47.0441 2.53415 46.9551 2.62111C46.8662 2.70806 46.739 2.72256 46.5737 2.66459C46.4085 2.60662 46.2813 2.63561 46.1923 2.75154C46.1033 2.86749 46.008 2.91821 45.9062 2.90372C45.8554 2.89648 45.8045 2.88923 45.7537 2.88199C45.7473 2.96894 45.741 3.0559 45.7346 3.14285C45.7219 3.31676 45.7029 3.41097 45.6774 3.42546C45.6519 3.43995 45.5439 3.42546 45.3532 3.38198C45.1625 3.3385 44.921 3.37473 44.6285 3.49068C44.3361 3.60662 44.1009 3.66459 43.9229 3.66459C43.7449 3.66459 43.5859 3.6356 43.4461 3.57763C43.3761 3.54864 43.3062 3.51966 43.2363 3.49068C43.2808 3.57038 43.3253 3.6501 43.3698 3.7298C43.4588 3.88923 43.5096 4.01241 43.5224 4.09937C43.5351 4.18632 43.516 4.30227 43.4652 4.4472C43.4143 4.59212 43.3571 4.70082 43.2936 4.77328C43.23 4.84575 43.1091 4.86749 42.9312 4.8385C42.7532 4.80951 42.5879 4.74429 42.4354 4.64285C42.2828 4.54139 42.1302 4.50517 41.9777 4.53415C41.8251 4.56313 41.7043 4.55589 41.6153 4.51241C41.5263 4.46894 41.4564 4.41096 41.4056 4.3385C41.3546 4.26604 41.3102 4.2298 41.2721 4.2298C41.2339 4.2298 41.1639 4.28778 41.0623 4.40372C40.9605 4.51966 40.8652 4.57763 40.7762 4.57763C40.6872 4.57763 40.5918 4.54139 40.4902 4.46894C40.3884 4.39647 40.2931 4.35299 40.2041 4.3385C40.1151 4.324 40.0388 4.38922 39.9753 4.53415C39.9117 4.67908 39.8544 4.77328 39.8036 4.81676C39.7527 4.86024 39.6828 4.87473 39.5938 4.86024C39.5048 4.84575 39.3586 4.77328 39.1551 4.64285C39.0535 4.57763 38.9517 4.51241 38.85 4.4472C38.8564 4.49068 38.8628 4.53415 38.8691 4.57763C38.8818 4.66459 38.9644 4.79502 39.117 4.96893C39.2696 5.14284 39.3522 5.28778 39.3649 5.40371C39.3777 5.51966 39.3649 5.60661 39.3268 5.66458C39.2886 5.72255 39.2314 5.75878 39.1551 5.77328C39.0788 5.78777 38.9772 5.77328 38.85 5.7298C38.7229 5.68632 38.5703 5.58487 38.3923 5.42545C38.2144 5.26604 38.0872 5.17907 38.0109 5.16458C37.9727 5.15733 37.9346 5.15009 37.8965 5.14284C37.9219 5.2443 37.9474 5.34574 37.9727 5.44719C37.9982 5.54864 38.0237 5.65009 38.049 5.75154C38.0173 5.75878 37.9855 5.76603 37.9537 5.77328C37.8902 5.78777 37.7567 5.75154 37.5532 5.66458C37.4515 5.6211 37.3498 5.57762 37.2481 5.53414C37.2418 5.59936 37.2354 5.66458 37.229 5.7298C37.2163 5.86024 37.1146 5.98342 36.9239 6.09937C36.7332 6.21531 36.587 6.25154 36.4852 6.20806C36.3836 6.16458 36.2945 6.19357 36.2182 6.29502C36.142 6.39646 36.0721 6.4327 36.0085 6.40371C35.9449 6.37472 35.8241 6.38197 35.6461 6.42545C35.4681 6.46893 35.3028 6.47618 35.1503 6.44719C34.9977 6.4182 34.9024 6.42545 34.8642 6.46893C34.8261 6.51241 34.8134 6.61385 34.8261 6.77327C34.8388 6.9327 34.8325 7.0269 34.807 7.05588C34.7816 7.08487 34.7117 7.09936 34.5972 7.09936C34.4828 7.09936 34.362 7.05588 34.2349 6.96892C34.1078 6.88197 33.9234 6.86023 33.6818 6.90371C33.4403 6.94719 33.2305 6.94719 33.0525 6.90371C32.8745 6.86023 32.5757 6.83125 32.1562 6.81675C31.7366 6.80226 31.4887 6.84574 31.4124 6.94718C31.3361 7.04864 31.1645 7.07038 30.8975 7.0124C30.6305 6.95443 30.3826 6.99791 30.1537 7.14285C29.9249 7.28772 29.5626 7.3312 29.0667 7.27326C28.5709 7.21532 28.2212 7.24424 28.0178 7.36022C27.8144 7.47619 27.6173 7.64282 27.4266 7.86021C27.2359 8.0776 27.0961 8.18629 27.007 8.18629C26.918 8.18629 26.7718 8.14282 26.5684 8.05586C26.365 7.96891 26.1679 7.92543 25.9772 7.92543C25.7865 7.92543 25.5831 8.0052 25.3669 8.16456C25.1508 8.32401 24.9983 8.47618 24.9092 8.62107C24.8203 8.76606 24.6741 8.81672 24.4706 8.77325C24.2672 8.72977 24.0257 8.72258 23.7459 8.75151C23.4662 8.78052 23.2628 8.92542 23.1356 9.18629C23.0085 9.44715 22.9068 9.59933 22.8305 9.6428C22.7542 9.68628 22.4427 9.75878 21.896 9.86019C21.3494 9.9617 21.0887 10.1139 21.1141 10.3167C21.1396 10.5196 21.1332 10.6428 21.0951 10.6863C21.0569 10.7298 20.8472 10.7732 20.4657 10.8167C20.0843 10.8602 19.83 10.9762 19.7029 11.1645C19.5758 11.353 19.4295 11.4617 19.2643 11.4906C19.099 11.5196 18.9782 11.6356 18.9019 11.8384C18.8257 12.0414 18.6794 12.1646 18.4633 12.2081C18.2472 12.2516 18.0374 12.3168 17.834 12.4037C17.6305 12.4907 17.5161 12.5559 17.4907 12.5994C17.4653 12.6429 17.5098 12.7153 17.6242 12.8168C17.7386 12.9182 17.7895 13.0052 17.7768 13.0776C17.764 13.15 17.6877 13.2081 17.5479 13.2516C17.408 13.295 17.23 13.3095 17.0139 13.295C16.7978 13.2805 16.6007 13.3385 16.4228 13.4689C16.2447 13.5994 16.0858 13.6791 15.946 13.7081C15.8061 13.737 15.6981 13.7878 15.6218 13.8602C15.5455 13.9326 15.4755 13.9689 15.412 13.9689C15.3484 13.9689 15.3039 14.0051 15.2785 14.0776C15.2531 14.15 15.2721 14.2587 15.3357 14.4037C15.3992 14.5486 15.412 14.6646 15.3739 14.7515C15.3357 14.8385 15.1768 14.9255 14.8971 15.0124C14.6173 15.0994 14.344 15.15 14.077 15.1646C13.81 15.179 13.6638 15.2733 13.6383 15.4472C13.613 15.6211 13.5558 15.7733 13.4667 15.9037C13.4223 15.9689 13.3777 16.0341 13.3332 16.0994C13.4032 16.1283 13.4731 16.1573 13.543 16.1863C13.6829 16.2443 13.7592 16.3022 13.7718 16.3602C13.7782 16.3891 13.7846 16.4182 13.7909 16.4472C13.7274 16.4544 13.6638 16.4616 13.6002 16.4689C13.4731 16.4834 13.3904 16.5124 13.3523 16.5559C13.3332 16.5776 13.3141 16.5994 13.2951 16.6211C13.4858 16.7152 13.6765 16.8095 13.8672 16.9037C14.2486 17.0921 14.4838 17.2298 14.5728 17.3167C14.6619 17.4037 14.6936 17.4834 14.6682 17.5559C14.6428 17.6284 14.5728 17.6646 14.4584 17.6646C14.344 17.6646 14.2486 17.6863 14.1723 17.7298C14.096 17.7733 14.0579 17.8458 14.0579 17.9472C14.0579 18.0486 14.077 18.1355 14.1151 18.208C14.1533 18.2805 14.2423 18.3602 14.3821 18.4472C14.522 18.5341 14.7572 18.5849 15.0878 18.5993C15.4183 18.6138 15.6345 18.6718 15.7362 18.7732C15.8379 18.8747 15.8888 18.9834 15.8888 19.0993C15.8888 19.2153 15.8125 19.324 15.6599 19.4254C15.5074 19.5268 15.3992 19.6283 15.3357 19.7298C15.3039 19.7805 15.2721 19.8312 15.2404 19.8819C15.3039 19.8675 15.3675 19.8529 15.4311 19.8385C15.5582 19.8094 15.7616 19.8023 16.0413 19.8167C16.321 19.8312 16.6516 19.9399 17.033 20.1428C17.4144 20.3457 17.7386 20.4616 18.0056 20.4906C18.2726 20.5196 18.5268 20.5776 18.7685 20.6645C19.01 20.7515 19.3279 20.8167 19.722 20.8602C20.1161 20.9037 20.4085 21.0124 20.5992 21.1863C20.7899 21.3602 20.9298 21.4471 21.0188 21.4471C21.1078 21.4471 21.165 21.4254 21.1904 21.3819C21.2159 21.3384 21.235 21.1283 21.2476 20.7515C21.2603 20.3747 21.3175 20.1718 21.4193 20.1428C21.521 20.1138 21.7435 20.1573 22.0868 20.2732C22.43 20.3892 22.6462 20.4471 22.7352 20.4471C22.8241 20.4471 22.9323 20.3747 23.0594 20.2298C23.1866 20.0849 23.2501 19.9762 23.2501 19.9037C23.2501 19.8312 23.1103 19.737 22.8305 19.6211C22.5508 19.5051 22.3983 19.4327 22.3728 19.4037C22.3474 19.3747 22.3411 19.324 22.3537 19.2515C22.3664 19.179 22.519 19.1645 22.8114 19.208C23.1039 19.2515 23.4217 19.3747 23.765 19.5776C24.1082 19.7805 24.496 19.9109 24.9283 19.9689C25.3606 20.0268 25.9073 20.0849 26.5684 20.1428C27.2295 20.2007 27.7318 20.179 28.075 20.0776C28.4183 19.9762 28.7425 19.9327 29.0476 19.9472C29.3528 19.9616 29.5307 19.9472 29.5816 19.9037C29.607 19.8819 29.6325 19.8602 29.6579 19.8385C29.6388 19.8094 29.6198 19.7805 29.6007 19.7515C29.5626 19.6936 29.3146 19.6283 28.8569 19.5559C28.3992 19.4834 28.1195 19.4254 28.0178 19.3819C27.9161 19.3385 27.8589 19.2877 27.8462 19.2298C27.8334 19.1718 27.8462 19.1283 27.8843 19.0993C27.9225 19.0703 28.0941 19.0486 28.3992 19.0341C28.5518 19.0268 28.7044 19.0197 28.8569 19.0124C28.8506 18.9327 28.8442 18.8529 28.8379 18.7732C28.8251 18.6138 28.8632 18.5051 28.9523 18.4472C29.0413 18.3892 29.1112 18.3095 29.1621 18.208C29.1874 18.1573 29.2129 18.1066 29.2384 18.0559C29.1302 18.0051 29.0222 17.9544 28.9142 17.9037C28.698 17.8023 28.5963 17.7225 28.609 17.6646C28.6217 17.6066 28.8632 17.5776 29.3337 17.5776C29.8041 17.5776 30.0584 17.5631 30.0965 17.5341C30.1347 17.5051 30.1537 17.4689 30.1537 17.4254C30.1537 17.382 30.1347 17.3458 30.0965 17.3167C30.0584 17.2877 29.8994 17.2371 29.6198 17.1646C29.4799 17.1284 29.34 17.0921 29.2002 17.0559C29.2701 16.9979 29.34 16.9399 29.41 16.882C29.5498 16.766 29.7533 16.6718 30.0203 16.5994C30.2872 16.5269 30.4843 16.4544 30.6114 16.382C30.7386 16.3095 30.7958 16.2515 30.7831 16.2081C30.7703 16.1646 30.6687 16.1138 30.478 16.0559C30.2872 15.9978 30.1601 15.8312 30.0965 15.5559C30.0329 15.2805 30.0775 15.0994 30.23 15.0124C30.3826 14.9255 30.6114 14.882 30.9166 14.882C31.0691 14.882 31.2217 14.882 31.3743 14.882C31.3488 14.8385 31.3235 14.795 31.298 14.7515C31.2471 14.6646 31.0628 14.5631 30.7449 14.4472C30.427 14.3312 30.2046 14.2298 30.0775 14.1429C29.9503 14.0559 29.8804 13.9907 29.8677 13.9472C29.8613 13.9255 29.8549 13.9037 29.8486 13.882C29.874 13.8747 29.8994 13.8674 29.9249 13.8602C29.9757 13.8457 30.1283 13.882 30.3826 13.9689C30.6368 14.0559 30.8085 14.0994 30.8975 14.0994C30.9865 14.0994 31.0501 14.0342 31.0882 13.9037C31.1264 13.7733 31.2026 13.7008 31.3171 13.6863C31.4315 13.6718 31.5523 13.6791 31.6794 13.7081C31.8065 13.737 31.8765 13.795 31.8892 13.882C31.9019 13.9689 31.9273 14.0124 31.9655 14.0124C32.0036 14.0124 32.0354 13.9979 32.0608 13.9689C32.0863 13.9399 32.099 13.853 32.099 13.7081C32.099 13.5631 32.0672 13.4472 32.0036 13.3603C31.9719 13.3168 31.94 13.2733 31.9083 13.2298C32.01 13.2008 32.1116 13.1718 32.2134 13.1429C32.3151 13.1138 32.4168 13.0848 32.5185 13.0559C32.5058 13.0269 32.4931 12.9979 32.4804 12.969C32.4549 12.9109 32.3914 12.8603 32.2897 12.8168C32.1879 12.7733 32.118 12.7153 32.0799 12.6429C32.0608 12.6066 32.0418 12.5704 32.0227 12.5342C32.0926 12.4979 32.1626 12.4617 32.2325 12.4255C32.3723 12.353 32.6139 12.324 32.9571 12.3385C33.1288 12.3457 33.3004 12.353 33.4721 12.3603C33.4657 12.324 33.4594 12.2878 33.453 12.2516C33.4403 12.1791 33.3131 11.9689 33.0716 11.621C32.83 11.2732 32.7028 11.0631 32.6902 10.9906C32.6775 10.9182 32.8491 10.8095 33.2051 10.6645C33.561 10.5196 33.7772 10.4471 33.8535 10.4471C33.9298 10.4471 34.0442 10.4906 34.1967 10.5776C34.3493 10.6645 34.4828 10.708 34.5972 10.708C34.7117 10.708 34.8261 10.6645 34.9405 10.5776C35.0549 10.4906 35.1884 10.4471 35.341 10.4471C35.4935 10.4471 35.6017 10.4834 35.6652 10.5558C35.7288 10.6283 35.7542 10.7515 35.7415 10.9254C35.7288 11.0993 35.894 11.2878 36.2373 11.4906C36.5806 11.6935 36.7777 11.824 36.8285 11.8819C36.8794 11.9399 36.8985 11.9906 36.8857 12.0341C36.873 12.0776 36.8031 12.0993 36.6759 12.0993C36.5488 12.0993 36.3899 12.0631 36.1992 11.9906C36.0085 11.9182 35.7796 11.8602 35.5126 11.8167C35.2456 11.7732 35.0104 11.708 34.807 11.621C34.6036 11.5341 34.4701 11.4906 34.4065 11.4906C34.3429 11.4906 34.3048 11.5269 34.2921 11.5993C34.2794 11.6718 34.3684 11.7732 34.5591 11.9037C34.7498 12.0341 35.074 12.1646 35.5317 12.295C35.9894 12.4255 36.2246 12.5704 36.2373 12.7298C36.2501 12.8892 36.2945 13.0052 36.3708 13.0776C36.4471 13.15 36.4916 13.2225 36.5043 13.295C36.5171 13.3674 36.5107 13.4182 36.4852 13.4472C36.4599 13.4761 36.3454 13.4907 36.142 13.4907C36.0403 13.4907 35.9386 13.4907 35.8368 13.4907C35.8368 13.5124 35.8368 13.5342 35.8368 13.5559C35.8368 13.5994 35.8877 13.6573 35.9894 13.7298C36.0403 13.766 36.0911 13.8022 36.142 13.8385C36.0403 13.824 35.9386 13.8095 35.8368 13.795C35.6334 13.766 35.5126 13.7587 35.4745 13.7733C35.4363 13.7878 35.4173 13.8312 35.4173 13.9037C35.4173 13.9761 35.4745 14.0486 35.5889 14.1211C35.7033 14.1935 35.8814 14.2443 36.1229 14.2733C36.2437 14.2878 36.3645 14.3022 36.4852 14.3168C36.4599 14.3457 36.4344 14.3747 36.4089 14.4037C36.3581 14.4617 36.3327 14.5196 36.3327 14.5776C36.3327 14.6356 36.3772 14.6935 36.4662 14.7515C36.5107 14.7805 36.5552 14.8095 36.5997 14.8385C36.5488 14.8602 36.498 14.882 36.4471 14.9037C36.3454 14.9472 36.3009 14.9979 36.3136 15.0559C36.3264 15.1138 36.5298 15.1283 36.9239 15.0994C37.318 15.0704 37.5278 15.0848 37.5532 15.1428C37.566 15.1718 37.5786 15.2008 37.5913 15.2298C37.515 15.2733 37.4388 15.3168 37.3625 15.3602C37.2099 15.4472 36.8985 15.4907 36.428 15.4907C35.9576 15.4907 35.6906 15.5124 35.627 15.5559C35.5953 15.5776 35.5635 15.5994 35.5317 15.6211C35.5762 15.6428 35.6207 15.6646 35.6652 15.6863C35.7542 15.7298 35.9322 15.766 36.1992 15.795C36.4662 15.8239 36.6569 15.9037 36.7713 16.0341C36.8857 16.1646 37.1527 16.2298 37.5723 16.2298C37.782 16.2298 37.9918 16.2298 38.2016 16.2298C38.1698 16.2805 38.1381 16.3312 38.1062 16.382C38.0745 16.4326 38.0427 16.4834 38.0109 16.5341C38.0427 16.5413 38.0745 16.5486 38.1062 16.5559C38.1698 16.5703 38.2144 16.6065 38.2397 16.6646C38.2525 16.6935 38.2652 16.7225 38.2779 16.7515C38.2207 16.7805 38.1635 16.8095 38.1062 16.8385C37.9918 16.8964 37.6676 16.9545 37.1336 17.0124C36.5997 17.0703 36.3264 17.1211 36.3136 17.1646C36.3009 17.208 36.3645 17.266 36.5043 17.3385C36.6442 17.411 36.7141 17.4616 36.7141 17.4907C36.7141 17.5197 36.6442 17.5631 36.5043 17.6211C36.3645 17.679 36.2882 17.7588 36.2755 17.8602C36.2628 17.9616 36.2373 18.0341 36.1992 18.0776C36.161 18.1211 36.053 18.1936 35.875 18.295C35.697 18.3964 35.5826 18.5341 35.5317 18.708C35.4809 18.8819 35.4554 19.0993 35.4554 19.3602C35.4554 19.6211 35.4809 19.8457 35.5317 20.0341C35.5826 20.2225 35.608 20.3892 35.608 20.5341C35.608 20.679 35.5762 20.8529 35.5126 21.0558C35.449 21.2588 35.3155 21.5486 35.1121 21.9254C34.9087 22.3022 34.807 22.5196 34.807 22.5776C34.807 22.6356 34.8642 22.6718 34.9786 22.6863C35.0931 22.7008 35.1567 22.7443 35.1693 22.8167C35.182 22.8892 35.1567 22.9689 35.0931 23.0558C35.0295 23.1428 34.9087 23.2515 34.7307 23.3819C34.5527 23.5123 34.4192 23.7587 34.3302 24.121C34.2413 24.4834 34.1014 24.8384 33.9107 25.1862C33.72 25.5341 33.5038 25.8384 33.2623 26.0993C33.0207 26.3602 32.8618 26.5051 32.7855 26.5341C32.7092 26.5631 32.6329 26.65 32.5567 26.795C32.4804 26.9399 32.4232 27.0124 32.385 27.0124C32.3469 27.0124 32.3151 26.9472 32.2897 26.8167C32.2642 26.6863 32.2007 26.5994 32.099 26.5559C31.9972 26.5124 31.9464 26.4399 31.9464 26.3385C31.9464 26.237 31.9972 26.034 32.099 25.7297C32.2007 25.4254 32.2515 25.2297 32.2515 25.1428C32.2515 25.0993 32.2515 25.0558 32.2515 25.0123C32.2325 25.0123 32.2134 25.0123 32.1943 25.0123C32.1562 25.0123 32.0418 25.1138 31.851 25.3167C31.6603 25.5196 31.476 25.7587 31.298 26.0341C31.12 26.3095 30.9929 26.5413 30.9166 26.7298C30.8403 26.9182 30.7958 27.1935 30.7831 27.5559C30.7703 27.9182 30.8212 28.2225 30.9357 28.4689C31.0501 28.7152 31.0945 28.9978 31.0691 29.3167C31.0437 29.6355 31.0754 29.8312 31.1645 29.9037C31.2535 29.9761 31.298 30.0486 31.298 30.1211C31.298 30.1935 31.2599 30.266 31.1836 30.3385C31.1073 30.4109 31.0246 30.4254 30.9357 30.3819C30.8466 30.3385 30.7703 30.0558 30.7068 29.5341C30.6432 29.0124 30.5924 28.7298 30.5542 28.6863C30.5161 28.6428 30.4398 28.6283 30.3254 28.6428C30.211 28.6573 30.1092 28.563 30.0203 28.3602C29.9312 28.1573 29.8486 28.0341 29.7723 27.9907C29.6961 27.9472 29.6325 27.9472 29.5816 27.9907C29.5307 28.0341 29.5116 28.1935 29.5244 28.4689C29.5371 28.7442 29.5244 29.0196 29.4863 29.295C29.4481 29.5703 29.41 29.7442 29.3719 29.8167C29.3337 29.8891 29.2828 29.9254 29.2193 29.9254C29.1557 29.9254 29.0985 29.9761 29.0476 30.0776C29.0222 30.1283 28.9967 30.179 28.9714 30.2298C28.9459 30.208 28.9205 30.1863 28.8951 30.1645C28.8442 30.1211 28.8124 29.9399 28.7997 29.6211C28.787 29.3022 28.7616 29.0921 28.7234 28.9906C28.6853 28.8891 28.6408 28.8167 28.59 28.7733C28.539 28.7298 28.4818 28.7225 28.4183 28.7515C28.3547 28.7804 28.2657 28.9834 28.1513 29.3602C28.0369 29.7369 28.0051 30.0776 28.056 30.3819C28.1068 30.6863 28.1323 30.9326 28.1323 31.1211C28.1323 31.3094 28.1195 31.4181 28.0941 31.4471C28.0687 31.4762 28.0305 31.4833 27.9797 31.4689C27.9288 31.4544 27.878 31.3602 27.8271 31.1863C27.7762 31.0124 27.6872 30.8602 27.5601 30.7298C27.4329 30.5993 27.3757 30.3964 27.3885 30.1211C27.4012 29.8456 27.3821 29.6645 27.3313 29.5776C27.2804 29.4906 27.2677 29.4109 27.2931 29.3385C27.3185 29.266 27.3249 29.1863 27.3122 29.0993C27.3058 29.0559 27.2994 29.0124 27.2931 28.9689C27.2422 28.9906 27.1914 29.0124 27.1405 29.0341C27.0388 29.0776 26.9498 29.2298 26.8735 29.4906C26.7972 29.7515 26.7337 29.9037 26.6828 29.9472C26.632 29.9906 26.5684 30.0124 26.4921 30.0124C26.4158 30.0124 26.3142 29.9399 26.187 29.795C26.0598 29.65 25.9772 29.4689 25.939 29.2515C25.92 29.1428 25.9009 29.0341 25.8818 28.9254C25.8565 28.9326 25.831 28.9399 25.8055 28.9472C25.7547 28.9616 25.6911 29.0921 25.6148 29.3385C25.5386 29.5848 25.475 29.7225 25.4241 29.7515C25.3988 29.766 25.3733 29.7804 25.3478 29.795C25.3415 29.7369 25.3352 29.679 25.3288 29.6211C25.3161 29.5051 25.3288 29.3674 25.3669 29.208C25.4051 29.0486 25.4114 28.9109 25.386 28.795C25.3733 28.737 25.3606 28.679 25.3478 28.6211C25.3225 28.6355 25.297 28.65 25.2716 28.6646C25.2207 28.6935 25.1635 28.795 25.0999 28.9689C25.0364 29.1428 24.9983 29.3964 24.9855 29.7298C24.9728 30.063 24.8711 30.3239 24.6804 30.5124C24.4897 30.7007 24.3689 30.9254 24.318 31.1863C24.2927 31.3167 24.2672 31.4471 24.2417 31.5776C24.2164 31.5558 24.1909 31.5341 24.1655 31.5124C24.1146 31.4689 24.0574 31.2732 23.9938 30.9254C23.9303 30.5776 23.7904 30.3819 23.5743 30.3385C23.3582 30.295 23.2056 30.3456 23.1166 30.4906C23.0276 30.6355 22.9576 30.708 22.9068 30.708C22.856 30.708 22.8178 30.6717 22.7924 30.5993C22.7669 30.5268 22.7606 30.4399 22.7733 30.3385C22.786 30.2369 22.7797 30.1717 22.7542 30.1428C22.7288 30.1138 22.6144 30.1283 22.411 30.1863C22.2076 30.2442 21.9087 30.3819 21.5146 30.5993C21.1205 30.8167 20.8853 30.9254 20.809 30.9254C20.7709 30.9254 20.7327 30.9254 20.6946 30.9254C20.7391 30.8385 20.7836 30.7515 20.8281 30.6645C20.9171 30.4906 20.9616 30.3602 20.9616 30.2732C20.9616 30.2298 20.9616 30.1863 20.9616 30.1428C20.9234 30.1428 20.8853 30.1428 20.8472 30.1428C20.7709 30.1428 20.6691 30.1863 20.542 30.2732C20.4149 30.3602 20.3005 30.4689 20.1988 30.5993C20.097 30.7298 19.9635 30.7877 19.7983 30.7732C19.633 30.7587 19.4423 30.8022 19.2261 30.9037C19.01 31.0051 18.7557 31.0558 18.4633 31.0558C18.1709 31.0558 17.9866 31.0413 17.9103 31.0124C17.834 30.9833 17.7577 30.9254 17.6814 30.8384C17.6051 30.7515 17.5352 30.708 17.4716 30.708C17.408 30.708 17.2682 30.7804 17.0521 30.9254C16.944 30.9978 16.8359 31.0703 16.7279 31.1428C16.7151 30.9761 16.7024 30.8094 16.6897 30.6428C16.6643 30.3094 16.6261 30.1138 16.5753 30.0558C16.5244 29.9978 16.4481 29.9543 16.3465 29.9254C16.2447 29.8964 16.1939 29.8602 16.1939 29.8167C16.1939 29.7732 16.2893 29.6646 16.48 29.4906C16.6707 29.3167 16.8105 29.1573 16.8995 29.0124C16.944 28.9399 16.9885 28.8674 17.033 28.795C17.0076 28.7877 16.9821 28.7804 16.9567 28.7733C16.9058 28.7587 16.7787 28.8385 16.5753 29.0124C16.3718 29.1863 16.2193 29.2877 16.1176 29.3167C16.0667 29.3312 16.0159 29.3456 15.9651 29.3602C15.9651 29.3456 15.9651 29.3312 15.9651 29.3167C15.9651 29.2877 16.0032 29.2515 16.0795 29.208C16.1558 29.1646 16.1939 29.1211 16.1939 29.0776C16.1939 29.0341 16.1558 28.9906 16.0795 28.9472C16.0032 28.9037 15.8633 28.8674 15.6599 28.8385C15.4564 28.8095 15.342 28.7442 15.3167 28.6428C15.2912 28.5413 15.342 28.4182 15.4692 28.2733C15.5963 28.1283 15.768 28.0413 15.9841 28.0124C16.2002 27.9834 16.3274 27.9109 16.3655 27.795C16.4037 27.679 16.6261 27.5776 17.033 27.4907C17.4398 27.4037 17.6623 27.3385 17.7005 27.295C17.7386 27.2515 17.7513 27.2008 17.7386 27.1428C17.7259 27.0848 17.567 27.0051 17.2619 26.9037C16.9567 26.8022 16.41 26.7298 15.6218 26.6863C14.8335 26.6428 14.363 26.5994 14.2105 26.5559C14.0579 26.5124 13.9689 26.4472 13.9435 26.3602C13.9181 26.2732 13.9753 26.1718 14.1151 26.0558C14.255 25.9399 14.344 25.8819 14.3821 25.8819C14.4202 25.8819 14.4838 25.9471 14.5728 26.0775C14.6619 26.208 14.808 26.2514 15.0115 26.208C15.2149 26.1645 15.4247 26.0631 15.6409 25.9036C15.8569 25.7443 15.9651 25.65 15.9651 25.621C15.9651 25.5921 15.9141 25.5558 15.8125 25.5123C15.7108 25.4688 15.5709 25.4326 15.3929 25.4036C15.2149 25.3747 14.8271 25.3601 14.2295 25.3601C13.632 25.3601 13.1108 25.3892 12.6657 25.4471C12.2208 25.5051 11.9474 25.5051 11.8457 25.4471C11.744 25.3892 11.655 25.3601 11.5787 25.3601C11.5024 25.3601 11.4325 25.3964 11.3689 25.4688C11.3054 25.5413 11.2291 25.5775 11.1401 25.5775C11.0511 25.5775 10.9558 25.5269 10.854 25.4254C10.7524 25.3239 10.7142 25.2443 10.7396 25.1862C10.7651 25.1283 10.9875 25.0486 11.4071 24.9471C11.8266 24.8457 12.1191 24.7587 12.2843 24.6862C12.4497 24.6138 12.5577 24.4979 12.6085 24.3384C12.6594 24.1791 12.7103 24.0848 12.7611 24.0558C12.812 24.0269 12.9264 24.0051 13.1044 23.9906C13.2824 23.9761 13.4286 23.9834 13.543 24.0123C13.6002 24.0269 13.6574 24.0413 13.7146 24.0558C13.7083 24.0848 13.7019 24.1138 13.6956 24.1428C13.6829 24.2008 13.5748 24.2878 13.3714 24.4036C13.168 24.5196 13.0726 24.6138 13.0853 24.6862C13.0981 24.7587 13.2569 24.7949 13.5621 24.7949C13.8672 24.7949 14.096 24.7587 14.2486 24.6862C14.4012 24.6138 14.5156 24.5269 14.5919 24.4254C14.6682 24.324 14.7318 24.2008 14.7827 24.0558C14.8335 23.9109 15.0178 23.766 15.3357 23.621C15.6535 23.4761 15.8125 23.3819 15.8125 23.3384C15.8125 23.2949 15.7934 23.2587 15.7553 23.2297C15.7171 23.2008 15.6281 23.1863 15.4883 23.1863C15.3484 23.1863 14.967 23.2515 14.344 23.3819C13.721 23.5123 13.3651 23.5704 13.276 23.5558C13.187 23.5414 13.0472 23.4761 12.8564 23.3602C12.6657 23.2443 12.4242 23.1791 12.1318 23.1645C11.8394 23.1501 11.6296 23.0921 11.5024 22.9906C11.3753 22.8892 11.2609 22.6935 11.1592 22.4037C11.0575 22.1139 11.0066 21.824 11.0066 21.5341C11.0066 21.2442 11.28 20.5051 11.8266 19.3167C12.3734 18.1284 12.6467 17.5051 12.6467 17.4472C12.6467 17.4182 12.6467 17.3892 12.6467 17.3602C12.6276 17.3602 12.6085 17.3602 12.5895 17.3602C12.5513 17.3602 12.4687 17.411 12.3415 17.5124C12.2144 17.6138 12.0301 17.8095 11.7885 18.0993C11.547 18.3892 11.2609 18.8023 10.9303 19.3385C10.5998 19.8747 10.4027 20.1718 10.3391 20.2298C10.2755 20.2877 10.0022 20.737 9.51907 21.5776C9.03592 22.4182 8.61636 23.1138 8.2604 23.6645C7.90444 24.2153 7.65014 24.6356 7.49757 24.9254C7.34501 25.2153 7.23697 25.5269 7.17337 25.8601C7.10978 26.1935 6.98266 26.5559 6.79196 26.9472C6.60125 27.3385 6.42961 27.6138 6.27705 27.7733C6.12448 27.9326 5.87019 28.1065 5.5142 28.295C5.15821 28.4834 4.8785 28.6065 4.67508 28.6646C4.57337 28.6935 4.47166 28.7225 4.36995 28.7515C4.40809 28.8312 4.44623 28.9109 4.48438 28.9906C4.56066 29.15 4.6433 29.2587 4.7323 29.3167C4.7768 29.3456 4.82129 29.3747 4.86579 29.4037C4.75137 29.5196 4.63694 29.6355 4.52252 29.7515C4.29367 29.9834 4.02032 30.1935 3.70247 30.3819C3.38462 30.5703 3.13035 30.8022 2.93964 31.0776C2.74892 31.3529 2.45015 31.6501 2.04331 31.9689C1.63646 32.2877 1.42668 32.5196 1.41396 32.6645C1.40125 32.8094 1.29954 32.9036 1.10883 32.9471C0.918126 32.9906 0.77192 33.0848 0.670207 33.2297C0.568494 33.3746 0.523993 33.6645 0.536712 34.0993C0.549423 34.5341 0.511281 34.8022 0.422287 34.9036C0.333285 35.005 0.295144 35.1283 0.307855 35.2732C0.320574 35.4181 0.295144 35.5341 0.231572 35.621C0.168009 35.708 0.136219 35.7949 0.136219 35.8819C0.136219 35.9688 0.19979 36.0704 0.326926 36.1862C0.454069 36.3022 0.517641 36.3819 0.517641 36.4254C0.517641 36.4688 0.46678 36.5921 0.365075 36.7949C0.263362 36.9978 0.17436 37.2443 0.0980771 37.534C0.0217942 37.8239 -0.00998753 38.0848 0.00272352 38.3166C0.0154429 38.5486 0.0599357 38.737 0.136219 38.8819C0.212501 39.0268 0.333285 39.1065 0.498571 39.121C0.663847 39.1355 0.803702 39.1138 0.918126 39.0558C1.03255 38.9978 1.15969 38.9616 1.29954 38.9471C1.4394 38.9326 1.57289 38.8384 1.70003 38.6645C1.82717 38.4906 1.97973 38.3239 2.15773 38.1645C2.33573 38.0051 2.79978 37.6862 3.5499 37.208C4.30002 36.7297 4.70686 36.4834 4.77044 36.4688C4.83401 36.4544 4.89122 36.4979 4.94207 36.5993C4.99293 36.7008 5.0565 36.7514 5.13278 36.7514C5.20906 36.7514 5.36799 36.6718 5.60956 36.5123C5.85112 36.353 6.06088 36.266 6.23891 36.2514C6.41693 36.237 6.52497 36.2443 6.56311 36.2732C6.60125 36.3022 6.62032 36.353 6.62032 36.4254C6.62032 36.4979 6.59487 36.5703 6.54404 36.6427C6.49321 36.7152 6.21984 36.9471 5.72398 37.3384C5.22813 37.7297 4.89757 38.0486 4.7323 38.2949C4.56702 38.5413 4.48438 38.7442 4.48438 38.9036C4.48438 39.063 4.54159 39.2008 4.65601 39.3166C4.77044 39.4326 4.89122 39.4905 5.01836 39.4905C5.1455 39.4905 5.26627 39.4616 5.38071 39.4036C5.49513 39.3456 5.58413 39.3166 5.6477 39.3166C5.71126 39.3166 5.76848 39.3384 5.81933 39.3819C5.87019 39.4253 5.88925 39.4834 5.87655 39.5558C5.86383 39.6283 5.81933 39.7079 5.74305 39.7949C5.66677 39.8818 5.48241 40.0486 5.18999 40.2949C4.89757 40.5413 4.75137 40.7225 4.75137 40.8385C4.75137 40.9543 4.79587 41.0776 4.88486 41.208C4.92936 41.2732 4.97386 41.3385 5.01836 41.4037C4.99293 41.4254 4.9675 41.4471 4.94207 41.4689C4.89122 41.5124 4.77044 41.5413 4.57973 41.5558C4.38902 41.5703 4.22374 41.6355 4.08388 41.7515C3.94404 41.8674 3.7724 41.9543 3.56897 42.0124C3.46726 42.0413 3.36555 42.0703 3.26384 42.0993C3.27655 42.1282 3.28927 42.1572 3.30198 42.1863C3.32741 42.2442 3.60711 42.2659 4.1411 42.2515C4.67508 42.2369 4.98021 42.2515 5.0565 42.295C5.13278 42.3384 5.17092 42.3964 5.17092 42.4689C5.17092 42.5413 5.13914 42.6065 5.07557 42.6645C5.012 42.7225 4.98021 42.7877 4.98021 42.8602C4.98021 42.9326 5.00564 43.0195 5.0565 43.121C5.10736 43.2225 5.12643 43.3021 5.11371 43.3602C5.101 43.4181 5.05015 43.4978 4.96114 43.5993C4.87215 43.7007 4.72593 43.8167 4.52252 43.9471C4.31909 44.0776 4.10296 44.179 3.8741 44.2515C3.64526 44.3239 3.55626 44.4833 3.60711 44.7297C3.65797 44.976 3.62618 45.121 3.51176 45.1645C3.39734 45.208 3.34012 45.3022 3.34012 45.4471C3.34012 45.592 3.30834 45.7007 3.24477 45.7732C3.1812 45.8457 3.23205 46.0993 3.39734 46.5341C3.56261 46.9688 3.71519 47.2224 3.85503 47.2949C3.99489 47.3674 4.06481 47.4616 4.06481 47.5775C4.06481 47.6935 4.10931 47.7805 4.19831 47.8384C4.28731 47.8963 4.36359 48.034 4.42716 48.2514C4.49073 48.4688 4.59244 48.621 4.7323 48.7079C4.87215 48.7949 5.34892 48.8963 6.16262 49.0123C6.97628 49.1283 7.56747 49.2587 7.9362 49.4036C8.30493 49.5485 8.55915 49.6065 8.69903 49.5775C8.83891 49.5485 8.93426 49.563 8.98509 49.621C9.03592 49.6789 9.16311 49.7514 9.3665 49.8384C9.5699 49.9253 9.74792 49.9688 9.90048 49.9688C10.053 49.9688 10.1611 49.9471 10.2247 49.9036C10.2883 49.8601 10.3137 49.7804 10.301 49.6645C10.2883 49.5485 10.2247 49.4326 10.1103 49.3166C10.053 49.2587 9.99584 49.2007 9.93863 49.1427C9.99584 49.1427 10.053 49.1427 10.1103 49.1427C10.2247 49.1427 10.32 49.1717 10.3963 49.2297C10.4726 49.2876 10.5298 49.3746 10.568 49.4906C10.6061 49.6065 10.6189 49.7152 10.6061 49.8166C10.5998 49.8674 10.5934 49.9181 10.587 49.9688C10.6824 49.9615 10.7777 49.9543 10.8731 49.9471C11.0638 49.9326 11.2673 49.9615 11.4834 50.034C11.6995 50.1065 11.8712 50.1355 11.9983 50.121C12.1255 50.1065 12.208 50.0848 12.2462 50.0558C12.2843 50.0268 12.3098 49.9326 12.3225 49.7732C12.3352 49.6137 12.3606 49.534 12.3987 49.534C12.4369 49.534 12.4687 49.5558 12.4941 49.5992C12.5196 49.6427 12.5196 49.7297 12.4941 49.8601C12.4814 49.9253 12.4687 49.9905 12.456 50.0558C12.6022 50.063 12.7484 50.0703 12.8946 50.0775C13.187 50.0921 13.3651 50.0848 13.4286 50.0558C13.4922 50.0268 13.5558 49.9109 13.6193 49.7079C13.6511 49.6065 13.6829 49.505 13.7146 49.4036C13.7973 49.4978 13.88 49.592 13.9625 49.6862C14.0452 49.7804 14.1279 49.8746 14.2105 49.9688C14.2169 49.9181 14.2232 49.8674 14.2295 49.8166C14.2423 49.7152 14.2295 49.5992 14.1914 49.4688C14.1533 49.3384 14.1151 49.2587 14.077 49.2297C14.0388 49.2007 14.0007 49.1283 13.9625 49.0123C13.9244 48.8963 13.8228 48.7441 13.6574 48.5558C13.4922 48.3674 13.2888 48.2007 13.0472 48.0558C12.8056 47.9109 12.4242 47.7876 11.9029 47.6862C11.3817 47.5848 11.0511 47.4761 10.9112 47.3601C10.7714 47.2442 10.7015 47.1283 10.7015 47.0123C10.7015 46.8963 10.7777 46.7297 10.9303 46.5123C11.0829 46.2949 11.1973 46.0993 11.2736 45.9254C11.3499 45.7515 11.4516 45.4254 11.5787 44.9471C11.7059 44.4689 11.8585 44.0341 12.0364 43.6428C12.2144 43.2515 12.367 43.0051 12.4941 42.9037C12.6213 42.8021 12.7802 42.7587 12.9709 42.7732C13.1616 42.7877 13.3777 42.6572 13.6193 42.3819C13.8609 42.1065 14.0579 41.9543 14.2105 41.9254C14.363 41.8964 14.4775 41.8167 14.5537 41.6863C14.63 41.5558 14.7 41.295 14.7636 40.9037C14.8271 40.5123 14.9225 40.2442 15.0497 40.0992C15.1768 39.9543 15.3103 39.8818 15.4501 39.8818C15.5899 39.8818 15.7171 39.9543 15.8316 40.0992C15.946 40.2442 16.0159 40.3674 16.0413 40.4688C16.0667 40.5703 16.1112 40.6211 16.1748 40.6211C16.2383 40.6211 16.3019 40.563 16.3655 40.4471C16.4291 40.3312 16.499 40.0558 16.5753 39.621C16.6516 39.1862 16.7342 38.8747 16.8232 38.6862C16.9122 38.4978 17.0202 38.3601 17.1474 38.2732C17.2746 38.1862 17.4271 38.121 17.6051 38.0775C17.7831 38.034 17.8912 37.9761 17.9293 37.9036C17.9675 37.8312 17.9992 37.6645 18.0247 37.4036C18.0501 37.1427 18.0819 36.9761 18.12 36.9036C18.1582 36.8312 18.2154 36.7732 18.2917 36.7297C18.368 36.6862 18.4315 36.679 18.4824 36.708C18.5078 36.7225 18.5332 36.737 18.5587 36.7514C18.584 36.6935 18.6095 36.6356 18.635 36.5775C18.6858 36.4617 18.7557 36.3819 18.8447 36.3384C18.9337 36.2949 19.01 36.3095 19.0736 36.3819C19.1372 36.4544 19.1944 36.5921 19.2452 36.7949C19.2707 36.8964 19.296 36.9978 19.3215 37.0993C19.3533 37.0775 19.3851 37.0558 19.4169 37.034C19.4805 36.9906 19.5313 36.9036 19.5694 36.7732C19.6076 36.6427 19.6584 36.5486 19.722 36.4906C19.7856 36.4326 19.8555 36.4254 19.9318 36.4688C20.008 36.5123 20.1098 36.5123 20.2369 36.4688C20.364 36.4254 20.4594 36.4109 20.523 36.4254C20.5866 36.4399 20.7137 36.5703 20.9044 36.8167C21.0951 37.0631 21.2858 37.2008 21.4765 37.2297C21.6672 37.2587 21.7943 37.2949 21.8579 37.3384C21.9215 37.3819 21.9787 37.5703 22.0295 37.9036C22.0804 38.237 22.2012 38.4036 22.3919 38.4036C22.4872 38.4036 22.5826 38.4036 22.6779 38.4036C22.6589 38.4471 22.6398 38.4906 22.6207 38.534C22.5826 38.621 22.5635 38.7152 22.5635 38.8166C22.5635 38.9182 22.6017 39.0558 22.6779 39.2297C22.7161 39.3166 22.7542 39.4036 22.7924 39.4905C22.697 39.5268 22.6017 39.563 22.5063 39.5992C22.3156 39.6717 22.1885 39.7514 22.1249 39.8384C22.0613 39.9253 22.0422 40.0268 22.0677 40.1427C22.0931 40.2587 22.1757 40.3239 22.3156 40.3384C22.3855 40.3456 22.4555 40.3529 22.5254 40.3601C22.519 40.3964 22.5127 40.4326 22.5063 40.4688C22.4936 40.5413 22.3983 40.795 22.2202 41.2298C22.0422 41.6645 21.8643 42.0051 21.6863 42.2515C21.5082 42.4978 21.3875 42.7732 21.3239 43.0776C21.2603 43.3819 21.1904 43.5993 21.1141 43.7297C21.0379 43.8602 20.9997 43.9978 20.9997 44.1428C20.9997 44.2877 21.0379 44.4398 21.1141 44.5993C21.1904 44.7586 21.2159 44.9543 21.1904 45.1862C21.165 45.4181 21.184 45.6428 21.2476 45.8601C21.3112 46.0775 21.343 46.3022 21.343 46.5341C21.343 46.7659 21.3748 46.9471 21.4384 47.0775C21.5019 47.208 21.7562 47.4109 22.2012 47.6862C22.6462 47.9615 23.0912 48.208 23.5361 48.4253C23.9811 48.6427 24.3816 48.7876 24.7376 48.8601C25.0936 48.9326 25.4877 48.9688 25.92 48.9688C26.3523 48.9688 26.7083 49.0485 26.9879 49.2079C27.2677 49.3674 27.5283 49.4543 27.7699 49.4688C28.0114 49.4833 28.2276 49.5485 28.4183 49.6645C28.609 49.7804 28.7933 49.8311 28.9714 49.8166C29.1493 49.8022 29.2447 49.7369 29.2574 49.621C29.2701 49.505 29.2447 49.3601 29.1811 49.1862C29.1493 49.0992 29.1175 49.0123 29.0858 48.9253C29.1493 48.9615 29.2129 48.9978 29.2765 49.034C29.4036 49.1065 29.4672 49.2441 29.4672 49.4471C29.4672 49.65 29.4799 49.7587 29.5053 49.7732C29.5307 49.7876 29.6261 49.7876 29.7914 49.7732C29.9567 49.7587 30.1855 49.7949 30.478 49.8818C30.7703 49.9688 30.9674 50.0123 31.0691 50.0123C31.1708 50.0123 31.2408 49.9326 31.2789 49.7732C31.298 49.6935 31.3171 49.6137 31.3361 49.534C31.3552 49.6065 31.3743 49.6789 31.3933 49.7514C31.4315 49.8963 31.5714 49.9688 31.8129 49.9688C32.0544 49.9688 32.2325 49.9471 32.3469 49.9036C32.4613 49.8601 32.544 49.7297 32.5948 49.5123C32.6203 49.4036 32.6456 49.2949 32.6711 49.1862C32.7601 49.2804 32.8491 49.3746 32.9381 49.4688C33.027 49.563 33.1161 49.6572 33.2051 49.7514C33.1924 49.65 33.1796 49.5485 33.1669 49.4471C33.1415 49.2441 33.097 49.0702 33.0334 48.9253C32.9698 48.7804 32.8872 48.65 32.7855 48.534C32.6838 48.4181 32.4804 48.2442 32.1752 48.0123C31.8701 47.7805 31.3933 47.6065 30.7449 47.4906C30.0965 47.3746 29.6833 47.2514 29.5053 47.121C29.3273 46.9906 29.143 46.9036 28.9523 46.8601C28.7616 46.8167 28.6472 46.7587 28.609 46.6862C28.59 46.65 28.5709 46.6137 28.5518 46.5775C28.6217 46.5703 28.6916 46.5631 28.7616 46.5558C28.9014 46.5413 29.0158 46.505 29.1049 46.4471C29.1938 46.3892 29.4672 46.092 29.9249 45.5558C30.3826 45.0195 30.694 44.679 30.8594 44.5341C31.0246 44.3891 31.2599 44.2587 31.565 44.1428C31.8701 44.0268 32.099 43.9181 32.2515 43.8167C32.4041 43.7152 32.6329 43.4471 32.9381 43.0123C33.2432 42.5776 33.4784 42.3602 33.6437 42.3602C33.8089 42.3602 33.9298 42.3384 34.006 42.295C34.0823 42.2515 34.1841 42.15 34.3112 41.9906C34.4383 41.8312 34.5591 41.5848 34.6735 41.2515C34.7879 40.9181 34.8706 40.7225 34.9214 40.6645C34.9723 40.6065 35.0676 40.563 35.2075 40.5341C35.3474 40.5051 35.4681 40.266 35.5698 39.8166C35.6716 39.3674 35.786 38.9978 35.9131 38.7079C36.0403 38.4182 36.1293 38.2587 36.1801 38.2297C36.231 38.2008 36.2945 38.2008 36.3708 38.2297C36.4471 38.2587 36.5234 38.3529 36.5997 38.5123C36.6759 38.6717 36.7331 38.7732 36.7713 38.8166C36.8094 38.8601 36.854 38.8747 36.9048 38.8601C36.9557 38.8457 36.9493 38.6427 36.8857 38.2514C36.8222 37.8601 36.8031 37.4978 36.8285 37.1645C36.854 36.8312 36.8349 36.5848 36.7713 36.4254C36.7078 36.266 36.695 36.1718 36.7331 36.1427C36.7713 36.1138 36.8222 36.121 36.8857 36.1645C36.9493 36.208 37.0256 36.2297 37.1146 36.2297C37.2036 36.2297 37.318 36.15 37.4578 35.9906C37.5977 35.8312 37.674 35.6428 37.6867 35.4254C37.6995 35.208 37.6485 34.9833 37.5341 34.7515C37.4197 34.5196 37.3625 34.3602 37.3625 34.2732C37.3625 34.1862 37.3815 34.121 37.4197 34.0776C37.4578 34.0341 37.5341 34.0196 37.6485 34.0341C37.763 34.0485 37.9219 34.1645 38.1253 34.3819C38.3288 34.5993 38.4623 34.8602 38.5258 35.1645C38.5894 35.4688 38.6847 35.6428 38.8119 35.6862C38.939 35.7297 39.0979 35.7514 39.2886 35.7514C39.4793 35.7514 39.6192 35.7732 39.7083 35.8167C39.7972 35.8601 39.8354 35.9326 39.8227 36.0341C39.8099 36.1356 39.7845 36.208 39.7464 36.2514C39.7083 36.2949 39.7083 36.4471 39.7464 36.708C39.7655 36.8384 39.7845 36.9688 39.8036 37.0993C39.7019 37.0848 39.6001 37.0703 39.4984 37.0558C39.295 37.0269 39.187 37.0486 39.1742 37.121C39.1615 37.1935 39.1679 37.2443 39.1933 37.2732C39.2187 37.3022 39.3458 37.3601 39.5747 37.4471C39.8036 37.534 40.1024 37.7514 40.4711 38.0993C40.8397 38.4471 41.3038 38.7514 41.8633 39.0123C42.4226 39.2732 42.7087 39.4253 42.7214 39.4688C42.7341 39.5123 42.7087 39.5775 42.6452 39.6645C42.5816 39.7514 42.4035 39.8384 42.1112 39.9253C41.8187 40.0123 41.6407 40.0921 41.5772 40.1645C41.5454 40.2007 41.5136 40.2369 41.4818 40.2731C41.628 40.2949 41.7742 40.3166 41.9205 40.3384C42.2128 40.3818 42.4163 40.4543 42.5307 40.5558C42.6452 40.6573 42.7277 40.8239 42.7786 41.0558C42.8295 41.2877 42.7977 41.4761 42.6833 41.6211C42.5689 41.7659 42.5561 41.9181 42.6452 42.0776C42.7341 42.2369 42.7596 42.3746 42.7214 42.4906C42.6833 42.6065 42.6705 42.7225 42.6833 42.8384C42.696 42.9543 42.6578 43.0413 42.5689 43.0993C42.4798 43.1572 42.4163 43.2297 42.3782 43.3167C42.3591 43.3602 42.34 43.4036 42.321 43.4471C42.4226 43.5051 42.5243 43.563 42.6261 43.621C42.8295 43.7369 42.9503 43.8891 42.9884 44.0776C43.0266 44.2659 43.0519 44.5195 43.0647 44.8384C43.071 44.9978 43.0774 45.1572 43.0838 45.3167C43.2426 45.2369 43.4016 45.1572 43.5606 45.0775C43.8784 44.9181 44.0881 44.9326 44.1899 45.121C44.2916 45.3094 44.4633 45.5341 44.7048 45.7949C44.9463 46.0558 45.207 46.2659 45.4867 46.4254C45.7664 46.5848 46.0461 46.7007 46.3258 46.7732C46.6055 46.8457 46.8852 46.8819 47.1649 46.8819C47.4446 46.8819 47.8451 46.8311 48.3664 46.7297C48.8877 46.6283 49.6759 46.5123 50.7311 46.3819C51.7864 46.2514 52.492 46.1355 52.8481 46.0341C53.204 45.9326 53.4837 45.8239 53.6872 45.708C53.8906 45.592 54.0686 45.4254 54.2212 45.208C54.3737 44.9906 54.4563 44.7659 54.4691 44.5341C54.4818 44.3021 53.9351 44.1138 52.829 43.9689C51.7228 43.8239 51.0363 43.679 50.7693 43.5341C50.5023 43.3891 50.2798 43.2369 50.1018 43.0776C49.9239 42.9181 49.8031 42.7732 49.7395 42.6428C49.6759 42.5124 49.517 41.795 49.2627 40.4905C49.0085 39.1862 48.7732 38.2297 48.5571 37.621C48.341 37.0123 48.2202 36.5196 48.1947 36.1427C48.1694 35.7659 48.1058 35.4109 48.004 35.0775C47.9023 34.7442 47.8324 34.3892 47.7943 34.0123C47.7561 33.6355 47.6481 33.1283 47.47 32.4906C47.292 31.8529 47.2031 31.4833 47.2031 31.3819C47.2031 31.2805 47.2285 31.1573 47.2793 31.0124C47.3302 30.8674 47.3556 30.679 47.3556 30.4472C47.3556 30.2152 47.3811 30.0124 47.4319 29.8385C47.4827 29.6645 47.5082 29.3747 47.5082 28.9689C47.5082 28.563 47.47 28.2152 47.3938 27.9254C47.3175 27.6355 47.2031 27.4254 47.0505 27.295C46.8979 27.1646 46.8471 26.9326 46.8979 26.5994C46.9488 26.266 46.9361 26.0558 46.8598 25.9688C46.7835 25.8819 46.6627 25.8384 46.4974 25.8384C46.3322 25.8384 46.1415 25.8819 45.9253 25.9688C45.7092 26.0558 45.5439 26.0848 45.4295 26.0558C45.3151 26.0269 45.2515 25.9761 45.2388 25.9036C45.2261 25.8312 45.2769 25.766 45.3913 25.708C45.4485 25.679 45.5058 25.65 45.563 25.621C45.5503 25.5921 45.5375 25.5631 45.5248 25.5341C45.4994 25.4761 45.4994 25.3601 45.5248 25.1862C45.5503 25.0123 45.5184 24.8819 45.4295 24.7949C45.3405 24.708 45.2261 24.6573 45.0862 24.6428C44.9463 24.6283 44.8447 24.5993 44.7811 24.5558C44.7175 24.5123 44.6984 24.4471 44.7239 24.3602C44.7493 24.2732 44.9463 24.208 45.3151 24.1645C45.6838 24.121 45.9889 24.0486 46.2304 23.9471C46.472 23.8457 46.5928 23.7732 46.5928 23.7297C46.5928 23.708 46.5928 23.6862 46.5928 23.6645C46.6119 23.6718 46.6309 23.6791 46.65 23.6862C46.6691 23.6935 46.6881 23.7008 46.7072 23.708C46.7072 23.6935 46.7072 23.6791 46.7072 23.6645C46.7072 23.65 46.7072 23.6356 46.7072 23.621C46.4847 23.6283 46.2622 23.6356 46.0397 23.6428C45.5947 23.6573 45.2388 23.6283 44.9718 23.5558C44.8383 23.5196 44.7048 23.4834 44.5713 23.4471C44.6158 23.4327 44.6603 23.4182 44.7048 23.4036C44.7938 23.3747 45.0035 23.3602 45.3341 23.3602C45.4994 23.3602 45.6647 23.3602 45.83 23.3602C45.8109 23.2878 45.7918 23.2153 45.7728 23.1428C45.7537 23.0704 45.7346 22.9979 45.7155 22.9254C45.8173 22.9036 45.9189 22.8819 46.0207 22.8602C46.2241 22.8167 46.3639 22.7515 46.4402 22.6645C46.5165 22.5776 46.5547 22.4906 46.5547 22.4037C46.5547 22.3167 46.4275 22.2153 46.1732 22.0993C45.9189 21.9834 45.7728 21.8819 45.7346 21.795C45.7155 21.7515 45.6965 21.708 45.6774 21.6645C45.7854 21.6935 45.8936 21.7226 46.0016 21.7515C46.1096 21.7805 46.2178 21.8095 46.3258 21.8384C46.3322 21.7732 46.3385 21.708 46.3449 21.6428C46.3576 21.5124 46.3894 21.4037 46.4402 21.3167C46.4911 21.2297 46.6373 21.1718 46.8789 21.1428C47.1204 21.1138 47.2793 21.0776 47.3556 21.0341C47.3938 21.0124 47.4319 20.9906 47.47 20.9689C47.4446 20.9254 47.4192 20.8819 47.3938 20.8384C47.3429 20.7515 47.2348 20.6355 47.0696 20.4906C46.9043 20.3457 46.7771 20.2588 46.6881 20.2298C46.5992 20.2007 46.5356 20.1573 46.4974 20.0993C46.4593 20.0414 46.5038 19.9544 46.6309 19.8385C46.758 19.7225 46.8216 19.6283 46.8216 19.5559C46.8216 19.4834 46.6055 19.3094 46.1732 19.0341C45.741 18.7588 45.5248 18.6066 45.5248 18.5776C45.5248 18.5631 45.5248 18.5486 45.5248 18.5341C45.7092 18.5486 45.8936 18.5631 46.0779 18.5776C46.4466 18.6066 46.6436 18.6138 46.6691 18.5993C46.6945 18.5849 46.7008 18.5268 46.6881 18.4254C46.6755 18.324 46.6119 18.2008 46.4974 18.0559C46.383 17.911 46.1669 17.7225 45.849 17.4907C45.5312 17.2588 45.3341 17.0921 45.2578 16.9907C45.2197 16.9399 45.1816 16.8892 45.1434 16.8385C45.296 16.8602 45.4486 16.882 45.6011 16.9037C45.9062 16.9472 46.2178 16.9254 46.5356 16.8385C46.8534 16.7515 47.0314 16.679 47.0696 16.6211C47.0886 16.5921 47.1077 16.5631 47.1268 16.5341C47.095 16.5124 47.0632 16.4907 47.0314 16.4689C46.9678 16.4254 46.9361 16.3747 46.9361 16.3167C46.9361 16.2587 46.9551 16.2081 46.9933 16.1646C47.0123 16.1428 47.0314 16.1211 47.0505 16.0994C47.025 16.0703 46.9997 16.0413 46.9742 16.0124C46.9488 15.9834 46.9234 15.9544 46.8979 15.9254C47.3429 15.9182 47.7879 15.9109 48.2329 15.9037C48.6779 15.8964 49.1229 15.8892 49.5678 15.882C49.5678 15.853 49.5678 15.8239 49.5678 15.795C49.5678 15.737 49.5106 15.6935 49.3962 15.6646C49.2818 15.6356 49.2119 15.5994 49.1864 15.5559C49.1737 15.5341 49.161 15.5124 49.1483 15.4907C49.2119 15.4689 49.2755 15.4472 49.339 15.4255C49.4662 15.382 49.5806 15.2733 49.6822 15.0994C49.784 14.9255 49.8984 14.8239 50.0255 14.795C50.1527 14.766 50.2798 14.7805 50.4069 14.8385C50.5341 14.8964 50.7439 15.0631 51.0363 15.3385C51.3287 15.6138 51.5258 15.8457 51.6275 16.0341C51.7292 16.2225 51.7864 16.3602 51.7991 16.4472C51.8119 16.5341 51.7928 16.7877 51.7419 17.208C51.7165 17.4182 51.6911 17.6284 51.6656 17.8385C51.7165 17.8385 51.7673 17.8385 51.8182 17.8385C51.9199 17.8385 52.0026 17.8675 52.0661 17.9254C52.1297 17.9834 52.1933 18.2008 52.2569 18.5776C52.3204 18.9544 52.4157 19.1428 52.5429 19.1428C52.6701 19.1428 52.7718 19.1863 52.8481 19.2732C52.9244 19.3602 52.9816 19.4037 53.0197 19.4037C53.0579 19.4037 53.1404 19.3385 53.2676 19.208C53.3947 19.0776 53.5092 19.0124 53.6109 19.0124C53.7126 19.0124 53.7952 19.0414 53.8588 19.0993C53.9223 19.1573 53.9542 19.2442 53.9542 19.3602C53.9542 19.4762 53.8906 19.6501 53.7635 19.8819C53.6363 20.1138 53.5346 20.3384 53.4583 20.5558C53.382 20.7732 53.3311 21.0703 53.3058 21.4471C53.2803 21.824 53.2231 22.0414 53.1341 22.0993C53.0451 22.1573 53.0006 22.2297 53.0006 22.3167C53.0006 22.4037 53.0515 22.5269 53.1532 22.6863C53.2549 22.8457 53.3121 23.0052 53.3248 23.1645C53.3375 23.324 53.3311 23.4617 53.3058 23.5776C53.2803 23.6935 53.2803 23.766 53.3058 23.7949C53.3311 23.824 53.382 23.8384 53.4583 23.8384C53.5346 23.8384 53.6236 23.7878 53.7253 23.6862C53.827 23.5848 53.9414 23.5558 54.0686 23.5993C54.1957 23.6428 54.2847 23.6138 54.3356 23.5123C54.3864 23.4109 54.4691 23.3602 54.5835 23.3602C54.6979 23.3602 54.7742 23.2878 54.8124 23.1428C54.8505 22.9979 54.9204 22.8457 55.0221 22.6863C55.1238 22.5269 55.1938 22.3819 55.2319 22.2515C55.2701 22.121 55.3209 22.0341 55.3845 21.9906C55.448 21.9471 55.5433 21.9182 55.6705 21.9037C55.7976 21.8892 55.8994 21.7732 55.9757 21.5558C56.0519 21.3384 56.1219 21.2297 56.1854 21.2297C56.249 21.2297 56.3126 21.324 56.3762 21.5124C56.4397 21.7008 56.4906 21.795 56.5287 21.795C56.5669 21.795 56.6241 21.737 56.7004 21.621C56.7766 21.5051 56.8656 21.4471 56.9673 21.4471C57.0691 21.4471 57.1263 21.4037 57.139 21.3167C57.1517 21.2297 57.1771 21.1718 57.2153 21.1428C57.2534 21.1138 57.2725 21.0558 57.2725 20.9689C57.2725 20.8819 57.2089 20.7732 57.0818 20.6428C56.9547 20.5124 56.8974 20.3964 56.9101 20.295C56.9228 20.1936 56.9673 20.1428 57.0436 20.1428C57.1199 20.1428 57.228 20.179 57.3678 20.2515C57.4377 20.2877 57.5077 20.324 57.5776 20.3602C57.5712 20.2588 57.5649 20.1573 57.5585 20.0558C57.5459 19.8529 57.5522 19.737 57.5776 19.708C57.6031 19.679 57.692 19.6718 57.8446 19.6863C57.9972 19.7007 58.2006 19.7877 58.4549 19.9472C58.7092 20.1066 58.8808 20.179 58.9698 20.1645C59.0143 20.1573 59.0587 20.1501 59.1033 20.1428C59.0906 20.0993 59.0778 20.0558 59.0651 20.0124C59.0397 19.9254 58.9507 19.766 58.7981 19.5341C58.6456 19.3023 58.5566 19.1501 58.5311 19.0776C58.5057 19.0051 58.4994 18.8964 58.5121 18.7515C58.5185 18.679 58.5248 18.6066 58.5311 18.5341C58.5757 18.5486 58.6201 18.5631 58.6646 18.5776C58.7536 18.6066 58.9316 18.737 59.1986 18.9689C59.4656 19.2007 59.6945 19.3675 59.8852 19.4689C60.0759 19.5703 60.1903 19.6066 60.2284 19.5776C60.2475 19.5631 60.2666 19.5486 60.2857 19.5341C60.2857 19.5558 60.2857 19.5776 60.2857 19.5993C60.2857 19.6211 60.2857 19.6428 60.2857 19.6645C60.2983 19.6645 60.3111 19.6645 60.3238 19.6645C60.3365 19.6645 60.3492 19.6645 60.3619 19.6645C60.3365 19.6211 60.3111 19.5776 60.2857 19.5341C60.2348 19.4472 60.0949 19.3167 59.8661 19.1428C59.6372 18.9689 59.4592 18.8095 59.3321 18.6646C59.205 18.5197 59.1541 18.4254 59.1796 18.3819C59.205 18.3385 59.2558 18.3023 59.3321 18.2733C59.4084 18.2442 59.8025 18.2298 60.5145 18.2298C61.2265 18.2298 61.6461 18.2153 61.7732 18.1863C61.9004 18.1573 62.0592 18.0993 62.2499 18.0124C62.4406 17.9254 62.625 17.8023 62.803 17.6428C62.981 17.4834 63.14 17.266 63.2798 16.9907C63.4196 16.7152 63.5086 16.4978 63.5467 16.3385C63.5849 16.179 63.6167 15.8747 63.6421 15.4255C63.6676 14.9761 63.6993 14.7008 63.7374 14.5994C63.7756 14.4979 63.7947 14.3747 63.7947 14.2298C63.7947 14.0848 63.7629 13.9544 63.6993 13.8385C63.6358 13.7225 63.6358 13.5342 63.6993 13.2733C63.7629 13.0124 63.782 12.7733 63.7565 12.5559C63.7312 12.3385 63.782 12.1066 63.9091 11.8602C64.0363 11.6139 64.1189 11.4109 64.157 11.2515C64.1951 11.0921 64.2142 10.8892 64.2142 10.6428C64.2142 10.3965 64.1761 10.0558 64.0998 9.62106C64.0235 9.18629 63.9091 8.83128 63.7565 8.55586C63.604 8.28053 63.4895 8.02694 63.4132 7.79499C63.337 7.56314 63.2925 7.12835 63.2798 6.49067C63.2735 6.17182 63.2671 5.85299 63.2607 5.53414C63.2289 5.55588 63.1972 5.57762 63.1653 5.59936C63.1018 5.64284 62.9874 5.80226 62.8221 6.07763C62.6568 6.35298 62.4852 6.5414 62.3071 6.64284C62.1292 6.7443 61.9321 6.79501 61.716 6.79501C61.4999 6.79501 61.3727 6.75878 61.3345 6.68632C61.2964 6.61385 61.271 6.47618 61.2583 6.27328C61.252 6.17182 61.2456 6.07038 61.2392 5.96893C61.201 5.99791 61.1629 6.0269 61.1248 6.05589C61.0485 6.11386 60.9913 6.18632 60.9531 6.27328C60.915 6.36023 60.8006 6.39646 60.6099 6.38197C60.4191 6.36748 60.1776 6.38197 59.8852 6.42545C59.5927 6.46893 59.4148 6.47618 59.3512 6.44719C59.2876 6.4182 59.2431 6.36748 59.2177 6.29502C59.1922 6.22255 59.2876 6.08487 59.5037 5.88198C59.7199 5.67908 59.8343 5.54139 59.847 5.46893C59.8534 5.4327 59.8597 5.39647 59.8661 5.36023C59.7898 5.36748 59.7135 5.37473 59.6372 5.38197C59.4847 5.39647 59.3829 5.37473 59.3321 5.31676C59.2813 5.25879 59.2241 5.2298 59.1605 5.2298C59.0969 5.2298 59.0524 5.34574 59.027 5.57762C59.0015 5.80951 58.9762 5.92545 58.9507 5.92545C58.9252 5.92545 58.8427 5.70806 58.7028 5.27328C58.5629 4.8385 58.4167 4.51966 58.2642 4.31676C58.1116 4.11386 57.959 3.96169 57.8065 3.86024C57.6539 3.75879 57.5459 3.61386 57.4823 3.42546C57.4187 3.23705 57.3297 3.06314 57.2153 2.90372C57.1008 2.7443 57.0182 2.6501 56.9673 2.62111C56.9165 2.59213 56.8465 2.58488 56.7576 2.59937C56.6686 2.61387 56.6241 2.72256 56.6241 2.92546C56.6241 3.12835 56.5986 3.2443 56.5478 3.27329C56.497 3.30226 56.4207 3.27329 56.3189 3.18633C56.2172 3.09937 56.0456 3.0414 55.804 3.01242C55.5624 2.98343 55.2891 2.91096 54.984 2.79502C54.6789 2.67909 54.4627 2.62111 54.3356 2.62111C54.2084 2.62111 54.094 2.65735 53.9923 2.7298C53.8906 2.80227 53.8397 2.88199 53.8397 2.96894C53.8397 3.0559 54.0495 3.29503 54.4691 3.68633C54.8886 4.07763 55.1302 4.23705 55.1938 4.16458C55.2573 4.09213 55.3082 4.05589 55.3463 4.05589C55.3845 4.05589 55.4289 4.09213 55.4798 4.16458C55.5307 4.23705 55.5815 4.27328 55.6324 4.27328C55.6832 4.27328 55.7277 4.22256 55.7659 4.1211C55.804 4.01966 55.8358 3.96893 55.8612 3.96893C55.8866 3.96893 55.9947 4.07039 56.1854 4.27328C56.3762 4.47618 56.497 4.57763 56.5478 4.57763C56.5732 4.57763 56.5986 4.57763 56.6241 4.57763C56.6241 4.50517 56.6241 4.4327 56.6241 4.36024C56.6241 4.28778 56.6241 4.21531 56.6241 4.14284C56.6813 4.17908 56.7385 4.21531 56.7957 4.25154C56.8529 4.28778 56.9101 4.324 56.9673 4.36024C56.9673 4.30227 56.9673 4.2443 56.9673 4.18632C56.9673 4.12835 56.9673 4.07039 56.9673 4.01241C56.9928 4.01966 57.0182 4.02691 57.0436 4.03415C57.0945 4.04865 57.1898 4.14284 57.3297 4.31676C57.4696 4.49068 57.6221 4.7298 57.7874 5.03415C57.9526 5.33849 58.0226 5.64284 57.9972 5.94719C57.9717 6.25154 57.9463 6.42545 57.9209 6.46893C57.8954 6.51241 57.8255 6.55588 57.7111 6.59936C57.5967 6.64284 57.3551 6.65733 56.9864 6.64284C56.6177 6.62835 56.249 6.73705 55.8803 6.96892C55.5116 7.20077 55.2764 7.3312 55.1747 7.36022C55.073 7.38923 54.9268 7.47619 54.7361 7.62108C54.5454 7.76607 54.4182 7.83847 54.3547 7.83847C54.2911 7.83847 54.2275 7.80955 54.164 7.75152C54.1004 7.69358 54.0305 7.67912 53.9542 7.70804C53.8779 7.73706 53.8207 7.85303 53.7825 8.05586C53.7444 8.25879 53.6681 8.40368 53.5537 8.49064C53.4393 8.5776 53.3821 8.65009 53.3821 8.70803C53.3821 8.76606 53.4329 8.94716 53.5346 9.2515C53.6363 9.55585 53.7571 9.77324 53.897 9.90367C54.0368 10.0341 54.113 10.1501 54.1258 10.2515C54.1385 10.353 54.0431 10.5849 53.8397 10.9471C53.738 11.1283 53.6363 11.3095 53.5346 11.4906C53.7507 11.5776 53.9669 11.6645 54.183 11.7515C54.6153 11.9254 54.8696 12.0631 54.9459 12.1646C55.0221 12.266 55.073 12.4327 55.0984 12.6646C55.1238 12.8965 55.073 13.0921 54.9459 13.2516C54.8187 13.4109 54.6216 13.5486 54.3547 13.6646C54.0877 13.7805 53.8334 13.853 53.5918 13.882C53.3502 13.9109 53.1214 13.9037 52.9053 13.8602C52.6891 13.8168 52.5366 13.7443 52.4476 13.6429C52.3585 13.5413 52.3141 13.4399 52.3141 13.3385C52.3141 13.237 52.3458 13.1429 52.4094 13.0559C52.473 12.969 52.5111 12.8892 52.5239 12.8168C52.5302 12.7805 52.5366 12.7443 52.5429 12.7081C52.4412 12.6863 52.3395 12.6646 52.2378 12.6429C52.0343 12.5994 51.9326 12.5414 51.9326 12.469C51.9326 12.3965 51.9771 12.324 52.0661 12.2516C52.1551 12.1791 52.1997 12.1211 52.1997 12.0776C52.1997 12.0341 52.0661 11.9834 51.7991 11.9254C51.5321 11.8675 51.3732 11.8022 51.3223 11.7297C51.2715 11.6573 51.227 11.5269 51.1888 11.3384C51.1507 11.1501 51.0553 10.9906 50.9028 10.8602C50.7502 10.7297 50.6612 10.5487 50.6358 10.3167C50.6104 10.0849 50.6167 9.88921 50.6549 9.72976C50.693 9.5704 50.6612 9.43269 50.5595 9.31672C50.4578 9.20084 50.3816 9.06313 50.3307 8.90368C50.2798 8.74432 50.2544 8.61389 50.2544 8.51238C50.2544 8.41096 50.318 8.32401 50.4451 8.25151C50.5723 8.17911 50.6358 8.10662 50.6358 8.03412C50.6358 7.96172 50.5913 7.83129 50.5023 7.64282C50.4133 7.45445 50.4069 7.32402 50.4832 7.25152C50.5595 7.17907 50.6295 7.0269 50.693 6.79501C50.7566 6.56313 50.8265 6.42545 50.9028 6.38197C50.9791 6.33849 51.0109 6.11386 50.9981 5.70806C50.9854 5.30227 50.9981 4.96168 51.0363 4.68633C51.0744 4.41096 51.1189 4.20806 51.1698 4.07763C51.2207 3.94719 51.3795 3.91821 51.6465 3.99067C51.9135 4.06314 52.1297 4.09937 52.295 4.09937C52.4603 4.09937 52.6192 4.04865 52.7718 3.94719C52.9244 3.84575 53.096 3.80227 53.2867 3.81676C53.4774 3.83126 53.6109 3.82401 53.6872 3.79502C53.7635 3.76603 53.8143 3.71531 53.8397 3.64285C53.8651 3.57038 53.846 3.49793 53.7825 3.42546C53.7189 3.35299 53.649 3.22256 53.5728 3.03416C53.4965 2.84575 53.363 2.75154 53.1723 2.75154C52.9816 2.75154 52.8417 2.71531 52.7527 2.64285C52.6637 2.57039 52.5492 2.56314 52.4094 2.62111C52.2696 2.67909 52.1678 2.70082 52.1043 2.68633C52.0407 2.67184 51.9707 2.61387 51.8945 2.51241C51.8182 2.41097 51.7292 2.14285 51.6275 1.70807C51.5258 1.27329 51.4495 1.02692 51.3986 0.968941C51.3732 0.939952 51.3478 0.910973 51.3223 0.881985C51.3033 0.983439 51.2842 1.08488 51.2651 1.18633ZM63.2225 1.40372C63.0954 1.54865 63.0128 1.6646 62.9746 1.75155C62.9365 1.83851 62.9174 1.95445 62.9174 2.09937C62.9174 2.2443 62.981 2.56314 63.1081 3.0559C63.2353 3.54864 63.4132 4.06314 63.6421 4.59937C63.8709 5.13559 63.9918 5.7298 64.0044 6.38197C64.0172 7.03414 64.0299 7.38923 64.0426 7.44717C64.0554 7.5052 64.0807 7.53413 64.1189 7.53413C64.157 7.53413 64.3096 7.295 64.5766 6.81675C64.8436 6.33849 64.9834 5.91096 64.9962 5.53414C65.0089 5.15733 64.9898 4.81676 64.939 4.51241C64.8881 4.20806 64.8627 3.83126 64.8627 3.38198C64.8627 2.9327 64.7038 2.49068 64.3859 2.0559C64.068 1.62112 63.8709 1.37474 63.7947 1.31676C63.7184 1.2588 63.6358 1.22257 63.5467 1.20807C63.4578 1.19358 63.3497 1.2588 63.2225 1.40372ZM59.9805 8.27325C60.1395 8.68629 60.2983 9.09933 60.4573 9.51237C60.7752 10.3384 61.0675 10.9471 61.3345 11.3384C61.6015 11.7297 61.9067 12.1139 62.2499 12.4907C62.5932 12.8674 62.8475 13.2298 63.0128 13.5776C63.1781 13.9255 63.2671 14.2587 63.2798 14.5776C63.2925 14.8964 63.2735 15.2443 63.2225 15.6211C63.1717 15.9978 63.0954 16.2877 62.9937 16.4907C62.892 16.6935 62.7648 16.8892 62.6123 17.0776C62.4597 17.266 62.2818 17.4254 62.0783 17.5559C61.8749 17.6863 61.6397 17.7588 61.3727 17.7733C61.1057 17.7877 60.8387 17.7588 60.5717 17.6863C60.3047 17.6138 60.1076 17.5269 59.9805 17.4254C59.8534 17.324 59.7517 17.179 59.6754 16.9907C59.5991 16.8022 59.5673 16.3891 59.58 15.7515C59.5927 15.1138 59.6627 13.9255 59.7898 12.1864C59.9169 10.4471 59.9805 9.3602 59.9805 8.92542C59.9805 8.70803 59.9805 8.49064 59.9805 8.27325ZM63.089 9.20802C63.1781 9.22258 63.2544 9.26606 63.3179 9.33846C63.3815 9.41095 63.4132 9.54866 63.4132 9.7515C63.4132 9.95443 63.3815 10.1574 63.3179 10.3602C63.2861 10.4617 63.2544 10.5631 63.2225 10.6645C63.1717 10.6139 63.1209 10.5631 63.07 10.5124C62.9683 10.4109 62.873 10.266 62.7839 10.0776C62.6949 9.88921 62.6504 9.72258 62.6504 9.57759C62.6504 9.43269 62.7013 9.33127 62.803 9.27324C62.9047 9.2153 63.0001 9.19356 63.089 9.20802ZM56.7385 9.72976C56.8402 9.74432 56.9356 9.78779 57.0246 9.86019C57.1135 9.93269 57.1707 10.0631 57.1962 10.2515C57.2217 10.44 57.1771 10.6139 57.0627 10.7732C56.9483 10.9327 56.8084 11.0269 56.6431 11.0558C56.4779 11.0849 56.3316 11.0414 56.2045 10.9254C56.0773 10.8095 56.0074 10.6791 55.9947 10.5341C55.982 10.3892 56.0265 10.237 56.1282 10.0776C56.2299 9.91823 56.3316 9.81671 56.4334 9.77324C56.5351 9.72976 56.6368 9.7153 56.7385 9.72976ZM57.8827 11.2297C57.9018 11.2588 57.9209 11.2878 57.94 11.3167C57.9781 11.3747 58.0289 11.5558 58.0925 11.8602C58.1561 12.1646 58.2387 12.4255 58.3404 12.6429C58.4422 12.8603 58.493 13.0486 58.493 13.2081C58.493 13.3674 58.4358 13.5848 58.3214 13.8602C58.2069 14.1356 58.1497 14.3457 58.1497 14.4907C58.1497 14.6356 58.2006 14.8747 58.3023 15.2081C58.404 15.5413 58.5185 15.7587 58.6456 15.8602C58.7727 15.9616 58.8427 16.0559 58.8554 16.1428C58.868 16.2298 58.849 16.3239 58.7981 16.4254C58.7473 16.5269 58.652 16.5776 58.5121 16.5776C58.3722 16.5776 58.1879 16.5486 57.959 16.4907C57.7302 16.4326 57.3742 16.3022 56.8911 16.0994C56.4079 15.8964 56.0837 15.8168 55.9185 15.8602C55.7531 15.9037 55.6006 15.9978 55.4608 16.1428C55.3209 16.2877 55.2065 16.3602 55.1175 16.3602C55.0284 16.3602 54.8949 16.2587 54.717 16.0559C54.539 15.853 54.361 15.7081 54.183 15.6211C54.005 15.5341 53.9351 15.4326 53.9732 15.3168C54.0114 15.2008 54.0813 15.0848 54.183 14.9689C54.2847 14.853 54.4119 14.7515 54.5644 14.6646C54.717 14.5776 54.9331 14.4907 55.2128 14.4037C55.4925 14.3168 55.7404 14.1718 55.9566 13.9689C56.1727 13.766 56.3063 13.6646 56.3571 13.6646C56.4079 13.6646 56.4779 13.7733 56.5669 13.9907C56.6558 14.2081 56.7766 14.4399 56.9292 14.6863C57.0818 14.9326 57.247 15.15 57.425 15.3385C57.6031 15.5269 57.7492 15.6356 57.8637 15.6646C57.9209 15.679 57.9781 15.6935 58.0353 15.7081C58.0417 15.6428 58.048 15.5776 58.0544 15.5124C58.0671 15.382 58.0608 15.266 58.0353 15.1646C58.0098 15.0631 57.9209 14.8747 57.7683 14.5994C57.6157 14.324 57.5395 14.1429 57.5395 14.0559C57.5395 13.9689 57.5776 13.8603 57.6539 13.7298C57.7302 13.5994 57.781 13.4761 57.8065 13.3603C57.8319 13.2443 57.8382 12.882 57.8255 12.2733C57.8128 11.6645 57.8191 11.3384 57.8446 11.295C57.8573 11.2732 57.8701 11.2515 57.8827 11.2297ZM60.7624 14.1429C60.6735 14.1718 60.5972 14.2443 60.5336 14.3602C60.4701 14.4761 60.4573 14.6646 60.4954 14.9255C60.5336 15.1863 60.6226 15.3674 60.7624 15.4689C60.9023 15.5703 61.1375 15.6211 61.468 15.6211C61.7986 15.6211 61.9703 15.65 61.9829 15.7081C61.9957 15.766 61.9829 15.8747 61.9448 16.0341C61.9257 16.1138 61.9067 16.1935 61.8876 16.2733C61.9257 16.2587 61.9639 16.2443 62.002 16.2298C62.0783 16.2008 62.1674 16.0994 62.269 15.9254C62.3707 15.7515 62.5106 15.5631 62.6886 15.3602C62.8666 15.1573 62.9619 14.9617 62.9746 14.7733C62.9874 14.5848 62.9492 14.4399 62.8602 14.3385C62.7712 14.237 62.4216 14.1718 61.8113 14.1429C61.201 14.1138 60.8515 14.1138 60.7624 14.1429ZM54.4882 23.6645C54.3356 23.7805 54.1766 23.824 54.0114 23.7949C53.846 23.766 53.7316 23.7878 53.6681 23.8602C53.6045 23.9327 53.4774 23.9471 53.2867 23.9036C53.1913 23.8819 53.096 23.8602 53.0006 23.8384C52.9816 24.1066 52.9625 24.3747 52.9434 24.6428C52.9053 25.179 52.8608 25.4979 52.8099 25.5993C52.759 25.7008 52.6065 25.8819 52.3522 26.1427C52.0979 26.4037 51.9199 26.5413 51.8182 26.5559C51.7165 26.5703 51.6275 26.5559 51.5512 26.5124C51.4749 26.4689 51.3669 26.4689 51.227 26.5124C51.1571 26.5341 51.0872 26.5559 51.0172 26.5776C51.0236 26.4254 51.03 26.2732 51.0363 26.121C51.049 25.8167 51.03 25.6573 50.9791 25.6427C50.9282 25.6283 50.8074 25.7514 50.6167 26.0123C50.426 26.2732 50.2671 26.5703 50.1399 26.9037C50.0128 27.237 49.9048 27.4689 49.8157 27.5993C49.7268 27.7298 49.6632 27.8095 49.625 27.8385C49.5869 27.8674 49.4343 27.8674 49.1673 27.8385C48.9004 27.8095 48.7351 27.8167 48.6715 27.8602C48.608 27.9037 48.5317 27.9761 48.4426 28.0776C48.3537 28.179 48.2519 28.3674 48.1375 28.6428C48.0231 28.9181 47.9341 29.2152 47.8705 29.5341C47.8069 29.8529 47.7816 30.1573 47.7943 30.4472C47.8069 30.7369 47.826 30.9037 47.8515 30.9471C47.8769 30.9906 47.9087 31.0051 47.9468 30.9906C47.985 30.9761 48.004 30.8094 48.004 30.4906C48.004 30.1717 48.0168 29.9978 48.0422 29.9689C48.0676 29.9399 48.1248 29.9543 48.2138 30.0124C48.3029 30.0703 48.4364 30.1065 48.6143 30.1211C48.7923 30.1355 48.9131 30.1645 48.9766 30.208C49.0402 30.2515 49.0974 30.3312 49.1483 30.4472C49.1992 30.563 49.2436 30.6211 49.2818 30.6211C49.3199 30.6211 49.358 30.5848 49.3962 30.5124C49.4343 30.4399 49.4725 30.2442 49.5106 29.9254C49.5488 29.6065 49.6124 29.3891 49.7013 29.2732C49.7458 29.2152 49.7904 29.1573 49.8348 29.0993C49.8539 29.1211 49.873 29.1428 49.892 29.1646C49.9302 29.208 49.9556 29.2877 49.9683 29.4037C49.9811 29.5196 49.9683 29.8602 49.9302 30.4254C49.892 30.9906 49.9175 31.3312 50.0065 31.4471C50.0955 31.5631 50.2162 31.5993 50.3688 31.5558C50.5214 31.5124 50.6486 31.5631 50.7502 31.708C50.8519 31.8529 50.9854 31.9544 51.1507 32.0124C51.316 32.0703 51.3986 32.2659 51.3986 32.5993C51.3986 32.7659 51.3986 32.9327 51.3986 33.0993C51.4241 33.0993 51.4495 33.0993 51.4749 33.0993C51.5258 33.0993 51.5703 33.0776 51.6084 33.0341C51.6465 32.9906 51.7101 32.824 51.7991 32.5341C51.8881 32.2442 51.9517 32.0776 51.9898 32.0341C52.0089 32.0124 52.0279 31.9906 52.047 31.9689C52.1425 32.1572 52.2378 32.3457 52.3332 32.5341C52.5239 32.9109 52.6764 33.1718 52.7909 33.3167C52.9053 33.4616 52.9879 33.5414 53.0388 33.5558C53.0896 33.5703 53.1532 33.6428 53.2295 33.7732C53.3058 33.9036 53.4138 34.0051 53.5537 34.0776C53.6935 34.15 53.8016 34.2515 53.8779 34.3819C53.916 34.4471 53.9542 34.5123 53.9923 34.5775C54.0114 34.4906 54.0305 34.4036 54.0495 34.3167C54.0686 34.2297 54.0877 34.1428 54.1067 34.0558C54.1766 34.1572 54.2465 34.2587 54.3165 34.3602C54.4563 34.5631 54.6661 34.7805 54.9459 35.0123C55.2255 35.2442 55.4544 35.3819 55.6324 35.4254C55.8103 35.4688 56.1345 35.4906 56.605 35.4906C57.0754 35.4906 57.3869 35.5413 57.5395 35.6428C57.692 35.7442 57.9145 35.7732 58.2069 35.7297C58.4994 35.6862 58.7536 35.5993 58.9698 35.4688C59.1859 35.3384 59.4402 35.0703 59.7326 34.6645C60.025 34.2587 60.2539 33.7877 60.4191 33.2515C60.5845 32.7153 60.7434 32.3457 60.8959 32.1428C61.0485 31.9399 61.1566 31.7659 61.2201 31.6211C61.2837 31.4762 61.3218 31.324 61.3345 31.1645C61.3473 31.0051 61.3219 30.7804 61.2583 30.4906C61.1947 30.2007 61.0739 29.9326 60.8959 29.6863C60.718 29.4399 60.6035 29.3094 60.5526 29.295C60.5018 29.2804 60.4128 29.208 60.2857 29.0776C60.1585 28.9472 60.0313 28.766 59.9042 28.5341C59.7771 28.3022 59.6754 28.1863 59.5991 28.1863C59.5228 28.1863 59.4402 28.2152 59.3512 28.2733C59.2622 28.3312 59.1732 28.3529 59.0842 28.3385C58.9952 28.3239 58.8999 28.208 58.7981 27.9907C58.7473 27.882 58.6964 27.7733 58.6456 27.6646C58.6329 27.6863 58.6201 27.708 58.6074 27.7298C58.5947 27.7515 58.582 27.7733 58.5693 27.795C58.5566 27.7442 58.5438 27.6935 58.5311 27.6428C58.5057 27.5413 58.4612 27.4472 58.3977 27.3602C58.3341 27.2733 58.1307 27.237 57.7874 27.2515C57.4441 27.266 57.2216 27.2587 57.1199 27.2298C57.0182 27.2008 56.7766 27.0341 56.3952 26.7298C56.0138 26.4254 55.7595 26.1935 55.6324 26.0341C55.5052 25.8747 55.3526 25.7877 55.1747 25.7732C54.9967 25.7587 54.8949 25.708 54.8696 25.621C54.8441 25.5341 54.7869 25.4688 54.6979 25.4254C54.6089 25.3819 54.6153 25.0993 54.717 24.5775C54.8187 24.0558 54.8696 23.7443 54.8696 23.6428C54.8696 23.5921 54.8696 23.5414 54.8696 23.4906C54.8441 23.4906 54.8187 23.4906 54.7933 23.4906C54.7424 23.4906 54.6407 23.5486 54.4882 23.6645ZM57.9972 29.9689C58.2705 29.9978 58.5438 30.0268 58.8172 30.0558C59.0906 30.0848 59.3639 30.1138 59.6372 30.1428C59.5674 30.179 59.4974 30.2152 59.4275 30.2515C59.2876 30.3239 59.1287 30.3674 58.9507 30.3819C58.7727 30.3964 58.5947 30.3747 58.4167 30.3167C58.2387 30.2587 58.1243 30.1863 58.0734 30.0993C58.048 30.0558 58.0226 30.0124 57.9972 29.9689ZM56.6622 31.1428C56.7766 31.1863 56.8911 31.2298 57.0055 31.2732C57.2343 31.3602 57.5903 31.4037 58.0734 31.4037C58.5566 31.4037 58.8108 31.4327 58.8363 31.4906C58.8617 31.5486 58.8363 31.6066 58.76 31.6645C58.6837 31.7225 58.5693 31.7732 58.4167 31.8167C58.2642 31.8602 58.0544 31.8746 57.7874 31.8602C57.5204 31.8457 57.2915 31.7877 57.1008 31.6863C56.9101 31.5849 56.7893 31.4979 56.7385 31.4254C56.6877 31.3529 56.6622 31.2877 56.6622 31.2298C56.6622 31.2007 56.6622 31.1718 56.6622 31.1428ZM49.625 32.0993C49.5869 32.1572 49.5678 32.237 49.5678 32.3384C49.5678 32.4399 49.5869 32.6501 49.625 32.9689C49.6632 33.2877 49.695 33.4544 49.7204 33.4689C49.7332 33.4761 49.7458 33.4833 49.7585 33.4906C49.7776 33.324 49.7967 33.1572 49.8157 32.9906C49.8539 32.6572 49.8412 32.4109 49.7776 32.2515C49.7458 32.1718 49.7141 32.092 49.6822 32.0124C49.6632 32.0414 49.6441 32.0703 49.625 32.0993ZM48.0422 32.1428C48.0422 32.2007 48.1694 32.4979 48.4236 33.0341C48.6779 33.5703 48.8178 33.8384 48.8431 33.8384C48.8559 33.8384 48.8686 33.8384 48.8813 33.8384C48.875 33.7442 48.8686 33.6501 48.8622 33.5558C48.8495 33.3674 48.805 33.1863 48.7287 33.0123C48.6524 32.8384 48.5635 32.6572 48.4617 32.4689C48.3601 32.2805 48.2901 32.1645 48.2519 32.121C48.2138 32.0776 48.1694 32.0558 48.1185 32.0558C48.0931 32.0558 48.0676 32.0558 48.0422 32.0558C48.0422 32.0849 48.0422 32.1138 48.0422 32.1428ZM55.7087 32.4471C55.8675 32.5123 56.0265 32.5776 56.1854 32.6428C56.5033 32.7732 56.7893 32.8457 57.0436 32.8602C57.2979 32.8746 57.5204 32.8675 57.7111 32.8384C57.9018 32.8094 58.0035 32.8094 58.0162 32.8384C58.0226 32.8529 58.0289 32.8674 58.0353 32.8819C57.9273 32.9327 57.8191 32.9833 57.7111 33.0341C57.4949 33.1355 57.2534 33.1863 56.9864 33.1863C56.7194 33.1863 56.4715 33.1283 56.2427 33.0123C56.0138 32.8964 55.8675 32.8094 55.804 32.7515C55.7404 32.6935 55.7087 32.6283 55.7087 32.5558C55.7087 32.5196 55.7087 32.4833 55.7087 32.4471ZM55.0221 33.9254C55.1556 33.9833 55.2891 34.0414 55.4226 34.0993C55.6896 34.2153 55.9311 34.2732 56.1473 34.2732C56.3635 34.2732 56.5986 34.2442 56.8529 34.1862C57.1072 34.1283 57.2789 34.0993 57.3678 34.0993C57.4124 34.0993 57.4568 34.0993 57.5013 34.0993C57.5013 34.1138 57.5013 34.1283 57.5013 34.1428C57.5013 34.1718 57.3742 34.2587 57.1199 34.4036C56.8656 34.5485 56.605 34.6428 56.338 34.6862C56.071 34.7297 55.8422 34.708 55.6515 34.621C55.4608 34.5341 55.3082 34.3964 55.1938 34.208C55.1366 34.1138 55.0793 34.0196 55.0221 33.9254ZM12.9137 48.534C12.9709 48.5848 13.0281 48.6355 13.0853 48.6862C13.1997 48.7876 13.2824 48.8891 13.3332 48.9906C13.3841 49.092 13.4095 49.2587 13.4095 49.4906C13.4095 49.6065 13.4095 49.7224 13.4095 49.8384C13.3841 49.8384 13.3587 49.8384 13.3332 49.8384C13.2824 49.8384 13.2506 49.7297 13.2379 49.5123C13.2252 49.2949 13.168 49.0775 13.0662 48.8601C13.0154 48.7514 12.9646 48.6427 12.9137 48.534ZM8.29854 48.5775C8.33669 48.5993 8.37483 48.621 8.41297 48.6427C8.48925 48.6862 8.52739 48.737 8.52739 48.7949C8.52739 48.8239 8.52739 48.8528 8.52739 48.8819C8.48287 48.8674 8.43842 48.8528 8.3939 48.8384C8.30493 48.8094 8.26679 48.7587 8.27947 48.6862C8.28586 48.65 8.29216 48.6137 8.29854 48.5775ZM32.1752 48.7514C32.207 48.8022 32.2388 48.8528 32.2706 48.9036C32.3342 49.005 32.3723 49.1572 32.385 49.3601C32.3914 49.4615 32.3977 49.563 32.4041 49.6645C32.3786 49.6572 32.3533 49.65 32.3278 49.6427C32.277 49.6283 32.2388 49.4761 32.2134 49.1862C32.2007 49.0413 32.1879 48.8963 32.1752 48.7514ZM28.1704 49.2732C28.2085 49.2732 28.2467 49.2732 28.2848 49.2732C28.3611 49.2732 28.4437 49.3022 28.5327 49.3601C28.5772 49.3891 28.6217 49.4181 28.6662 49.4471C28.5963 49.4398 28.5264 49.4326 28.4565 49.4253C28.3166 49.4109 28.2339 49.3819 28.2085 49.3384C28.1958 49.3166 28.1831 49.2949 28.1704 49.2732ZM9.25208 49.3601C9.30291 49.3891 9.35382 49.4181 9.40464 49.4471C9.50638 49.505 9.5699 49.5702 9.59535 49.6427C9.60804 49.6789 9.62081 49.7152 9.63349 49.7514C9.58897 49.7224 9.54452 49.6935 9.5 49.6645C9.41103 49.6065 9.34743 49.5413 9.30929 49.4688C9.29022 49.4326 9.27115 49.3963 9.25208 49.3601Z" fill="white"/>
</svg>
