<svg width="90" height="64" viewBox="0 0 90 64" fill="none" xmlns="http://www.w3.org/2000/svg">
<path d="M79.8549 0.0990564C79.6612 0.191495 79.3796 0.200743 79.0099 0.12679C78.6402 0.0528252 78.3322 0.0250915 78.0857 0.0435888C77.8392 0.062074 77.2407 0.163761 76.2901 0.348661C75.8148 0.4411 75.3395 0.53355 74.8642 0.626C74.8729 0.653734 74.8818 0.681468 74.8906 0.709202C74.8993 0.736936 74.9082 0.76467 74.917 0.792404C74.829 0.783155 74.7409 0.773918 74.653 0.76467C74.5649 0.755421 74.4768 0.746185 74.3889 0.736936C74.3889 0.76467 74.3889 0.792404 74.3889 0.820138C74.3889 0.847871 74.3889 0.875605 74.3889 0.903339C75.0314 0.903339 75.6739 0.903339 76.3165 0.903339C77.6016 0.903339 78.3409 0.931073 78.5346 0.986541C78.7283 1.04201 78.9043 1.16219 79.0627 1.34708C79.2211 1.53198 79.3443 1.62442 79.4324 1.62442C79.5204 1.62442 79.582 1.59669 79.6172 1.54122C79.6525 1.48575 79.714 1.44878 79.8021 1.43028C79.846 1.42105 79.8901 1.4118 79.9341 1.40255C79.9429 1.495 79.9517 1.58745 79.9605 1.67989C79.9781 1.86479 80.0221 2.02194 80.0925 2.15138C80.1629 2.2808 80.3566 2.35475 80.6734 2.37325C80.9903 2.39173 81.1663 2.41947 81.2016 2.45645C81.2368 2.49343 81.2455 2.68757 81.228 3.03886C81.2104 3.39016 81.2368 3.63052 81.3072 3.75995C81.3776 3.88937 81.4832 3.99106 81.624 4.06503C81.7649 4.13898 81.8441 4.2869 81.8617 4.50877C81.8793 4.73064 81.9233 4.89704 81.9937 5.00798C82.0641 5.11891 82.2138 5.14665 82.4426 5.09118C82.6714 5.03571 82.9268 5.03571 83.2084 5.09118C83.49 5.14665 83.7278 5.16515 83.9213 5.14665C84.115 5.12816 84.247 5.06345 84.3174 4.95251C84.3879 4.84158 84.4143 4.51802 84.3966 3.98182C84.3791 3.44563 84.4935 3.16829 84.7399 3.1498C84.9864 3.13131 85.1976 3.08509 85.3736 3.01113C85.5498 2.93717 85.6818 2.84472 85.7697 2.73379C85.8578 2.62285 85.8842 2.43795 85.8489 2.17911C85.8138 1.92026 85.7258 1.73536 85.5849 1.62442C85.4441 1.51348 85.2769 1.43953 85.0832 1.40255C84.8896 1.36558 84.2206 1.13446 83.0764 0.709202C81.9321 0.283945 81.1576 0.0528253 80.7527 0.0158427C80.3477 -0.0211277 80.0486 0.00660612 79.8549 0.0990564ZM70.9825 1.51348C70.9561 1.64292 70.9297 1.77234 70.9033 1.90177C70.7448 1.80932 70.5864 1.71687 70.428 1.62442C70.1111 1.43953 69.8031 1.34708 69.5038 1.34708C69.2046 1.34708 68.8436 1.43953 68.4211 1.62442C67.9986 1.80932 67.717 1.90177 67.5761 1.90177C67.4354 1.90177 67.3121 1.93874 67.2065 2.01271C67.1537 2.04968 67.1008 2.08666 67.048 2.12364C67.0833 2.13288 67.1185 2.14213 67.1537 2.15138C67.1889 2.16061 67.2242 2.16986 67.2593 2.17911C67.2593 2.15138 67.2593 2.12364 67.2593 2.09591C67.2593 2.04044 67.3209 2.00346 67.4441 1.98497C67.5058 1.97572 67.5674 1.96648 67.629 1.95724C67.629 1.97572 67.629 1.99421 67.629 2.01271C67.629 2.03119 67.629 2.04968 67.629 2.06817C67.7346 2.06817 67.8402 2.06817 67.9458 2.06817C68.1571 2.06817 68.4036 2.11439 68.6852 2.20684C68.9669 2.29928 69.231 2.42872 69.4774 2.59512C69.7238 2.76152 69.9791 2.97414 70.2431 3.233C70.5072 3.49185 70.6305 3.6675 70.6128 3.75995C70.5952 3.85239 70.4896 3.93559 70.2959 4.00956C70.1024 4.08351 70.0407 4.30538 70.1111 4.67517C70.1816 5.04496 70.1639 5.28532 70.0583 5.39625C69.9527 5.5072 69.8383 5.56267 69.715 5.56267C69.5918 5.56267 69.4509 5.51644 69.2925 5.42399C69.1341 5.33155 69.0021 5.19288 68.8964 5.00798C68.7908 4.82309 68.7029 4.57348 68.6324 4.25916C68.562 3.94484 68.4388 3.70449 68.2627 3.53807C68.0867 3.37167 67.9283 3.26998 67.7874 3.233C67.6466 3.19603 67.5058 3.26998 67.3649 3.45487C67.2242 3.63977 67.1449 3.83391 67.1273 4.03729C67.1097 4.24067 67.1449 4.56424 67.2329 5.00798C67.3209 5.45172 67.3737 5.84924 67.3913 6.20055C67.409 6.55184 67.5761 7.01408 67.893 7.58726C68.2099 8.16042 68.386 8.55794 68.4211 8.77981C68.4388 8.89075 68.4564 9.00168 68.4739 9.11263C68.4036 9.10338 68.3332 9.09413 68.2627 9.08488C68.1219 9.0664 67.9722 9.00168 67.8138 8.89075C67.6554 8.77981 67.4266 8.57644 67.1273 8.2806C66.8281 7.98478 66.6344 7.76289 66.5463 7.61499C66.4584 7.46707 66.3703 7.20822 66.2823 6.83843C66.1942 6.46864 66.1414 6.0249 66.1238 5.5072C66.1063 4.98949 66.1855 4.38858 66.3615 3.70449C66.4495 3.36243 66.5376 3.02038 66.6255 2.67832C66.5112 2.66907 66.3967 2.65983 66.2823 2.65059C66.0535 2.6321 65.8686 2.70605 65.7278 2.87246C65.5869 3.03886 65.4637 3.13131 65.3581 3.1498C65.2525 3.16829 65.138 3.233 65.0148 3.34393C64.8916 3.45487 64.7155 3.47337 64.4867 3.3994C64.2579 3.32545 64.0818 3.36243 63.9586 3.51034C63.8354 3.65825 63.7034 3.72297 63.5625 3.70449C63.4921 3.69524 63.4216 3.68599 63.3512 3.67675C63.3424 3.78769 63.3337 3.89862 63.3248 4.00956C63.3073 4.23143 63.2809 4.35161 63.2456 4.3701C63.2104 4.38858 63.0608 4.3701 62.7967 4.31463C62.5327 4.25916 62.1982 4.30538 61.7933 4.4533C61.3884 4.60122 61.0628 4.67517 60.8163 4.67517C60.5698 4.67517 60.3497 4.63819 60.1562 4.56424C60.0593 4.52725 59.9625 4.49028 59.8657 4.4533C59.9272 4.55499 59.9889 4.65669 60.0505 4.75837C60.1737 4.96176 60.2441 5.11891 60.2618 5.22985C60.2794 5.34079 60.253 5.4887 60.1826 5.6736C60.1121 5.85849 60.0329 5.99716 59.9449 6.08961C59.8569 6.18206 59.6896 6.2098 59.4432 6.17281C59.1967 6.13583 58.9679 6.05263 58.7567 5.92321C58.5454 5.79378 58.3342 5.74756 58.1229 5.78454C57.9117 5.82151 57.7444 5.81227 57.6212 5.75681C57.4979 5.70134 57.4011 5.62737 57.3308 5.53493C57.2603 5.44248 57.1987 5.39625 57.1459 5.39625C57.0931 5.39625 56.9962 5.47022 56.8555 5.61814C56.7146 5.76604 56.5826 5.84001 56.4594 5.84001C56.3361 5.84001 56.2041 5.79378 56.0633 5.70134C55.9224 5.60889 55.7904 5.55342 55.6672 5.53493C55.5439 5.51644 55.4383 5.59964 55.3504 5.78454C55.2623 5.96943 55.1831 6.08961 55.1127 6.14508C55.0422 6.20055 54.9454 6.21903 54.8221 6.20055C54.6989 6.18206 54.4965 6.08961 54.2148 5.92321C54.074 5.84001 53.9332 5.75681 53.7923 5.6736C53.8011 5.72907 53.81 5.78454 53.8187 5.84001C53.8364 5.95094 53.9507 6.11735 54.162 6.33922C54.3732 6.56109 54.4877 6.74599 54.5053 6.8939C54.5229 7.04181 54.5053 7.15275 54.4524 7.2267C54.3996 7.30067 54.3204 7.34689 54.2148 7.36538C54.1092 7.38387 53.9684 7.36538 53.7923 7.30992C53.6163 7.25444 53.4051 7.12501 53.1586 6.92163C52.9122 6.71826 52.7361 6.60731 52.6305 6.58882C52.5776 6.57957 52.5248 6.57034 52.472 6.56109C52.5073 6.69052 52.5425 6.81994 52.5776 6.94936C52.6129 7.0788 52.6481 7.20822 52.6833 7.33765C52.6393 7.34689 52.5953 7.35613 52.5512 7.36538C52.4633 7.38387 52.2785 7.33765 51.9967 7.2267C51.856 7.17123 51.7151 7.11577 51.5742 7.0603C51.5655 7.1435 51.5567 7.2267 51.5478 7.30992C51.5303 7.47632 51.3894 7.63347 51.1253 7.78139C50.8613 7.92931 50.6589 7.97553 50.518 7.92006C50.3773 7.86459 50.254 7.90158 50.1483 8.031C50.0427 8.16042 49.9459 8.20665 49.8579 8.16967C49.7699 8.13268 49.6027 8.14193 49.3562 8.1974C49.1097 8.25287 48.8809 8.26212 48.6696 8.22513C48.4584 8.18815 48.3263 8.1974 48.2735 8.25287C48.2207 8.30834 48.2032 8.43776 48.2207 8.64114C48.2383 8.84453 48.2296 8.96471 48.1943 9.00168C48.1591 9.03867 48.0623 9.05715 47.9039 9.05715C47.7454 9.05715 47.5781 9.00168 47.4021 8.89075C47.2261 8.77981 46.9708 8.75208 46.6364 8.80755C46.302 8.86301 46.0115 8.86301 45.765 8.80755C45.5185 8.75208 45.1049 8.71511 44.5239 8.69661C43.943 8.67813 43.5997 8.73359 43.4941 8.86301C43.3885 8.99245 43.1508 9.02018 42.7812 8.94622C42.4115 8.87226 42.0682 8.92773 41.7513 9.11263C41.4345 9.29746 40.9328 9.35293 40.2462 9.27901C39.5597 9.20509 39.0755 9.24199 38.7939 9.38995C38.5122 9.5379 38.2394 9.75049 37.9753 10.0278C37.7113 10.3052 37.5176 10.4438 37.3943 10.4438C37.2711 10.4438 37.0687 10.3884 36.787 10.2774C36.5054 10.1665 36.2325 10.111 35.9684 10.111C35.7043 10.111 35.4227 10.2128 35.1234 10.4161C34.8242 10.6195 34.613 10.8137 34.4897 10.9985C34.3665 11.1835 34.1641 11.2481 33.8824 11.1926C33.6007 11.1372 33.2663 11.128 32.8789 11.1649C32.4917 11.2019 32.2101 11.3868 32.034 11.7196C31.858 12.0524 31.7171 12.2465 31.6115 12.302C31.5059 12.3575 31.0745 12.45 30.3176 12.5793C29.5607 12.7088 29.1997 12.903 29.235 13.1618C29.2702 13.4206 29.2614 13.5778 29.2086 13.6332C29.1558 13.6887 28.8653 13.7442 28.3372 13.7996C27.8091 13.8551 27.457 14.0031 27.281 14.2434C27.105 14.4838 26.9024 14.6225 26.6736 14.6594C26.4448 14.6964 26.2775 14.8444 26.1719 15.1031C26.0663 15.362 25.8638 15.5193 25.5646 15.5747C25.2653 15.6302 24.9748 15.7134 24.6932 15.8243C24.4115 15.9353 24.253 16.0185 24.2179 16.0739C24.1827 16.1294 24.2443 16.2218 24.4028 16.3513C24.5612 16.4807 24.6316 16.5916 24.614 16.6841C24.5963 16.7764 24.4907 16.8505 24.2971 16.9059C24.1034 16.9614 23.857 16.9799 23.5578 16.9614C23.2585 16.9428 22.9856 17.0169 22.7392 17.1833C22.4927 17.3497 22.2726 17.4513 22.0791 17.4884C21.8854 17.5253 21.7358 17.59 21.6302 17.6825C21.5245 17.7749 21.4276 17.8212 21.3397 17.8212C21.2516 17.8212 21.19 17.8673 21.1549 17.9598C21.1196 18.0522 21.146 18.1909 21.2341 18.3758C21.322 18.5607 21.3397 18.7087 21.2869 18.8196C21.2341 18.9305 21.014 19.0415 20.6267 19.1524C20.2394 19.2633 19.8609 19.328 19.4912 19.3465C19.1215 19.365 18.9191 19.4852 18.8839 19.7071C18.8487 19.9289 18.7695 20.1231 18.6462 20.2895C18.5847 20.3727 18.523 20.4559 18.4614 20.5391C18.5583 20.576 18.6551 20.613 18.7518 20.65C18.9455 20.7239 19.0511 20.7979 19.0687 20.8719C19.0775 20.9088 19.0864 20.9458 19.0951 20.9828C19.0072 20.992 18.9191 21.0013 18.8311 21.0106C18.6551 21.029 18.5406 21.066 18.4878 21.1215C18.4614 21.1492 18.435 21.177 18.4086 21.2047C18.6726 21.3248 18.9367 21.445 19.2007 21.5652C19.7288 21.8056 20.0546 21.9813 20.1777 22.0922C20.301 22.2031 20.345 22.3048 20.3098 22.3973C20.2746 22.4897 20.1777 22.5359 20.0193 22.5359C19.8609 22.5359 19.7288 22.5637 19.6232 22.6191C19.5176 22.6746 19.4648 22.7671 19.4648 22.8965C19.4648 23.0259 19.4912 23.1368 19.544 23.2293C19.5968 23.3218 19.7201 23.4234 19.9137 23.5343C20.1074 23.6453 20.4331 23.71 20.8908 23.7285C21.3484 23.7469 21.6477 23.821 21.7886 23.9504C21.9293 24.0797 21.9998 24.2184 21.9998 24.3664C21.9998 24.5143 21.8942 24.653 21.683 24.7824C21.4717 24.9118 21.322 25.0413 21.2341 25.1706C21.19 25.2354 21.146 25.3 21.102 25.3648C21.19 25.3463 21.278 25.3278 21.3661 25.3093C21.5421 25.2723 21.8237 25.2631 22.2111 25.2816C22.5983 25.3 23.0561 25.4387 23.5842 25.6976C24.1123 25.9565 24.5612 26.1043 24.9309 26.1413C25.3005 26.1784 25.6525 26.2523 25.9871 26.3632C26.3215 26.4741 26.7617 26.5573 27.3074 26.6128C27.853 26.6683 28.258 26.8069 28.522 27.0288C28.7861 27.2507 28.9798 27.3616 29.1029 27.3616C29.2261 27.3616 29.3054 27.3339 29.3406 27.2784C29.3758 27.223 29.4022 26.9549 29.4198 26.4741C29.4374 25.9934 29.5166 25.7346 29.6575 25.6976C29.7983 25.6606 30.1064 25.716 30.5817 25.864C31.057 26.0119 31.3563 26.0859 31.4795 26.0859C31.6026 26.0859 31.7523 25.9934 31.9283 25.8085C32.1045 25.6237 32.1924 25.485 32.1924 25.3925C32.1924 25.3 31.9988 25.1799 31.6115 25.032C31.2242 24.884 31.013 24.7917 30.9777 24.7546C30.9425 24.7176 30.9338 24.653 30.9513 24.5605C30.9689 24.468 31.1801 24.4496 31.5851 24.505C31.99 24.5605 32.4301 24.7176 32.9054 24.9765C33.3807 25.2354 33.9176 25.4018 34.5161 25.4757C35.1147 25.5496 35.8716 25.6237 36.787 25.6976C37.7024 25.7715 38.3978 25.7438 38.8731 25.6144C39.3484 25.485 39.7973 25.4295 40.2198 25.448C40.6423 25.4664 40.8887 25.448 40.9592 25.3925C40.9943 25.3648 41.0296 25.3371 41.0648 25.3093C41.0384 25.2723 41.012 25.2354 40.9856 25.1984C40.9328 25.1245 40.5895 25.0413 39.9558 24.9488C39.322 24.8563 38.9347 24.7824 38.7939 24.7269C38.6531 24.6714 38.5738 24.6067 38.5563 24.5328C38.5386 24.4589 38.5563 24.4034 38.6091 24.3664C38.6619 24.3293 38.8995 24.3016 39.322 24.2832C39.5333 24.2739 39.7445 24.2647 39.9558 24.2554C39.9469 24.1538 39.9381 24.052 39.9294 23.9504C39.9117 23.7469 39.9645 23.6083 40.0878 23.5343C40.211 23.4604 40.3078 23.3587 40.3783 23.2293C40.4134 23.1645 40.4486 23.0999 40.4839 23.0351C40.3342 22.9704 40.1846 22.9058 40.035 22.841C39.7357 22.7116 39.5948 22.6098 39.6125 22.5359C39.6301 22.462 39.9645 22.425 40.6159 22.425C41.2672 22.425 41.6193 22.4065 41.6721 22.3695C41.7249 22.3325 41.7513 22.2863 41.7513 22.2309C41.7513 22.1754 41.7249 22.1292 41.6721 22.0922C41.6193 22.0552 41.3992 21.9905 41.012 21.8981C40.8183 21.8519 40.6246 21.8056 40.4311 21.7594C40.5278 21.6855 40.6246 21.6114 40.7215 21.5375C40.9151 21.3896 41.1968 21.2693 41.5665 21.177C41.9362 21.0845 42.209 20.992 42.3851 20.8996C42.5611 20.8071 42.6403 20.7332 42.6227 20.6778C42.605 20.6223 42.4643 20.5575 42.2002 20.4836C41.9362 20.4096 41.7601 20.197 41.6721 19.8457C41.5841 19.4944 41.6457 19.2633 41.857 19.1524C42.0682 19.0415 42.3851 18.986 42.8076 18.986C43.0188 18.986 43.2301 18.986 43.4413 18.986C43.4061 18.9305 43.3709 18.8751 43.3357 18.8196C43.2652 18.7087 43.01 18.5791 42.5699 18.4313C42.1297 18.2834 41.8217 18.154 41.6457 18.043C41.4696 17.9321 41.3728 17.8489 41.3553 17.7934C41.3464 17.7657 41.3376 17.738 41.3289 17.7102C41.364 17.7009 41.3992 17.6917 41.4345 17.6825C41.5049 17.6639 41.7161 17.7102 42.0682 17.8212C42.4202 17.9321 42.6579 17.9876 42.7812 17.9876C42.9044 17.9876 42.9924 17.9044 43.0452 17.738C43.098 17.5716 43.2037 17.4791 43.3621 17.4606C43.5205 17.4421 43.6878 17.4513 43.8638 17.4884C44.0398 17.5253 44.1367 17.5993 44.1543 17.7102C44.1718 17.8212 44.2071 17.8766 44.2599 17.8766C44.3127 17.8766 44.3567 17.8581 44.3919 17.8212C44.4272 17.7841 44.4447 17.6732 44.4447 17.4884C44.4447 17.3034 44.4007 17.1556 44.3127 17.0446C44.2687 16.9892 44.2246 16.9337 44.1807 16.8782C44.3215 16.8412 44.4623 16.8042 44.6032 16.7673C44.744 16.7303 44.8848 16.6932 45.0256 16.6563C45.0081 16.6193 44.9904 16.5823 44.9728 16.5454C44.9376 16.4714 44.8496 16.4067 44.7088 16.3513C44.5679 16.2958 44.4711 16.2218 44.4183 16.1294C44.3919 16.0831 44.3655 16.0369 44.3391 15.9907C44.4359 15.9444 44.5328 15.8982 44.6296 15.8521C44.8232 15.7596 45.1577 15.7226 45.633 15.7411C45.8706 15.7503 46.1083 15.7596 46.3459 15.7689C46.3371 15.7226 46.3284 15.6764 46.3195 15.6302C46.302 15.5377 46.1258 15.2695 45.7914 14.8258C45.457 14.382 45.2809 14.114 45.2633 14.0215C45.2457 13.9291 45.4834 13.7905 45.9762 13.6055C46.4691 13.4206 46.7684 13.3282 46.874 13.3282C46.9797 13.3282 47.1381 13.3836 47.3493 13.4946C47.5606 13.6055 47.7454 13.661 47.9039 13.661C48.0623 13.661 48.2207 13.6055 48.3792 13.4946C48.5376 13.3836 48.7224 13.3282 48.9337 13.3282C49.1449 13.3282 49.2946 13.3745 49.3826 13.4668C49.4706 13.5593 49.5059 13.7164 49.4882 13.9383C49.4706 14.1602 49.6994 14.4006 50.1747 14.6594C50.65 14.9183 50.9229 15.0847 50.9933 15.1586C51.0638 15.2326 51.0902 15.2973 51.0725 15.3527C51.055 15.4082 50.9582 15.4359 50.7821 15.4359C50.6061 15.4359 50.386 15.3898 50.1219 15.2973C49.8579 15.2049 49.541 15.1309 49.1713 15.0754C48.8016 15.0199 48.4759 14.9367 48.1943 14.8258C47.9127 14.7149 47.7279 14.6594 47.6398 14.6594C47.5517 14.6594 47.4989 14.7057 47.4814 14.7981C47.4638 14.8905 47.587 15.0199 47.851 15.1863C48.1151 15.3527 48.564 15.5193 49.1977 15.6857C49.8315 15.8521 50.1572 16.0369 50.1747 16.2403C50.1924 16.4436 50.254 16.5916 50.3596 16.6841C50.4652 16.7764 50.5268 16.8689 50.5444 16.9614C50.5621 17.0538 50.5533 17.1185 50.518 17.1556C50.4829 17.1925 50.3244 17.211 50.0427 17.211C49.902 17.211 49.7611 17.211 49.6202 17.211C49.6202 17.2388 49.6202 17.2665 49.6202 17.2942C49.6202 17.3497 49.6907 17.4236 49.8315 17.5161C49.902 17.5623 49.9723 17.6085 50.0427 17.6548C49.902 17.6362 49.7611 17.6177 49.6202 17.5993C49.3386 17.5623 49.1713 17.553 49.1185 17.5716C49.0657 17.59 49.0393 17.6455 49.0393 17.738C49.0393 17.8303 49.1185 17.9228 49.2769 18.0153C49.4354 18.1077 49.6819 18.1724 50.0163 18.2094C50.1836 18.2279 50.3509 18.2463 50.518 18.2649C50.4829 18.3018 50.4476 18.3388 50.4124 18.3758C50.342 18.4498 50.3068 18.5237 50.3068 18.5977C50.3068 18.6716 50.3684 18.7456 50.4916 18.8196C50.5533 18.8565 50.6149 18.8935 50.6764 18.9305C50.6061 18.9583 50.5357 18.986 50.4652 19.0137C50.3244 19.0692 50.2628 19.1338 50.2804 19.2079C50.298 19.2818 50.5797 19.3002 51.1253 19.2633C51.6711 19.2263 51.9616 19.2448 51.9967 19.3188C52.0144 19.3557 52.032 19.3927 52.0495 19.4297C51.9439 19.4852 51.8383 19.5407 51.7327 19.5961C51.5214 19.7071 51.0902 19.7625 50.4388 19.7625C49.7875 19.7625 49.4178 19.7903 49.3298 19.8457C49.2858 19.8735 49.2418 19.9012 49.1977 19.9289C49.2594 19.9567 49.321 19.9844 49.3826 20.0121C49.5059 20.0676 49.7522 20.1138 50.1219 20.1508C50.4916 20.1877 50.7557 20.2895 50.9141 20.4559C51.0725 20.6223 51.4422 20.7055 52.0231 20.7055C52.3136 20.7055 52.604 20.7055 52.8945 20.7055C52.8505 20.7701 52.8066 20.8349 52.7625 20.8996C52.7185 20.9643 52.6745 21.029 52.6305 21.0938C52.6745 21.1029 52.7185 21.1122 52.7625 21.1215C52.8505 21.1399 52.9122 21.1861 52.9473 21.2602C52.965 21.2971 52.9826 21.3341 53.0001 21.3711C52.9209 21.408 52.8417 21.445 52.7625 21.482C52.6041 21.556 52.1552 21.63 51.4158 21.7039C50.6764 21.7778 50.298 21.8426 50.2804 21.8981C50.2628 21.9535 50.3508 22.0274 50.5444 22.1199C50.7381 22.2124 50.8349 22.277 50.8349 22.3141C50.8349 22.3511 50.7381 22.4065 50.5444 22.4805C50.3508 22.5544 50.2452 22.6561 50.2276 22.7855C50.21 22.9149 50.1747 23.0074 50.1219 23.0629C50.0691 23.1183 49.9195 23.2108 49.673 23.3402C49.4267 23.4696 49.2682 23.6453 49.1977 23.8672C49.1274 24.089 49.0921 24.3664 49.0921 24.6992C49.0921 25.032 49.1274 25.3186 49.1977 25.5589C49.2682 25.7992 49.3033 26.0119 49.3033 26.1968C49.3033 26.3817 49.2594 26.6035 49.1713 26.8624C49.0833 27.1213 48.8984 27.491 48.6168 27.9718C48.3352 28.4525 48.1943 28.7299 48.1943 28.8038C48.1943 28.8778 48.2735 28.924 48.432 28.9425C48.5904 28.961 48.6785 29.0165 48.696 29.1089C48.7136 29.2013 48.6785 29.303 48.5904 29.4139C48.5023 29.5249 48.3352 29.6635 48.0887 29.8299C47.8422 29.9963 47.6574 30.3107 47.5342 30.7729C47.411 31.2352 47.2173 31.6881 46.9533 32.1319C46.6892 32.5756 46.3899 32.9639 46.0555 33.2967C45.721 33.6296 45.5009 33.8145 45.3953 33.8515C45.2897 33.8884 45.1841 33.9993 45.0785 34.1843C44.9728 34.3691 44.8936 34.4616 44.8408 34.4616C44.788 34.4616 44.744 34.3784 44.7088 34.212C44.6735 34.0456 44.5856 33.9347 44.4447 33.8792C44.3039 33.8237 44.2335 33.7313 44.2335 33.6019C44.2335 33.4724 44.3039 33.2135 44.4447 32.8252C44.5856 32.4369 44.656 32.1873 44.656 32.0764C44.656 32.0209 44.656 31.9655 44.656 31.91C44.6296 31.91 44.6032 31.91 44.5767 31.91C44.5239 31.91 44.3655 32.0395 44.1014 32.2983C43.8374 32.5571 43.5822 32.8622 43.3357 33.2135C43.0892 33.5649 42.9132 33.8606 42.8076 34.1011C42.702 34.3414 42.6403 34.6927 42.6227 35.155C42.605 35.6172 42.6755 36.0054 42.834 36.3198C42.9924 36.634 43.0539 36.9946 43.0188 37.4014C42.9836 37.8081 43.0275 38.0577 43.1508 38.1502C43.274 38.2426 43.3357 38.3351 43.3357 38.4276C43.3357 38.5199 43.2829 38.6124 43.1772 38.7049C43.0716 38.7973 42.9572 38.8158 42.834 38.7604C42.7107 38.7049 42.6051 38.3444 42.5171 37.6788C42.4291 37.0131 42.3587 36.6526 42.3059 36.5971C42.2531 36.5417 42.1474 36.5231 41.989 36.5417C41.8306 36.5601 41.6897 36.4399 41.5665 36.1811C41.4432 35.9222 41.3289 35.7651 41.2232 35.7096C41.1176 35.6542 41.0296 35.6542 40.9592 35.7096C40.8887 35.7651 40.8623 35.9684 40.88 36.3198C40.8975 36.671 40.88 37.0223 40.8272 37.3737C40.7743 37.7249 40.7215 37.9468 40.6687 38.0393C40.6159 38.1317 40.5454 38.178 40.4575 38.178C40.3694 38.178 40.2902 38.2426 40.2198 38.3721C40.1846 38.4367 40.1493 38.5015 40.1142 38.5662C40.079 38.5385 40.0437 38.5108 40.0086 38.483C39.9381 38.4276 39.8941 38.1964 39.8765 37.7897C39.8589 37.3828 39.8237 37.1148 39.7709 36.9854C39.7181 36.8559 39.6565 36.7635 39.5861 36.7081C39.5156 36.6526 39.4364 36.6433 39.3484 36.6803C39.2604 36.7172 39.1372 36.9761 38.9788 37.4569C38.8203 37.9375 38.7762 38.3721 38.8467 38.7604C38.9171 39.1487 38.9524 39.4629 38.9524 39.7033C38.9524 39.9436 38.9347 40.0823 38.8995 40.1193C38.8643 40.1564 38.8115 40.1655 38.7411 40.1471C38.6706 40.1286 38.6002 40.0084 38.5299 39.7865C38.4594 39.5647 38.3362 39.3705 38.1602 39.2041C37.9841 39.0377 37.9049 38.7788 37.9225 38.4276C37.9401 38.0762 37.9137 37.8452 37.8433 37.7342C37.7728 37.6233 37.7553 37.5215 37.7905 37.4291C37.8256 37.3367 37.8345 37.235 37.8169 37.1241C37.8081 37.0686 37.7992 37.0131 37.7905 36.9577C37.72 36.9854 37.6496 37.0131 37.5791 37.0409C37.4384 37.0963 37.3151 37.2905 37.2095 37.6233C37.1038 37.9561 37.0159 38.1502 36.9454 38.2057C36.875 38.2612 36.787 38.2889 36.6814 38.2889C36.5757 38.2889 36.435 38.1964 36.2589 38.0116C36.0829 37.8266 35.9684 37.5956 35.9156 37.3182C35.8892 37.1795 35.8628 37.0409 35.8364 36.9022C35.8012 36.9114 35.766 36.9207 35.7308 36.9299C35.6604 36.9484 35.5723 37.1148 35.4667 37.4291C35.3611 37.7434 35.2731 37.9191 35.2026 37.9561C35.1675 37.9745 35.1323 37.993 35.097 38.0116C35.0883 37.9375 35.0795 37.8636 35.0706 37.7897C35.0531 37.6417 35.0706 37.466 35.1234 37.2627C35.1762 37.0593 35.1851 36.8836 35.1498 36.7358C35.1323 36.6618 35.1147 36.5878 35.097 36.5139C35.0619 36.5324 35.0266 36.5508 34.9914 36.5694C34.921 36.6063 34.8418 36.7358 34.7537 36.9577C34.6658 37.1795 34.613 37.5031 34.5953 37.9284C34.5777 38.3535 34.4369 38.6863 34.1728 38.9268C33.9088 39.1671 33.7416 39.4537 33.6711 39.7865C33.636 39.9529 33.6007 40.1193 33.5655 40.2857C33.5304 40.258 33.4951 40.2303 33.4599 40.2025C33.3895 40.1471 33.3103 39.8975 33.2222 39.4537C33.1343 39.01 32.9406 38.7604 32.6413 38.7049C32.3421 38.6494 32.1309 38.7141 32.0076 38.899C31.8844 39.0839 31.7875 39.1764 31.7171 39.1764C31.6467 39.1764 31.5939 39.1301 31.5587 39.0377C31.5234 38.9452 31.5147 38.8343 31.5323 38.7049C31.5498 38.5754 31.5411 38.4922 31.5059 38.4553C31.4706 38.4183 31.3122 38.4367 31.0306 38.5108C30.7489 38.5847 30.3352 38.7604 29.7895 39.0377C29.2438 39.3151 28.9181 39.4537 28.8125 39.4537C28.7597 39.4537 28.7069 39.4537 28.6541 39.4537C28.7157 39.3428 28.7772 39.2318 28.8389 39.1209C28.9621 38.899 29.0237 38.7326 29.0237 38.6217C29.0237 38.5662 29.0237 38.5108 29.0237 38.4553C28.9709 38.4553 28.9181 38.4553 28.8653 38.4553C28.7597 38.4553 28.6188 38.5108 28.4428 38.6217C28.2668 38.7326 28.1084 38.8713 27.9675 39.0377C27.8266 39.2041 27.6418 39.278 27.413 39.2596C27.1842 39.241 26.9201 39.2965 26.6208 39.426C26.3215 39.5554 25.9694 39.6201 25.5646 39.6201C25.1597 39.6201 24.9045 39.6016 24.7988 39.5647C24.6932 39.5276 24.5876 39.4537 24.482 39.3428C24.3763 39.2318 24.2794 39.1764 24.1915 39.1764C24.1034 39.1764 23.9098 39.2687 23.6106 39.4537C23.4609 39.5461 23.3113 39.6386 23.1617 39.7311C23.144 39.5184 23.1264 39.3058 23.1089 39.0932C23.0736 38.6679 23.0208 38.4183 22.9504 38.3444C22.8799 38.2703 22.7743 38.2149 22.6336 38.178C22.4927 38.1409 22.4223 38.0948 22.4223 38.0393C22.4223 37.9838 22.5544 37.8452 22.8184 37.6233C23.0825 37.4014 23.276 37.198 23.3993 37.0131C23.4609 36.9207 23.5225 36.8282 23.5842 36.7358C23.5489 36.7265 23.5137 36.7172 23.4786 36.7081C23.4081 36.6895 23.2321 36.7913 22.9504 37.0131C22.6687 37.235 22.4575 37.3644 22.3167 37.4014C22.2462 37.4199 22.1758 37.4383 22.1055 37.4569C22.1055 37.4383 22.1055 37.4199 22.1055 37.4014C22.1055 37.3644 22.1583 37.3182 22.2639 37.2627C22.3695 37.2073 22.4223 37.1518 22.4223 37.0963C22.4223 37.0409 22.3695 36.9854 22.2639 36.9299C22.1583 36.8745 21.9646 36.8282 21.683 36.7913C21.4012 36.7542 21.2428 36.6711 21.2077 36.5417C21.1724 36.4122 21.2428 36.255 21.4189 36.0702C21.5949 35.8852 21.8326 35.7743 22.1319 35.7374C22.4311 35.7004 22.6072 35.6079 22.66 35.46C22.7128 35.3121 23.0208 35.1827 23.5842 35.0718C24.1474 34.9608 24.4556 34.8776 24.5084 34.8222C24.5612 34.7667 24.5787 34.7019 24.5612 34.628C24.5435 34.554 24.3235 34.4523 23.901 34.323C23.4786 34.1934 22.7215 34.1011 21.6302 34.0456C20.5387 33.9901 19.8873 33.9347 19.676 33.8792C19.4648 33.8237 19.3416 33.7405 19.3064 33.6296C19.2712 33.5185 19.3504 33.3892 19.544 33.2412C19.7377 33.0934 19.8609 33.0193 19.9137 33.0193C19.9665 33.0193 20.0546 33.1025 20.1777 33.2689C20.301 33.4353 20.5034 33.4908 20.7852 33.4353C21.0668 33.3799 21.3573 33.2505 21.6566 33.0471C21.9558 32.8438 22.1055 32.7236 22.1055 32.6865C22.1055 32.6496 22.035 32.6033 21.8942 32.5479C21.7533 32.4924 21.5597 32.4462 21.3133 32.4092C21.0668 32.3723 20.5299 32.3537 19.7024 32.3537C18.8751 32.3537 18.1533 32.3907 17.5372 32.4647C16.9211 32.5387 16.5426 32.5387 16.4017 32.4647C16.261 32.3907 16.1377 32.3537 16.0321 32.3537C15.9264 32.3537 15.8297 32.4 15.7416 32.4924C15.6537 32.5849 15.548 32.6311 15.4247 32.6311C15.3015 32.6311 15.1695 32.5664 15.0286 32.4369C14.8879 32.3075 14.8351 32.2059 14.8702 32.1319C14.9055 32.0579 15.2135 31.9563 15.7944 31.8268C16.3753 31.6974 16.7803 31.5865 17.0091 31.494C17.238 31.4016 17.3876 31.2537 17.458 31.0502C17.5285 30.8469 17.5988 30.7267 17.6692 30.6897C17.7397 30.6528 17.8981 30.6251 18.1445 30.6065C18.391 30.588 18.5934 30.5973 18.7518 30.6342C18.8311 30.6528 18.9103 30.6712 18.9895 30.6897C18.9808 30.7267 18.9719 30.7637 18.9631 30.8006C18.9455 30.8747 18.7959 30.9856 18.5142 31.1334C18.2326 31.2814 18.1005 31.4016 18.1181 31.494C18.1358 31.5865 18.3558 31.6326 18.7782 31.6326C19.2007 31.6326 19.5176 31.5865 19.7288 31.494C19.9401 31.4016 20.0985 31.2907 20.2041 31.1612C20.3098 31.0318 20.3978 30.8747 20.4683 30.6897C20.5387 30.5048 20.7939 30.32 21.2341 30.135C21.6741 29.9502 21.8942 29.8299 21.8942 29.7745C21.8942 29.719 21.8678 29.6728 21.815 29.6358C21.7622 29.5989 21.6389 29.5803 21.4453 29.5803C21.2516 29.5803 20.7235 29.6635 19.8609 29.8299C18.9983 29.9963 18.5055 30.0704 18.3822 30.0518C18.259 30.0334 18.0653 29.9502 17.8012 29.8022C17.5372 29.6544 17.2027 29.5712 16.7978 29.5526C16.393 29.5342 16.1025 29.4602 15.9264 29.3307C15.7504 29.2013 15.592 28.9517 15.4511 28.5819C15.3104 28.2122 15.2399 27.8424 15.2399 27.4726C15.2399 27.1027 15.6184 26.1598 16.3753 24.6437C17.1324 23.1276 17.5108 22.3325 17.5108 22.2586C17.5108 22.2216 17.5108 22.1847 17.5108 22.1477C17.4844 22.1477 17.458 22.1477 17.4316 22.1477C17.3787 22.1477 17.2644 22.2124 17.0883 22.3418C16.9123 22.4712 16.6571 22.7208 16.3225 23.0906C15.9881 23.4604 15.592 23.9874 15.1343 24.6714C14.6766 25.3555 14.4037 25.7346 14.3157 25.8085C14.2276 25.8824 13.8492 26.4557 13.1803 27.528C12.5113 28.6005 11.9303 29.488 11.4375 30.1905C10.9446 30.8931 10.5925 31.4293 10.3813 31.799C10.17 32.1689 10.0204 32.5664 9.93236 32.9916C9.8443 33.4169 9.6683 33.8792 9.40425 34.3784C9.14019 34.8776 8.90254 35.2289 8.6913 35.4323C8.48005 35.6356 8.12795 35.8575 7.63505 36.0979C7.14214 36.3382 6.75485 36.4954 6.47319 36.5694C6.33236 36.6063 6.19152 36.6433 6.0507 36.6803C6.10351 36.782 6.15632 36.8836 6.20913 36.9854C6.31476 37.1887 6.42919 37.3274 6.55241 37.4014C6.61403 37.4383 6.67563 37.4753 6.73725 37.5123C6.57881 37.6602 6.42038 37.8081 6.26195 37.9561C5.94508 38.2519 5.56659 38.5199 5.12649 38.7604C4.6864 39.0007 4.33433 39.2965 4.07027 39.6479C3.8062 39.9991 3.39252 40.3782 2.82919 40.7849C2.26587 41.1917 1.97541 41.4876 1.9578 41.6724C1.9402 41.8573 1.79936 41.9775 1.53531 42.033C1.27125 42.0884 1.06881 42.2087 0.927979 42.3935C0.787145 42.5784 0.725528 42.9482 0.74314 43.5029C0.760739 44.0575 0.707928 44.3996 0.584706 44.529C0.461472 44.6584 0.408661 44.8156 0.426261 45.0005C0.443872 45.1854 0.408661 45.3333 0.320638 45.4442C0.232627 45.5552 0.18861 45.6661 0.18861 45.7771C0.18861 45.888 0.276633 46.0175 0.452666 46.1653C0.628711 46.3133 0.716734 46.4149 0.716734 46.4704C0.716734 46.5259 0.646311 46.6831 0.505489 46.9419C0.364655 47.2008 0.241421 47.5151 0.135799 47.8848C0.0301766 48.2546 -0.0138289 48.5875 0.00377103 48.8832C0.0213824 49.1791 0.0829879 49.4195 0.18861 49.6043C0.294233 49.7893 0.461472 49.8909 0.690328 49.9094C0.919173 49.928 1.11282 49.9002 1.27125 49.8262C1.42969 49.7523 1.60572 49.7061 1.79936 49.6875C1.99301 49.6691 2.17785 49.5489 2.35389 49.327C2.52993 49.1051 2.74117 48.8925 2.98763 48.6891C3.23408 48.4858 3.87662 48.079 4.91525 47.4688C5.95387 46.8587 6.5172 46.5444 6.60522 46.5259C6.69324 46.5074 6.77246 46.5629 6.84287 46.6923C6.91329 46.8218 7.0013 46.8864 7.10693 46.8864C7.21255 46.8864 7.4326 46.7848 7.76708 46.5813C8.10154 46.378 8.39199 46.2671 8.63848 46.2485C8.88498 46.2301 9.03457 46.2394 9.08738 46.2763C9.14019 46.3133 9.1666 46.378 9.1666 46.4704C9.1666 46.5629 9.13135 46.6554 9.06098 46.7477C8.9906 46.8402 8.61208 47.136 7.92551 47.6352C7.23895 48.1344 6.78125 48.5413 6.55241 48.8555C6.32356 49.1699 6.20913 49.4288 6.20913 49.6321C6.20913 49.8355 6.28835 50.0112 6.44678 50.159C6.60522 50.307 6.77246 50.3809 6.94849 50.3809C7.12454 50.3809 7.29177 50.344 7.45021 50.2699C7.60864 50.196 7.73187 50.159 7.81989 50.159C7.9079 50.159 7.98713 50.1867 8.05754 50.2422C8.12795 50.2977 8.15434 50.3717 8.13676 50.4641C8.11916 50.5566 8.05754 50.6582 7.95192 50.7691C7.84629 50.8801 7.59103 51.0928 7.18614 51.407C6.78125 51.7214 6.57881 51.9525 6.57881 52.1005C6.57881 52.2483 6.64043 52.4056 6.76365 52.572C6.82527 52.6552 6.88689 52.7384 6.94849 52.8216C6.91329 52.8493 6.87808 52.877 6.84287 52.9048C6.77246 52.9602 6.60522 52.9971 6.34116 53.0157C6.07711 53.0342 5.84825 53.1174 5.65461 53.2653C5.46097 53.4132 5.22332 53.5241 4.94165 53.5981C4.80082 53.635 4.66 53.672 4.51916 53.7091C4.53676 53.746 4.55438 53.783 4.57198 53.82C4.60719 53.8939 4.99447 53.9216 5.73383 53.9032C6.47319 53.8846 6.89568 53.9032 7.0013 53.9587C7.10693 54.0141 7.15974 54.0881 7.15974 54.1805C7.15974 54.2729 7.11573 54.3561 7.02771 54.4301C6.9397 54.5041 6.89568 54.5873 6.89568 54.6797C6.89568 54.7721 6.93089 54.883 7.0013 55.0126C7.07173 55.1419 7.09813 55.2436 7.08052 55.3176C7.06292 55.3915 6.99251 55.4932 6.86928 55.6227C6.74605 55.7521 6.5436 55.9 6.26195 56.0664C5.98028 56.2328 5.68102 56.3622 5.36414 56.4547C5.04728 56.5471 4.92405 56.7505 4.99447 57.0649C5.06488 57.3791 5.02087 57.5641 4.86244 57.6195C4.704 57.675 4.62479 57.7952 4.62479 57.9801C4.62479 58.1649 4.58078 58.3036 4.49276 58.3961C4.40474 58.4886 4.47515 58.8121 4.704 59.3668C4.93285 59.9215 5.14411 60.245 5.33774 60.3375C5.53138 60.4299 5.6282 60.55 5.6282 60.698C5.6282 60.846 5.68982 60.9569 5.81305 61.0308C5.93627 61.1047 6.0419 61.2804 6.12992 61.5578C6.21793 61.8351 6.35876 62.0292 6.55241 62.1402C6.74605 62.2511 7.40619 62.3805 8.53286 62.5284C9.65946 62.6764 10.478 62.8428 10.9886 63.0276C11.4991 63.2125 11.8511 63.2865 12.0448 63.2495C12.2385 63.2125 12.3705 63.2311 12.4409 63.305C12.5113 63.3789 12.6874 63.4714 12.969 63.5823C13.2506 63.6933 13.4971 63.7487 13.7084 63.7487C13.9196 63.7487 14.0692 63.721 14.1573 63.6655C14.2453 63.6101 14.2804 63.5084 14.2629 63.3605C14.2453 63.2125 14.1573 63.0647 13.9988 62.9167C13.9196 62.8428 13.8404 62.7688 13.7612 62.6948C13.8404 62.6948 13.9196 62.6948 13.9988 62.6948C14.1573 62.6948 14.2893 62.7319 14.3949 62.8058C14.5005 62.8797 14.5797 62.9906 14.6326 63.1386C14.6854 63.2865 14.7031 63.4252 14.6854 63.5546C14.6766 63.6193 14.6678 63.684 14.659 63.7487C14.791 63.7394 14.923 63.7303 15.055 63.721C15.3191 63.7025 15.6008 63.7394 15.9 63.8319C16.1993 63.9244 16.437 63.9614 16.613 63.9429C16.7891 63.9244 16.9034 63.8967 16.9563 63.8597C17.0091 63.8228 17.0443 63.7025 17.0619 63.4991C17.0796 63.2957 17.1147 63.194 17.1675 63.194C17.2203 63.194 17.2644 63.2218 17.2995 63.2773C17.3348 63.3327 17.3348 63.4437 17.2995 63.6101C17.282 63.6933 17.2644 63.7765 17.2467 63.8597C17.4492 63.8689 17.6516 63.8782 17.854 63.8874C18.259 63.906 18.5055 63.8967 18.5934 63.8597C18.6815 63.8228 18.7695 63.6748 18.8575 63.4159C18.9015 63.2865 18.9455 63.157 18.9895 63.0276C19.1039 63.1479 19.2184 63.268 19.3328 63.3882C19.4472 63.5084 19.5617 63.6285 19.676 63.7487C19.6849 63.684 19.6937 63.6193 19.7024 63.5546C19.7201 63.4252 19.7024 63.2773 19.6496 63.1108C19.5968 62.9444 19.544 62.8428 19.4912 62.8058C19.4384 62.7688 19.3856 62.6764 19.3328 62.5284C19.2799 62.3805 19.1392 62.1863 18.9103 61.946C18.6815 61.7057 18.3998 61.493 18.0653 61.3081C17.7309 61.1233 17.2027 60.9661 16.481 60.8367C15.7593 60.7073 15.3015 60.5686 15.1079 60.4207C14.9143 60.2727 14.8174 60.1249 14.8174 59.9769C14.8174 59.829 14.923 59.6164 15.1343 59.339C15.3455 59.0617 15.5039 58.8121 15.6096 58.5902C15.7152 58.3684 15.8561 57.9523 16.0321 57.3422C16.2082 56.7321 16.4194 56.1774 16.6658 55.6782C16.9123 55.179 17.1235 54.8646 17.2995 54.7352C17.4756 54.6057 17.6956 54.5502 17.9597 54.5688C18.2237 54.5873 18.523 54.4209 18.8575 54.0696C19.192 53.7182 19.4648 53.5241 19.676 53.4872C19.8873 53.4502 20.0457 53.3485 20.1513 53.1821C20.257 53.0157 20.3539 52.6829 20.4419 52.1837C20.5299 51.6844 20.6619 51.3424 20.838 51.1574C21.014 50.9726 21.1988 50.8801 21.3925 50.8801C21.5861 50.8801 21.7622 50.9726 21.9206 51.1574C22.0791 51.3424 22.1758 51.4995 22.2111 51.6289C22.2462 51.7584 22.3079 51.8232 22.3959 51.8232C22.4839 51.8232 22.5719 51.7491 22.66 51.6012C22.7479 51.4533 22.8448 51.102 22.9504 50.5473C23.0561 49.9926 23.1704 49.5952 23.2937 49.3547C23.4169 49.1144 23.5665 48.9387 23.7426 48.8278C23.9186 48.7168 24.1299 48.6336 24.3763 48.5782C24.6227 48.5227 24.7724 48.4488 24.8252 48.3563C24.8781 48.2639 24.922 48.0512 24.9573 47.7184C24.9924 47.3856 25.0365 47.173 25.0893 47.0805C25.1421 46.9882 25.2213 46.9141 25.3269 46.8587C25.4326 46.8032 25.5205 46.794 25.591 46.8309C25.6261 46.8495 25.6614 46.868 25.6966 46.8864C25.7318 46.8125 25.767 46.7386 25.8022 46.6645C25.8726 46.5167 25.9694 46.4149 26.0927 46.3595C26.2159 46.304 26.3215 46.3226 26.4096 46.4149C26.4976 46.5074 26.5769 46.6831 26.6472 46.9419C26.6825 47.0714 26.7176 47.2008 26.7528 47.3301C26.7968 47.3024 26.8409 47.2747 26.8849 47.2469C26.9729 47.1915 27.0433 47.0805 27.0961 46.9141C27.1489 46.7477 27.2193 46.6276 27.3074 46.5536C27.3954 46.4797 27.4922 46.4704 27.5978 46.5259C27.7035 46.5813 27.8443 46.5813 28.0203 46.5259C28.1963 46.4704 28.3283 46.4519 28.4164 46.4704C28.5045 46.489 28.6805 46.6554 28.9445 46.9696C29.2086 47.284 29.4726 47.4596 29.7367 47.4965C30.0007 47.5336 30.1767 47.5798 30.2648 47.6352C30.3528 47.6907 30.4321 47.9311 30.5024 48.3563C30.5728 48.7816 30.7401 48.9942 31.0042 48.9942C31.1362 48.9942 31.2682 48.9942 31.4002 48.9942C31.3738 49.0496 31.3474 49.1051 31.321 49.1606C31.2682 49.2715 31.2418 49.3917 31.2418 49.5211C31.2418 49.6506 31.2946 49.8262 31.4002 50.0481C31.453 50.159 31.5059 50.2699 31.5587 50.3809C31.4266 50.4272 31.2946 50.4734 31.1626 50.5195C30.8985 50.612 30.7225 50.7137 30.6345 50.8246C30.5464 50.9356 30.52 51.0651 30.5553 51.2129C30.5905 51.3608 30.7048 51.444 30.8985 51.4625C30.9953 51.4718 31.0922 51.4811 31.189 51.4902C31.1802 51.5365 31.1714 51.5827 31.1626 51.6289C31.145 51.7214 31.013 52.045 30.7665 52.5997C30.52 53.1544 30.2736 53.5888 30.0271 53.9032C29.7807 54.2174 29.6135 54.5688 29.5254 54.9571C29.4374 55.3454 29.3406 55.6227 29.235 55.7891C29.1294 55.9555 29.0765 56.1311 29.0765 56.316C29.0765 56.5009 29.1294 56.695 29.235 56.8985C29.3406 57.1018 29.3758 57.3514 29.3406 57.6473C29.3054 57.9431 29.3318 58.2297 29.4198 58.507C29.5079 58.7844 29.5518 59.071 29.5518 59.3668C29.5518 59.6626 29.5958 59.8937 29.6839 60.0601C29.7719 60.2265 30.1239 60.4854 30.7401 60.8367C31.3563 61.1879 31.9724 61.5023 32.5885 61.7796C33.2047 62.057 33.7592 62.2418 34.252 62.3343C34.745 62.4268 35.2907 62.473 35.8892 62.473C36.4878 62.473 36.9807 62.5746 37.3679 62.778C37.7553 62.9815 38.1161 63.0924 38.4506 63.1108C38.7851 63.1293 39.0844 63.2125 39.3484 63.3605C39.6125 63.5084 39.8677 63.573 40.1142 63.5546C40.3606 63.5361 40.4926 63.4529 40.5103 63.305C40.5278 63.157 40.4926 62.9722 40.4047 62.7503C40.3606 62.6394 40.3166 62.5284 40.2726 62.4175C40.3606 62.4637 40.4486 62.51 40.5367 62.5562C40.7127 62.6487 40.8007 62.8242 40.8007 63.0831C40.8007 63.342 40.8183 63.4807 40.8536 63.4991C40.8887 63.5176 41.0207 63.5176 41.2496 63.4991C41.4785 63.4807 41.7953 63.5269 42.2002 63.6378C42.6051 63.7487 42.8779 63.8042 43.0188 63.8042C43.1596 63.8042 43.2565 63.7025 43.3093 63.4991C43.3357 63.3975 43.3621 63.2957 43.3885 63.194C43.4149 63.2865 43.4413 63.3789 43.4677 63.4714C43.5205 63.6562 43.7142 63.7487 44.0486 63.7487C44.3831 63.7487 44.6296 63.721 44.788 63.6655C44.9464 63.6101 45.0609 63.4437 45.1313 63.1663C45.1665 63.0276 45.2016 62.889 45.2369 62.7503C45.3601 62.8705 45.4834 62.9906 45.6066 63.1108C45.7298 63.2311 45.8531 63.3512 45.9762 63.4714C45.9587 63.342 45.941 63.2125 45.9234 63.0831C45.8882 62.8242 45.8267 62.6024 45.7386 62.4175C45.6505 62.2326 45.5362 62.0662 45.3953 61.9183C45.2545 61.7703 44.9728 61.5485 44.5503 61.2527C44.1279 60.9569 43.4677 60.735 42.5699 60.5871C41.6721 60.4391 41.0999 60.282 40.8536 60.1156C40.6071 59.9492 40.3518 59.8383 40.0878 59.7828C39.8237 59.7273 39.6653 59.6534 39.6125 59.5609C39.5861 59.5147 39.5597 59.4684 39.5333 59.4222C39.6301 59.413 39.7268 59.4038 39.8237 59.3945C40.0173 59.3761 40.1757 59.3298 40.299 59.2558C40.4222 59.1819 40.8007 58.8028 41.4345 58.1187C42.0682 57.4346 42.4994 57.0001 42.7284 56.8153C42.9572 56.6303 43.2829 56.4639 43.7054 56.316C44.1279 56.1681 44.4447 56.0294 44.656 55.9C44.8672 55.7705 45.1841 55.4286 45.6066 54.8739C46.0291 54.3192 46.3548 54.0419 46.5836 54.0419C46.8124 54.0419 46.9797 54.0141 47.0853 53.9587C47.1909 53.9032 47.3318 53.7737 47.5078 53.5704C47.6838 53.367 47.851 53.0526 48.0095 52.6274C48.1679 52.2021 48.2824 51.9525 48.3527 51.8786C48.4231 51.8046 48.5552 51.7491 48.7488 51.7122C48.9425 51.6752 49.1097 51.3701 49.2505 50.7969C49.3914 50.2238 49.5498 49.7523 49.7258 49.3825C49.902 49.0127 50.0251 48.8093 50.0955 48.7723C50.166 48.7354 50.254 48.7354 50.3596 48.7723C50.4652 48.8093 50.5708 48.9295 50.6764 49.1328C50.7821 49.3363 50.8613 49.4657 50.9141 49.5211C50.9669 49.5766 51.0286 49.5952 51.0989 49.5766C51.1694 49.5581 51.1606 49.2993 51.0725 48.8C50.9846 48.3008 50.9582 47.8386 50.9933 47.4133C51.0286 46.9882 51.0021 46.6738 50.9141 46.4704C50.8261 46.2671 50.8085 46.1469 50.8613 46.1099C50.9141 46.073 50.9846 46.0821 51.0725 46.1376C51.1606 46.1931 51.2662 46.2208 51.3894 46.2208C51.5127 46.2208 51.6711 46.1191 51.8647 45.9157C52.0584 45.7124 52.164 45.472 52.1816 45.1946C52.1992 44.9173 52.1287 44.6307 51.9703 44.3349C51.8119 44.0391 51.7327 43.8357 51.7327 43.7247C51.7327 43.6138 51.7591 43.5306 51.8119 43.4751C51.8647 43.4197 51.9703 43.4012 52.1288 43.4197C52.2872 43.4381 52.5073 43.5861 52.7889 43.8634C53.0706 44.1408 53.2555 44.4736 53.3434 44.8618C53.4315 45.2501 53.5635 45.472 53.7395 45.5274C53.9156 45.5829 54.1356 45.6106 54.3996 45.6106C54.6637 45.6106 54.8574 45.6384 54.9807 45.6938C55.1039 45.7493 55.1567 45.8418 55.1391 45.9712C55.1214 46.1007 55.0863 46.1931 55.0335 46.2485C54.9807 46.304 54.9807 46.4981 55.0335 46.8309C55.0599 46.9973 55.0863 47.1637 55.1127 47.3301C54.9718 47.3117 54.831 47.2932 54.6901 47.2747C54.4085 47.2378 54.2589 47.2655 54.2412 47.3579C54.2236 47.4504 54.2325 47.5151 54.2676 47.552C54.3029 47.589 54.4789 47.663 54.7957 47.7739C55.1127 47.8848 55.5264 48.1622 56.0369 48.6059C56.5473 49.0496 57.1899 49.4379 57.9645 49.7707C58.739 50.1035 59.1351 50.2977 59.1528 50.3531C59.1703 50.4086 59.1351 50.4918 59.0471 50.6027C58.9591 50.7137 58.7126 50.8246 58.3078 50.9356C57.9029 51.0465 57.6564 51.1483 57.5684 51.2406C57.5243 51.2869 57.4804 51.3331 57.4364 51.3793C57.6388 51.407 57.8412 51.4348 58.0437 51.4625C58.4485 51.518 58.7303 51.6105 58.8887 51.74C59.0471 51.8693 59.1615 52.0819 59.232 52.3778C59.3023 52.6736 59.2584 52.9139 59.0999 53.0989C58.9415 53.2838 58.9238 53.4779 59.0471 53.6813C59.1703 53.8846 59.2056 54.0603 59.1528 54.2083C59.0999 54.3561 59.0823 54.5041 59.0999 54.652C59.1175 54.7998 59.0647 54.9108 58.9415 54.9848C58.8182 55.0587 58.7303 55.1512 58.6775 55.2622C58.6511 55.3176 58.6246 55.3731 58.5982 55.4286C58.739 55.5025 58.8799 55.5764 59.0207 55.6504C59.3024 55.7983 59.4696 55.9924 59.5224 56.2328C59.5752 56.4732 59.6104 56.7967 59.6281 57.2035C59.6368 57.4068 59.6456 57.6103 59.6545 57.8137C59.8744 57.7119 60.0945 57.6103 60.3146 57.5086C60.7547 57.3052 61.0451 57.3236 61.186 57.5641C61.3269 57.8044 61.5645 58.091 61.8989 58.4238C62.2334 58.7566 62.5943 59.0247 62.9816 59.2281C63.3688 59.4315 63.7562 59.5794 64.1434 59.6719C64.5307 59.7643 64.918 59.8105 65.3053 59.8105C65.6925 59.8105 66.247 59.7458 66.9688 59.6164C67.6906 59.487 68.7821 59.339 70.2431 59.1726C71.7043 59.0062 72.6813 58.8583 73.1743 58.7289C73.6671 58.5995 74.0544 58.4608 74.3361 58.3129C74.6177 58.1649 74.8642 57.9523 75.0755 57.675C75.2867 57.3977 75.401 57.111 75.4187 56.8153C75.4363 56.5193 74.6794 56.279 73.1478 56.0942C71.6162 55.9092 70.6656 55.7243 70.2959 55.5395C69.9262 55.3545 69.6182 55.1604 69.3717 54.9571C69.1254 54.7537 68.9581 54.5688 68.87 54.4024C68.7821 54.236 68.562 53.3208 68.2099 51.6566C67.8579 49.9926 67.5322 48.7723 67.2329 47.9958C66.9337 47.2192 66.7664 46.5906 66.7312 46.1099C66.696 45.6291 66.608 45.1762 66.4671 44.7509C66.3262 44.3256 66.2295 43.8727 66.1767 43.3919C66.1238 42.9112 65.9742 42.2641 65.7278 41.4506C65.4813 40.637 65.3581 40.1655 65.3581 40.0361C65.3581 39.9067 65.3933 39.7495 65.4637 39.5647C65.5341 39.3797 65.5693 39.1394 65.5693 38.8436C65.5693 38.5477 65.6046 38.2889 65.6749 38.067C65.7453 37.8452 65.7806 37.4753 65.7806 36.9577C65.7806 36.4399 65.7278 35.9961 65.6221 35.6264C65.5165 35.2566 65.3581 34.9886 65.1468 34.8222C64.9356 34.6558 64.8652 34.3598 64.9356 33.9347C65.006 33.5094 64.9884 33.2412 64.8828 33.1303C64.7772 33.0193 64.6099 32.9639 64.3811 32.9639C64.1523 32.9639 63.8882 33.0193 63.5889 33.1303C63.2896 33.2412 63.0608 33.2782 62.9024 33.2412C62.7439 33.2043 62.6559 33.1396 62.6383 33.0471C62.6207 32.9547 62.6911 32.8715 62.8495 32.7975C62.9288 32.7606 63.008 32.7236 63.0872 32.6865C63.0696 32.6496 63.0519 32.6126 63.0344 32.5756C62.9991 32.5017 62.9991 32.3537 63.0344 32.1319C63.0696 31.91 63.0255 31.7436 62.9024 31.6326C62.7792 31.5217 62.6207 31.4571 62.4271 31.4385C62.2334 31.4201 62.0926 31.383 62.0046 31.3276C61.9165 31.2721 61.8901 31.1889 61.9253 31.078C61.9606 30.967 62.2334 30.8838 62.7439 30.8284C63.2545 30.7729 63.677 30.6805 64.0114 30.551C64.3458 30.4216 64.5131 30.3292 64.5131 30.2737C64.5131 30.2459 64.5131 30.2182 64.5131 30.1905C64.5395 30.1998 64.5659 30.2091 64.5923 30.2182C64.6187 30.2275 64.6451 30.2368 64.6715 30.246C64.6715 30.2275 64.6715 30.2091 64.6715 30.1905C64.6715 30.172 64.6715 30.1536 64.6715 30.135C64.3635 30.1443 64.0554 30.1536 63.7473 30.1628C63.1312 30.1813 62.6383 30.1443 62.2686 30.0518C62.0838 30.0056 61.8989 29.9594 61.7141 29.9131C61.7757 29.8947 61.8373 29.8762 61.8989 29.8577C62.0221 29.8208 62.3126 29.8022 62.7703 29.8022C62.9991 29.8022 63.2281 29.8022 63.4569 29.8022C63.4305 29.7098 63.4041 29.6174 63.3777 29.5249C63.3513 29.4325 63.3248 29.34 63.2984 29.2475C63.4393 29.2198 63.5801 29.1921 63.7209 29.1643C64.0025 29.1089 64.1962 29.0257 64.3019 28.9147C64.4075 28.8038 64.4603 28.6929 64.4603 28.5819C64.4603 28.471 64.2843 28.3416 63.9322 28.1936C63.5801 28.0458 63.3777 27.9163 63.3248 27.8054C63.2984 27.7499 63.272 27.6944 63.2456 27.639C63.3952 27.676 63.5449 27.713 63.6945 27.7499C63.8441 27.7869 63.9938 27.8239 64.1434 27.8608C64.1523 27.7776 64.161 27.6944 64.1698 27.6112C64.1874 27.4448 64.2315 27.3062 64.3019 27.1952C64.3722 27.0843 64.5747 27.0104 64.9092 26.9734C65.2436 26.9363 65.4637 26.8902 65.5693 26.8347C65.6221 26.8069 65.6749 26.7792 65.7278 26.7515C65.6925 26.696 65.6574 26.6405 65.6221 26.5851C65.5518 26.4741 65.402 26.3262 65.1732 26.1413C64.9444 25.9565 64.7683 25.8455 64.6451 25.8085C64.5219 25.7715 64.4339 25.716 64.3811 25.6421C64.3283 25.5682 64.3899 25.4573 64.5659 25.3093C64.7419 25.1614 64.83 25.0413 64.83 24.9488C64.83 24.8563 64.5307 24.6344 63.9322 24.2832C63.3337 23.9319 63.0344 23.7378 63.0344 23.7008C63.0344 23.6823 63.0344 23.6637 63.0344 23.6453C63.2896 23.6637 63.5449 23.6823 63.8001 23.7008C64.3107 23.7378 64.5835 23.7469 64.6187 23.7285C64.654 23.71 64.6627 23.636 64.6451 23.5066C64.6276 23.3772 64.5395 23.22 64.3811 23.0351C64.2226 22.8503 63.9233 22.6098 63.4833 22.3141C63.0432 22.0183 62.7703 21.8056 62.6647 21.6762C62.6119 21.6114 62.5591 21.5468 62.5063 21.482C62.7175 21.5098 62.9288 21.5375 63.14 21.5652C63.5625 21.6207 63.9938 21.593 64.4339 21.482C64.8739 21.3711 65.1204 21.2786 65.1732 21.2047C65.1996 21.1677 65.226 21.1307 65.2524 21.0938C65.2085 21.066 65.1644 21.0383 65.1204 21.0106C65.0324 20.9551 64.9884 20.8903 64.9884 20.8164C64.9884 20.7424 65.0148 20.6778 65.0676 20.6223C65.094 20.5946 65.1204 20.5668 65.1468 20.5391C65.1116 20.5021 65.0765 20.4651 65.0412 20.4282C65.006 20.3911 64.9708 20.3541 64.9356 20.3172C65.5518 20.3079 66.1678 20.2986 66.784 20.2895C67.4001 20.2802 68.0163 20.2709 68.6324 20.2617C68.6324 20.2247 68.6324 20.1877 68.6324 20.1508C68.6324 20.0768 68.5532 20.0213 68.3947 19.9844C68.2363 19.9474 68.1395 19.9012 68.1043 19.8457C68.0867 19.818 68.0691 19.7903 68.0514 19.7625C68.1395 19.7348 68.2276 19.7071 68.3155 19.6793C68.4916 19.6239 68.65 19.4852 68.7908 19.2633C68.9317 19.0415 69.0901 18.912 69.2661 18.8751C69.4422 18.838 69.6182 18.8565 69.7942 18.9305C69.9703 19.0044 70.2608 19.217 70.6656 19.5684C71.0705 19.9197 71.3434 20.2154 71.4842 20.4559C71.625 20.6962 71.7043 20.8719 71.7218 20.9828C71.7395 21.0938 71.7131 21.4173 71.6426 21.9535C71.6075 22.2216 71.5722 22.4897 71.537 22.7578C71.6075 22.7578 71.6779 22.7578 71.7482 22.7578C71.8891 22.7578 72.0036 22.7948 72.0915 22.8687C72.1796 22.9427 72.2676 23.22 72.3557 23.7008C72.4436 24.1815 72.5757 24.4218 72.7518 24.4218C72.9278 24.4218 73.0686 24.4773 73.1743 24.5882C73.2799 24.6992 73.3591 24.7546 73.4119 24.7546C73.4647 24.7546 73.5791 24.6714 73.7552 24.505C73.9312 24.3386 74.0896 24.2554 74.2305 24.2554C74.3712 24.2554 74.4857 24.2924 74.5738 24.3664C74.6617 24.4403 74.7058 24.5512 74.7058 24.6992C74.7058 24.8471 74.6177 25.069 74.4417 25.3648C74.2656 25.6606 74.1249 25.9472 74.0192 26.2245C73.9136 26.5019 73.8431 26.8809 73.808 27.3616C73.7727 27.8424 73.6935 28.1197 73.5703 28.1936C73.447 28.2677 73.3855 28.36 73.3855 28.471C73.3855 28.5819 73.4559 28.7392 73.5967 28.9425C73.7375 29.1459 73.8167 29.3493 73.8344 29.5526C73.852 29.756 73.8431 29.9317 73.808 30.0795C73.7727 30.2275 73.7727 30.32 73.808 30.3569C73.8431 30.3939 73.9136 30.4124 74.0192 30.4124C74.1249 30.4124 74.248 30.3477 74.3889 30.2182C74.5297 30.0888 74.6881 30.0518 74.8642 30.1073C75.0402 30.1627 75.1634 30.1259 75.2339 29.9963C75.3043 29.867 75.4187 29.8022 75.5772 29.8022C75.7356 29.8022 75.8412 29.7098 75.894 29.5249C75.9468 29.34 76.0436 29.1459 76.1845 28.9425C76.3252 28.7392 76.4221 28.5542 76.475 28.3878C76.5278 28.2214 76.5981 28.1104 76.6862 28.055C76.7741 27.9995 76.9062 27.9626 77.0823 27.944C77.2583 27.9256 77.3991 27.7776 77.5048 27.5003C77.6104 27.223 77.7072 27.0843 77.7952 27.0843C77.8833 27.0843 77.9712 27.2045 78.0593 27.4448C78.1473 27.6853 78.2177 27.8054 78.2705 27.8054C78.3233 27.8054 78.4026 27.7315 78.5082 27.5835C78.6138 27.4355 78.737 27.3616 78.8779 27.3616C79.0187 27.3616 79.0979 27.3062 79.1155 27.1952C79.1331 27.0843 79.1683 27.0104 79.2211 26.9734C79.2739 26.9363 79.3004 26.8624 79.3004 26.7515C79.3004 26.6405 79.2123 26.5019 79.0363 26.3355C78.8603 26.1691 78.7811 26.0211 78.7986 25.8917C78.8162 25.7623 78.8779 25.6976 78.9835 25.6976C79.0891 25.6976 79.2387 25.7438 79.4324 25.8363C79.5292 25.8824 79.6261 25.9287 79.7228 25.9749C79.714 25.8455 79.7053 25.716 79.6964 25.5867C79.6789 25.3278 79.6876 25.1799 79.7228 25.1429C79.7581 25.1059 79.8813 25.0967 80.0925 25.1152C80.3038 25.1336 80.5854 25.2446 80.9375 25.448C81.2896 25.6514 81.5273 25.7438 81.6505 25.7253C81.7121 25.716 81.7736 25.7069 81.8353 25.6976C81.8177 25.6421 81.8 25.5867 81.7825 25.5312C81.7472 25.4203 81.624 25.2168 81.4128 24.921C81.2016 24.6253 81.0784 24.4311 81.0431 24.3386C81.0079 24.2461 80.9992 24.1075 81.0167 23.9226C81.0256 23.8301 81.0343 23.7378 81.0431 23.6453C81.1048 23.6637 81.1663 23.6823 81.228 23.7008C81.3512 23.7378 81.5976 23.9042 81.9673 24.2C82.337 24.4958 82.6539 24.7085 82.9179 24.8378C83.182 24.9672 83.3404 25.0135 83.3932 24.9765C83.4196 24.9581 83.446 24.9395 83.4724 24.921C83.4724 24.9488 83.4724 24.9765 83.4724 25.0042C83.4724 25.032 83.4724 25.0597 83.4724 25.0874C83.49 25.0874 83.5077 25.0874 83.5252 25.0874C83.5428 25.0874 83.5605 25.0874 83.5781 25.0874C83.5428 25.032 83.5077 24.9765 83.4724 24.921C83.4021 24.8101 83.2084 24.6437 82.8915 24.4218C82.5747 24.2 82.3282 23.9965 82.1522 23.8117C81.9762 23.6268 81.9057 23.5066 81.9409 23.4511C81.9762 23.3957 82.0465 23.3495 82.1522 23.3125C82.2578 23.2755 82.8035 23.257 83.7893 23.257C84.7752 23.257 85.3561 23.2386 85.5321 23.2015C85.7082 23.1645 85.9282 23.0906 86.1922 22.9797C86.4563 22.8687 86.7116 22.7116 86.958 22.5082C87.2045 22.3048 87.4246 22.0274 87.6181 21.6762C87.8118 21.3248 87.935 21.0475 87.9878 20.8442C88.0406 20.6407 88.0847 20.2525 88.1198 19.6793C88.1551 19.1061 88.199 18.7548 88.2519 18.6255C88.3047 18.4959 88.3311 18.3388 88.3311 18.154C88.3311 17.969 88.2871 17.8026 88.199 17.6548C88.1111 17.5068 88.1111 17.2665 88.199 16.9337C88.2871 16.6009 88.3135 16.2958 88.2783 16.0185C88.2431 15.7411 88.3135 15.4452 88.4895 15.1309C88.6656 14.8166 88.78 14.5577 88.8328 14.3543C88.8856 14.151 88.912 13.8921 88.912 13.5778C88.912 13.2635 88.8592 12.8289 88.7536 12.2743C88.6479 11.7196 88.4895 11.2667 88.2783 10.9153C88.067 10.5641 87.9086 10.2405 87.803 9.94462C87.6973 9.64884 87.6358 9.09413 87.6181 8.2806C87.6094 7.87383 87.6005 7.46707 87.5917 7.0603C87.5477 7.08803 87.5038 7.11577 87.4597 7.1435C87.3717 7.19897 87.2133 7.40235 86.9844 7.75366C86.7556 8.10495 86.5179 8.34532 86.2714 8.47474C86.0251 8.60417 85.7522 8.66888 85.4529 8.66888C85.1537 8.66888 84.9776 8.62266 84.9247 8.53021C84.8719 8.43776 84.8368 8.26212 84.8191 8.00326C84.8104 7.87383 84.8016 7.74441 84.7927 7.61499C84.7399 7.65196 84.6871 7.68894 84.6343 7.72592C84.5287 7.79988 84.4494 7.89233 84.3966 8.00326C84.3438 8.1142 84.1854 8.16042 83.9213 8.14193C83.6573 8.12345 83.3228 8.14193 82.9179 8.1974C82.513 8.25287 82.2666 8.26212 82.1786 8.22513C82.0905 8.18815 82.029 8.12345 81.9937 8.031C81.9585 7.93855 82.0905 7.76289 82.3898 7.50405C82.6891 7.2452 82.8475 7.06955 82.8651 6.9771C82.8739 6.93088 82.8827 6.88466 82.8915 6.83843C82.7859 6.84768 82.6803 6.85693 82.5747 6.86616C82.3634 6.88466 82.2225 6.85692 82.1522 6.78296C82.0818 6.70901 82.0026 6.67202 81.9145 6.67202C81.8265 6.67202 81.7649 6.81994 81.7297 7.11577C81.6944 7.4116 81.6593 7.55952 81.624 7.55952C81.5888 7.55952 81.4745 7.28217 81.2808 6.72749C81.0871 6.17281 80.8847 5.76604 80.6734 5.5072C80.4622 5.24835 80.251 5.05421 80.0397 4.92478C79.8285 4.79536 79.6789 4.61046 79.5908 4.3701C79.5028 4.12973 79.3796 3.90786 79.2211 3.70449C79.0627 3.5011 78.9482 3.38092 78.8779 3.34393C78.8075 3.30696 78.7106 3.29771 78.5874 3.3162C78.4642 3.3347 78.4026 3.47337 78.4026 3.73222C78.4026 3.99106 78.3673 4.13898 78.2969 4.17596C78.2266 4.21293 78.1209 4.17596 77.9801 4.06503C77.8392 3.95409 77.6016 3.88013 77.2671 3.84316C76.9326 3.80617 76.5542 3.71372 76.1317 3.5658C75.7092 3.4179 75.4099 3.34393 75.2339 3.34393C75.0578 3.34393 74.8993 3.39016 74.7586 3.4826C74.6177 3.57505 74.5473 3.67675 74.5473 3.78769C74.5473 3.89862 74.8378 4.2037 75.4187 4.70291C75.9996 5.20212 76.3341 5.4055 76.4221 5.31305C76.5101 5.22061 76.5806 5.17438 76.6334 5.17438C76.6862 5.17438 76.7477 5.22061 76.8182 5.31305C76.8886 5.4055 76.959 5.45172 77.0295 5.45172C77.0998 5.45172 77.1615 5.38702 77.2143 5.25758C77.2671 5.12816 77.3111 5.06345 77.3463 5.06345C77.3815 5.06345 77.5312 5.19288 77.7952 5.45172C78.0593 5.71057 78.2266 5.84001 78.2969 5.84001C78.3322 5.84001 78.3673 5.84001 78.4026 5.84001C78.4026 5.74756 78.4026 5.65511 78.4026 5.56267C78.4026 5.47022 78.4026 5.37777 78.4026 5.28532C78.4818 5.33155 78.561 5.37777 78.6402 5.42399C78.7194 5.47022 78.7986 5.51644 78.8779 5.56267C78.8779 5.4887 78.8779 5.41475 78.8779 5.34079C78.8779 5.26683 78.8779 5.19288 78.8779 5.11891C78.9131 5.12816 78.9482 5.13741 78.9835 5.14665C79.0539 5.16515 79.1859 5.28532 79.3796 5.5072C79.5732 5.72907 79.7845 6.03414 80.0133 6.42242C80.2421 6.81069 80.339 7.19897 80.3038 7.58726C80.2685 7.97553 80.2334 8.1974 80.1981 8.25287C80.1629 8.30834 80.0661 8.3638 79.9077 8.41927C79.7492 8.47474 79.4148 8.49323 78.9043 8.47474C78.3937 8.45625 77.8833 8.59492 77.3727 8.89075C76.8622 9.18652 76.5365 9.35293 76.3957 9.38995C76.2549 9.42696 76.0525 9.5379 75.7884 9.72275C75.5243 9.90773 75.3482 10.0001 75.2603 10.0001C75.1722 10.0001 75.0842 9.96319 74.9962 9.88916C74.9082 9.81524 74.8114 9.79679 74.7058 9.83369C74.6002 9.87071 74.5209 10.0187 74.4681 10.2774C74.4153 10.5363 74.3097 10.7212 74.1513 10.8321C73.9928 10.943 73.9136 11.0355 73.9136 11.1094C73.9136 11.1835 73.984 11.4145 74.1249 11.8028C74.2656 12.1911 74.4329 12.4684 74.6266 12.6348C74.8201 12.8012 74.9257 12.9492 74.9434 13.0786C74.961 13.2081 74.829 13.5038 74.5473 13.966C74.4065 14.1972 74.2656 14.4283 74.1249 14.6594C74.424 14.7703 74.7233 14.8813 75.0226 14.9922C75.6211 15.2141 75.9732 15.3897 76.0789 15.5193C76.1845 15.6486 76.2549 15.8612 76.2901 16.1571C76.3252 16.4529 76.2549 16.7025 76.0789 16.9059C75.9028 17.1092 75.63 17.2849 75.2603 17.4329C74.8906 17.5807 74.5385 17.6732 74.2041 17.7102C73.8695 17.7471 73.5527 17.738 73.2535 17.6825C72.9542 17.627 72.7429 17.5345 72.6197 17.4052C72.4964 17.2757 72.4349 17.1463 72.4349 17.0169C72.4349 16.8874 72.4789 16.7673 72.5669 16.6563C72.6549 16.5454 72.7077 16.4436 72.7254 16.3513C72.7341 16.305 72.7429 16.2588 72.7518 16.2126C72.6109 16.1849 72.47 16.1571 72.3293 16.1294C72.0475 16.0739 71.9067 15.9999 71.9067 15.9075C71.9067 15.815 71.9683 15.7226 72.0915 15.6302C72.2148 15.5377 72.2765 15.4638 72.2765 15.4082C72.2765 15.3527 72.0915 15.2881 71.7218 15.2141C71.3521 15.1401 71.1322 15.0569 71.0617 14.9645C70.9913 14.8721 70.9297 14.7057 70.8769 14.4652C70.824 14.2249 70.692 14.0215 70.4808 13.8551C70.2695 13.6887 70.1463 13.4577 70.1111 13.1618C70.076 12.866 70.0847 12.6164 70.1375 12.4129C70.1903 12.2096 70.1463 12.0339 70.0055 11.886C69.8647 11.7382 69.7591 11.5625 69.6886 11.3591C69.6182 11.1558 69.583 10.9893 69.583 10.8598C69.583 10.7305 69.671 10.6195 69.847 10.527C70.0231 10.4347 70.1111 10.3422 70.1111 10.2497C70.1111 10.1573 70.0496 9.99093 69.9262 9.75049C69.8031 9.51017 69.7942 9.34376 69.8998 9.25128C70.0055 9.15885 70.1024 8.96471 70.1903 8.66888C70.2784 8.37305 70.3751 8.1974 70.4808 8.14193C70.5864 8.08646 70.6305 7.79988 70.6128 7.28217C70.5952 6.76447 70.6128 6.32997 70.6656 5.97868C70.7184 5.62737 70.7801 5.36852 70.8504 5.20212C70.9209 5.03571 71.1409 4.99874 71.5106 5.09118C71.8803 5.18363 72.1796 5.22985 72.4085 5.22985C72.6373 5.22985 72.8574 5.16515 73.0686 5.03571C73.2799 4.90629 73.5175 4.85082 73.7816 4.86931C74.0456 4.88781 74.2305 4.87856 74.3361 4.84158C74.4417 4.80459 74.5121 4.73989 74.5473 4.64744C74.5825 4.55499 74.5561 4.46255 74.4681 4.3701C74.3801 4.27765 74.2833 4.11125 74.1777 3.87089C74.072 3.63052 73.8872 3.51034 73.6231 3.51034C73.3591 3.51034 73.1654 3.46412 73.0422 3.37167C72.9189 3.27923 72.7605 3.26998 72.5669 3.34393C72.3732 3.4179 72.2324 3.44563 72.1444 3.42714C72.0564 3.40865 71.9595 3.3347 71.8539 3.20526C71.7482 3.07584 71.625 2.73379 71.4842 2.17911C71.3434 1.62442 71.2378 1.31011 71.1673 1.23615C71.1322 1.19916 71.0969 1.16219 71.0617 1.12521C71.0353 1.25464 71.0089 1.38406 70.9825 1.51348ZM87.5389 1.79082C87.3629 1.97572 87.2484 2.12364 87.1956 2.23458C87.1428 2.34551 87.1164 2.49343 87.1164 2.67832C87.1164 2.86321 87.2045 3.26998 87.3805 3.89862C87.5566 4.52725 87.803 5.18363 88.1198 5.86774C88.4367 6.55184 88.604 7.30992 88.6215 8.14193C88.6392 8.97395 88.6568 9.42696 88.6743 9.50088C88.692 9.57492 88.7272 9.61182 88.78 9.61182C88.8328 9.61182 89.044 9.30674 89.4138 8.69661C89.7835 8.08646 89.9771 7.54102 89.9947 7.0603C90.0123 6.57957 89.9859 6.14508 89.9155 5.75681C89.845 5.36852 89.8099 4.88781 89.8099 4.31463C89.8099 3.74146 89.5898 3.17753 89.1496 2.62285C88.7096 2.06817 88.4367 1.75385 88.3311 1.67989C88.2254 1.60594 88.1111 1.55972 87.9878 1.54122C87.8646 1.52273 87.715 1.60593 87.5389 1.79082ZM83.0499 10.5548C83.27 11.0817 83.49 11.6087 83.7101 12.1356C84.1503 13.1895 84.5551 13.966 84.9247 14.4652C85.2944 14.9645 85.7169 15.4545 86.1922 15.9353C86.6675 16.4159 87.0196 16.8782 87.2484 17.322C87.4774 17.7657 87.6006 18.1909 87.6181 18.5977C87.6358 19.0044 87.6094 19.4482 87.5389 19.9289C87.4685 20.4096 87.3629 20.7794 87.222 21.0383C87.0813 21.2971 86.9052 21.5468 86.6939 21.7871C86.4827 22.0274 86.2363 22.2309 85.9546 22.3973C85.673 22.5637 85.3472 22.6561 84.9776 22.6746C84.6079 22.693 84.2382 22.6561 83.8685 22.5637C83.4988 22.4712 83.2259 22.3602 83.0499 22.2309C82.8739 22.1015 82.7331 21.9165 82.6275 21.6762C82.5218 21.4357 82.4779 20.9088 82.4954 20.0953C82.513 19.2818 82.6099 17.7657 82.7859 15.547C82.9619 13.3282 83.0499 11.9415 83.0499 11.3868C83.0499 11.1094 83.0499 10.8321 83.0499 10.5548ZM87.3541 11.7473C87.4774 11.7659 87.583 11.8214 87.6709 11.9137C87.759 12.0062 87.803 12.1819 87.803 12.4407C87.803 12.6996 87.759 12.9585 87.6709 13.2172C87.627 13.3467 87.583 13.4761 87.5389 13.6055C87.4685 13.5409 87.3981 13.4761 87.3277 13.4114C87.1869 13.282 87.0549 13.0971 86.9316 12.8567C86.8084 12.6164 86.7467 12.4038 86.7467 12.2188C86.7467 12.0339 86.8172 11.9046 86.958 11.8305C87.0988 11.7566 87.2309 11.7289 87.3541 11.7473ZM78.561 12.4129C78.7019 12.4315 78.8339 12.487 78.9571 12.5793C79.0803 12.6718 79.1595 12.8382 79.1947 13.0786C79.23 13.319 79.1683 13.5409 79.0099 13.7442C78.8515 13.9476 78.6578 14.0678 78.429 14.1047C78.2002 14.1417 77.9976 14.0863 77.8216 13.9383C77.6455 13.7905 77.5487 13.6241 77.5312 13.4391C77.5135 13.2542 77.5751 13.0601 77.716 12.8567C77.8568 12.6534 77.9976 12.5239 78.1385 12.4684C78.2794 12.4129 78.4201 12.3945 78.561 12.4129ZM80.1453 14.3266C80.1717 14.3636 80.1981 14.4006 80.2245 14.4375C80.2774 14.5116 80.3477 14.7426 80.4358 15.1309C80.5238 15.5193 80.6382 15.8521 80.7791 16.1294C80.9199 16.4067 80.9903 16.6471 80.9903 16.8505C80.9903 17.0538 80.9111 17.3311 80.7527 17.6825C80.5942 18.0338 80.515 18.3018 80.515 18.4868C80.515 18.6716 80.5854 18.9767 80.7263 19.402C80.8671 19.8272 81.0256 20.1045 81.2016 20.234C81.3776 20.3634 81.4745 20.4836 81.492 20.5946C81.5096 20.7055 81.4832 20.8256 81.4128 20.9551C81.3424 21.0845 81.2104 21.1492 81.0167 21.1492C80.823 21.1492 80.5678 21.1122 80.251 21.0383C79.9341 20.9643 79.4412 20.7979 78.7722 20.5391C78.1033 20.2802 77.6544 20.1785 77.4256 20.234C77.1966 20.2895 76.9854 20.4096 76.7918 20.5946C76.5981 20.7794 76.4397 20.8719 76.3165 20.8719C76.1932 20.8719 76.0084 20.7424 75.762 20.4836C75.5155 20.2247 75.269 20.0399 75.0226 19.9289C74.7762 19.818 74.6794 19.6885 74.7322 19.5407C74.785 19.3927 74.8818 19.2448 75.0226 19.0969C75.1634 18.949 75.3395 18.8196 75.5508 18.7087C75.762 18.5977 76.0612 18.4868 76.4485 18.3758C76.8358 18.2649 77.1791 18.0799 77.4784 17.8212C77.7775 17.5623 77.9625 17.4329 78.0329 17.4329C78.1033 17.4329 78.2002 17.5716 78.3233 17.8489C78.4465 18.1262 78.6138 18.422 78.8251 18.7364C79.0363 19.0506 79.2651 19.328 79.5116 19.5684C79.7581 19.8087 79.9605 19.9474 80.1189 19.9844C80.1981 20.0029 80.2774 20.0213 80.3566 20.0399C80.3654 19.9567 80.3741 19.8735 80.383 19.7903C80.4006 19.6239 80.3918 19.4759 80.3566 19.3465C80.3213 19.217 80.1981 18.9767 79.9869 18.6255C79.7757 18.2741 79.67 18.043 79.67 17.9321C79.67 17.8212 79.7228 17.6825 79.8285 17.5161C79.9341 17.3497 80.0045 17.1925 80.0397 17.0446C80.075 16.8967 80.0837 16.4345 80.0661 15.6579C80.0485 14.8813 80.0573 14.4652 80.0925 14.4098C80.1101 14.382 80.1278 14.3543 80.1453 14.3266ZM84.1326 18.043C84.0094 18.0799 83.9038 18.1724 83.8157 18.3204C83.7278 18.4682 83.7101 18.7087 83.7629 19.0415C83.8157 19.3743 83.939 19.6053 84.1326 19.7348C84.3263 19.8642 84.652 19.9289 85.1096 19.9289C85.5673 19.9289 85.805 19.9658 85.8225 20.0399C85.8402 20.1138 85.8225 20.2525 85.7697 20.4559C85.7433 20.5575 85.7169 20.6592 85.6905 20.761C85.7433 20.7424 85.7961 20.7239 85.8489 20.7055C85.9546 20.6685 86.0779 20.5391 86.2186 20.3172C86.3595 20.0953 86.5532 19.8549 86.7995 19.5961C87.046 19.3372 87.1781 19.0876 87.1956 18.8473C87.2133 18.6069 87.1605 18.422 87.0372 18.2926C86.914 18.1631 86.4299 18.0799 85.5849 18.043C84.7399 18.006 84.2559 18.006 84.1326 18.043ZM75.4451 30.1905C75.2339 30.3384 75.0138 30.3939 74.785 30.3569C74.5561 30.32 74.3976 30.3477 74.3097 30.4401C74.2216 30.5326 74.0456 30.551 73.7816 30.4956C73.6496 30.4678 73.5175 30.4401 73.3855 30.4124C73.3591 30.7544 73.3327 31.0965 73.3063 31.4385C73.2535 32.1227 73.1918 32.5294 73.1214 32.6588C73.0509 32.7883 72.8397 33.0193 72.4877 33.3521C72.1356 33.6851 71.8891 33.8606 71.7482 33.8792C71.6075 33.8977 71.4842 33.8792 71.3786 33.8237C71.2729 33.7683 71.1233 33.7683 70.9297 33.8237C70.8329 33.8515 70.7361 33.8792 70.6392 33.9069C70.648 33.7128 70.6569 33.5186 70.6656 33.3244C70.6833 32.9361 70.6569 32.7328 70.5864 32.7143C70.516 32.6958 70.3487 32.8529 70.0847 33.1857C69.8206 33.5185 69.6007 33.8977 69.4245 34.323C69.2485 34.7481 69.0989 35.044 68.9756 35.2104C68.8525 35.3768 68.7644 35.4785 68.7116 35.5155C68.6588 35.5524 68.4475 35.5524 68.0779 35.5155C67.7082 35.4785 67.4794 35.4878 67.3913 35.5432C67.3034 35.5987 67.1977 35.6911 67.0744 35.8206C66.9512 35.95 66.8104 36.1903 66.6519 36.5417C66.4935 36.8929 66.3703 37.2719 66.2823 37.6788C66.1942 38.0855 66.1591 38.4738 66.1767 38.8436C66.1942 39.2133 66.2206 39.426 66.2559 39.4815C66.2911 39.5369 66.3351 39.5554 66.3879 39.5369C66.4407 39.5184 66.4671 39.3058 66.4671 38.899C66.4671 38.4922 66.4848 38.2703 66.5199 38.2334C66.5552 38.1964 66.6344 38.2149 66.7576 38.2889C66.8809 38.3628 67.0657 38.409 67.3121 38.4276C67.5586 38.446 67.7259 38.483 67.8138 38.5385C67.9019 38.594 67.9811 38.6956 68.0514 38.8436C68.1219 38.9914 68.1835 39.0654 68.2363 39.0654C68.2891 39.0654 68.3419 39.0191 68.3947 38.9268C68.4475 38.8343 68.5003 38.5847 68.5532 38.178C68.606 37.7711 68.694 37.4938 68.8172 37.3459C68.8789 37.2719 68.9405 37.198 69.0021 37.1241C69.0285 37.1518 69.0549 37.1795 69.0813 37.2073C69.1341 37.2627 69.1693 37.3644 69.1869 37.5123C69.2046 37.6602 69.1869 38.0948 69.1341 38.8158C69.0813 39.5369 69.1165 39.9714 69.2397 40.1193C69.363 40.2673 69.5302 40.3135 69.7414 40.258C69.9527 40.2025 70.1288 40.2673 70.2695 40.4521C70.4104 40.637 70.5952 40.7665 70.824 40.8404C71.053 40.9143 71.1673 41.1639 71.1673 41.5892C71.1673 41.8018 71.1673 42.0145 71.1673 42.2271C71.2026 42.2271 71.2378 42.2271 71.2729 42.2271C71.3434 42.2271 71.405 42.1994 71.4578 42.1439C71.5106 42.0884 71.5986 41.8759 71.7218 41.506C71.8451 41.1362 71.9331 40.9236 71.9859 40.8681C72.0123 40.8404 72.0387 40.8127 72.0651 40.7849C72.1972 41.0253 72.3293 41.2657 72.4613 41.506C72.7254 41.9868 72.9366 42.3196 73.095 42.5044C73.2535 42.6893 73.3678 42.7911 73.4383 42.8095C73.5087 42.828 73.5967 42.9205 73.7024 43.0869C73.808 43.2533 73.9576 43.3827 74.1513 43.4751C74.3448 43.5676 74.4945 43.697 74.6002 43.8634C74.653 43.9466 74.7058 44.0298 74.7586 44.113C74.785 44.0021 74.8114 43.8911 74.8378 43.7802C74.8642 43.6693 74.8906 43.5583 74.917 43.4474C75.0138 43.5768 75.1106 43.7063 75.2075 43.8357C75.401 44.0946 75.6915 44.3719 76.0789 44.6677C76.4661 44.9635 76.783 45.1392 77.0295 45.1946C77.2758 45.2501 77.7247 45.2778 78.3762 45.2778C79.0275 45.2778 79.4588 45.3426 79.67 45.472C79.8813 45.6014 80.1893 45.6384 80.5942 45.5829C80.9992 45.5274 81.3512 45.4165 81.6505 45.2501C81.9498 45.0837 82.3018 44.7416 82.7067 44.2239C83.1116 43.7063 83.4285 43.1053 83.6573 42.4212C83.8862 41.7372 84.1062 41.2657 84.3174 41.0068C84.5287 40.7479 84.6784 40.5261 84.7663 40.3412C84.8544 40.1564 84.9072 39.9622 84.9247 39.7588C84.9424 39.5554 84.9072 39.2687 84.8191 38.899C84.7312 38.5292 84.5639 38.1871 84.3174 37.8729C84.071 37.5585 83.9126 37.3921 83.8421 37.3737C83.7717 37.3551 83.6486 37.2627 83.4724 37.0963C83.2964 36.9299 83.1203 36.6988 82.9443 36.403C82.7683 36.1071 82.6275 35.9593 82.5218 35.9593C82.4162 35.9593 82.3018 35.9962 82.1786 36.0702C82.0554 36.1441 81.9321 36.1718 81.8089 36.1534C81.6857 36.1348 81.5537 35.987 81.4128 35.7096C81.3424 35.571 81.2719 35.4323 81.2016 35.2936C81.184 35.3214 81.1663 35.3491 81.1487 35.3768C81.1312 35.4046 81.1135 35.4323 81.0959 35.46C81.0784 35.3953 81.0607 35.3305 81.0431 35.2659C81.0079 35.1364 80.9463 35.0163 80.8583 34.9054C80.7702 34.7944 80.4886 34.7481 80.0133 34.7667C79.538 34.7851 79.23 34.7759 79.0891 34.739C78.9482 34.7019 78.6138 34.4894 78.0857 34.1011C77.5576 33.7128 77.2055 33.4169 77.0295 33.2135C76.8534 33.0102 76.6421 32.8992 76.3957 32.8807C76.1492 32.8622 76.0084 32.7975 75.9733 32.6865C75.938 32.5756 75.8588 32.4924 75.7356 32.4369C75.6123 32.3815 75.6211 32.0209 75.762 31.3553C75.9028 30.6897 75.9733 30.2923 75.9733 30.1628C75.9733 30.0981 75.9733 30.0334 75.9733 29.9686C75.938 29.9686 75.9028 29.9686 75.8676 29.9686C75.7971 29.9686 75.6564 30.0426 75.4451 30.1905ZM80.3038 38.2334C80.6823 38.2703 81.0607 38.3073 81.4392 38.3444C81.8177 38.3813 82.1961 38.4183 82.5747 38.4553C82.4779 38.5015 82.381 38.5477 82.2842 38.594C82.0905 38.6863 81.8705 38.7418 81.624 38.7604C81.3776 38.7788 81.1312 38.7511 80.8847 38.6772C80.6382 38.6031 80.4798 38.5108 80.4094 38.3998C80.3741 38.3444 80.339 38.2889 80.3038 38.2334ZM78.4554 39.7311C78.6138 39.7865 78.7722 39.842 78.9307 39.8975C79.2475 40.0084 79.7404 40.0639 80.4094 40.0639C81.0784 40.0639 81.4304 40.1009 81.4656 40.1748C81.5009 40.2487 81.4656 40.3228 81.36 40.3967C81.2544 40.4706 81.0959 40.5353 80.8847 40.5908C80.6734 40.6463 80.383 40.6647 80.0133 40.6463C79.6436 40.6278 79.3268 40.5538 79.0627 40.4244C78.7986 40.295 78.6314 40.1841 78.561 40.0916C78.4906 39.9991 78.4554 39.9159 78.4554 39.842C78.4554 39.805 78.4554 39.7681 78.4554 39.7311ZM68.7116 40.9514C68.6588 41.0253 68.6324 41.127 68.6324 41.2564C68.6324 41.3858 68.6588 41.654 68.7116 42.0607C68.7644 42.4674 68.8085 42.6801 68.8436 42.6986C68.8613 42.7079 68.8789 42.717 68.8964 42.7263C68.9228 42.5137 68.9492 42.301 68.9756 42.0884C69.0285 41.6632 69.0109 41.3489 68.9228 41.1455C68.8789 41.0438 68.8349 40.9421 68.7908 40.8404C68.7644 40.8774 68.738 40.9143 68.7116 40.9514ZM66.5199 41.0068C66.5199 41.0807 66.696 41.4598 67.048 42.1439C67.4001 42.828 67.5938 43.1701 67.629 43.1701C67.6466 43.1701 67.6642 43.1701 67.6818 43.1701C67.673 43.0498 67.6642 42.9297 67.6554 42.8095C67.6378 42.5692 67.5761 42.338 67.4705 42.1162C67.3649 41.8943 67.2417 41.6631 67.1008 41.4228C66.9601 41.1825 66.8632 41.0346 66.8104 40.9791C66.7576 40.9236 66.696 40.8959 66.6255 40.8959C66.5904 40.8959 66.5552 40.8959 66.5199 40.8959C66.5199 40.9329 66.5199 40.9698 66.5199 41.0068ZM77.1351 41.3951C77.3551 41.4783 77.5751 41.5615 77.7952 41.6447C78.2353 41.8111 78.6314 41.9036 78.9835 41.922C79.3356 41.9405 79.6436 41.9313 79.9077 41.8943C80.1717 41.8573 80.3126 41.8573 80.3302 41.8943C80.339 41.9128 80.3477 41.9313 80.3566 41.9498C80.207 42.0145 80.0573 42.0792 79.9077 42.1439C79.6084 42.2733 79.2739 42.338 78.9043 42.338C78.5346 42.338 78.1913 42.2641 77.8745 42.1162C77.5576 41.9682 77.3551 41.8573 77.2671 41.7834C77.1791 41.7095 77.1351 41.6263 77.1351 41.5338C77.1351 41.4876 77.1351 41.4413 77.1351 41.3951ZM76.1845 43.281C76.3693 43.3549 76.5542 43.429 76.739 43.5029C77.1087 43.6508 77.4431 43.7247 77.7424 43.7247C78.0417 43.7247 78.3673 43.6877 78.7194 43.6138C79.0715 43.5399 79.3092 43.5029 79.4324 43.5029C79.494 43.5029 79.5556 43.5029 79.6172 43.5029C79.6172 43.5213 79.6172 43.5399 79.6172 43.5583C79.6172 43.5954 79.4412 43.7063 79.0891 43.8911C78.737 44.076 78.3762 44.1962 78.0065 44.2517C77.6368 44.3072 77.3199 44.2794 77.0559 44.1685C76.7918 44.0575 76.5806 43.8819 76.4221 43.6415C76.3429 43.5213 76.2637 43.4012 76.1845 43.281ZM17.8804 61.9183C17.9597 61.983 18.0389 62.0477 18.1181 62.1124C18.2765 62.2418 18.391 62.3713 18.4614 62.5007C18.5319 62.6301 18.567 62.8428 18.567 63.1386C18.567 63.2865 18.567 63.4344 18.567 63.5823C18.5319 63.5823 18.4966 63.5823 18.4614 63.5823C18.391 63.5823 18.347 63.4437 18.3293 63.1663C18.3118 62.889 18.2326 62.6116 18.0917 62.3343C18.0213 62.1956 17.9509 62.057 17.8804 61.9183ZM11.4903 61.9738C11.5431 62.0015 11.5959 62.0292 11.6487 62.057C11.7543 62.1124 11.8072 62.1772 11.8072 62.2511C11.8072 62.2881 11.8072 62.325 11.8072 62.362C11.7455 62.3436 11.684 62.325 11.6223 62.3066C11.4991 62.2695 11.4463 62.2049 11.4639 62.1124C11.4727 62.0662 11.4815 62.0199 11.4903 61.9738ZM44.5503 62.1956C44.5943 62.2604 44.6384 62.325 44.6824 62.3898C44.7704 62.5192 44.8232 62.7133 44.8408 62.9722C44.8496 63.1016 44.8584 63.2311 44.8672 63.3605C44.832 63.3512 44.7968 63.342 44.7616 63.3327C44.6912 63.3143 44.6384 63.1201 44.6032 62.7503C44.5856 62.5655 44.5679 62.3805 44.5503 62.1956ZM39.0052 62.8612C39.058 62.8612 39.1108 62.8612 39.1636 62.8612C39.2692 62.8612 39.3836 62.8983 39.5069 62.9722C39.5684 63.0092 39.6301 63.0461 39.6917 63.0831C39.5948 63.0738 39.498 63.0647 39.4012 63.0554C39.2076 63.0369 39.0931 62.9999 39.058 62.9444C39.0403 62.9167 39.0227 62.889 39.0052 62.8612ZM12.8106 62.9722C12.8809 63.0092 12.9514 63.0461 13.0218 63.0831C13.1627 63.157 13.2506 63.2402 13.2859 63.3327C13.3034 63.3789 13.3211 63.4252 13.3387 63.4714C13.277 63.4344 13.2155 63.3975 13.1538 63.3605C13.0307 63.2865 12.9426 63.2033 12.8898 63.1108C12.8634 63.0647 12.837 63.0184 12.8106 62.9722Z" fill="black"/>
</svg>
